<svg xmlns="http://www.w3.org/2000/svg" xmlns:xlink="http://www.w3.org/1999/xlink" viewBox="0 0 2508.33 1057.49"><defs><style>.cls-1{fill:none;}.cls-2{fill:#6d6e71;}.cls-3{fill:#231f20;}.cls-4{fill:#0f4c8f;}.cls-5{fill:#fff;}.cls-6{fill:#b7ca9d;}.cls-7{fill:#4c622c;}.cls-8{fill:#759c3f;}.cls-9{fill:#3c4929;}.cls-10{fill:#4f4f4f;}.cls-11{fill:#adadad;}.cls-12{fill:#9edcf2;}.cls-13{clip-path:url(#clip-path);}.cls-14{fill:#7dbce7;}.cls-15{fill:#010101;}.cls-16{fill:#f5ccb3;}.cls-17{fill:#af5c51;}.cls-18{fill:#c4e5d9;}.cls-19{fill:url(#linear-gradient);}.cls-20{fill:url(#linear-gradient-2);}.cls-21{fill:url(#linear-gradient-3);}.cls-22{fill:url(#linear-gradient-4);}</style><clipPath id="clip-path"><path class="cls-1" d="M598,659.51c1.83,8.55,6.35,13.61,10.77,16.59L656,676c5.71-3.87,11.54-11.21,11.54-25.06V615.44s.73-8.79,8.79-11.72c0,0,4.76-3.3-.37-5.13,0,0-22.34-1.84-22.34,16.48v27.11s.88,10-4.39,14.1V622.83s.36-10.62,5.86-14.65c0,0,3.66-6.59-4.39-4.76,0,0-15.38,2.2-16.12,20.15l-.35,34.37h-3.7l-.35-34.37c-.73-17.95-16.12-20.15-16.12-20.15-8.06-1.83-4.39,4.76-4.39,4.76,5.49,4,5.86,14.65,5.86,14.65v33.84c-5.28-3.74-4.39-14.48-4.39-14.48V615.08c0-18.32-22.34-16.48-22.34-16.48-5.13,1.83-.37,5.13-.37,5.13,8.06,2.93,8.79,11.72,8.79,11.72V640.3l.85,19.21Z"/></clipPath><linearGradient id="linear-gradient" x1="2476.86" y1="3131.76" x2="2393.75" y2="3274.88" gradientTransform="matrix(1, 0, 0, -1, 0, 3285.4)" gradientUnits="userSpaceOnUse"><stop offset="0" stop-color="#fba923"/><stop offset="1" stop-color="#f78c29"/></linearGradient><linearGradient id="linear-gradient-2" x1="2394.3" y1="3073.32" x2="2303.67" y2="3233.34" gradientTransform="matrix(1, 0, 0, -1, 0, 3285.4)" gradientUnits="userSpaceOnUse"><stop offset="0.25" stop-color="#fbab23"/><stop offset="0.7" stop-color="#ffca2a"/><stop offset="1" stop-color="#ffd042"/></linearGradient><linearGradient id="linear-gradient-3" x1="2490.91" y1="9124.64" x2="2397.47" y2="9285.53" gradientTransform="translate(0 -8300.2)" xlink:href="#linear-gradient"/><linearGradient id="linear-gradient-4" x1="2398.07" y1="9058.97" x2="2296.22" y2="9238.82" gradientTransform="translate(0 -8300.2)" gradientUnits="userSpaceOnUse"><stop offset="0" stop-color="#ffd042"/><stop offset="0.3" stop-color="#ffca2a"/><stop offset="0.75" stop-color="#fbab23"/></linearGradient></defs><title>CICD</title><g id="Layer_2" data-name="Layer 2"><g id="Layer_1-2" data-name="Layer 1"><path class="cls-2" d="M0,678.15H8.7c10,0,16,5.4,16,16.2s-6,16.5-15.65,16.5H0Zm8.3,28c6.6,0,10.4-3.75,10.4-11.8s-3.8-11.5-10.4-11.5H5.8v23.3Z"/><path class="cls-2" d="M40.4,685.7c6.65,0,10.15,4.8,10.15,11.65a12.33,12.33,0,0,1-.25,2.7H34.7c.5,4.45,3.3,7,7.25,7a10.26,10.26,0,0,0,5.7-1.8l2,3.6a15.49,15.49,0,0,1-8.4,2.65c-6.8,0-12.1-4.75-12.1-12.85S34.65,685.7,40.4,685.7Zm5.15,10.7c0-3.9-1.65-6.25-5-6.25-2.9,0-5.4,2.15-5.9,6.25Z"/><path class="cls-2" d="M53,686.3h5.85l3.9,12.75c.65,2.4,1.4,4.9,2,7.4H65c.7-2.5,1.4-5,2.1-7.4L71,686.3h5.55L68.2,710.85H61.55Z"/><path class="cls-2" d="M90.2,685.7c6.65,0,10.15,4.8,10.15,11.65a12.33,12.33,0,0,1-.25,2.7H84.5c.5,4.45,3.3,7,7.25,7a10.26,10.26,0,0,0,5.7-1.8l2,3.6a15.49,15.49,0,0,1-8.4,2.65c-6.8,0-12.1-4.75-12.1-12.85S84.45,685.7,90.2,685.7Zm5.15,10.7c0-3.9-1.65-6.25-5-6.25-2.9,0-5.4,2.15-5.9,6.25Z"/><path class="cls-2" d="M105.85,675.55h5.75v29.3c0,1.4.65,1.9,1.25,1.9a3.44,3.44,0,0,0,.9-.1l.75,4.3a7.86,7.86,0,0,1-3,.5c-4.1,0-5.6-2.65-5.6-6.9Z"/><path class="cls-2" d="M129.45,685.7c6.15,0,11.7,4.7,11.7,12.9s-5.55,12.85-11.7,12.85-11.65-4.7-11.65-12.85S123.35,685.7,129.45,685.7Zm0,21.05c3.6,0,5.8-3.25,5.8-8.15s-2.2-8.2-5.8-8.2-5.75,3.25-5.75,8.2S125.85,706.75,129.45,706.75Z"/><path class="cls-2" d="M152.6,712.85v7.7h-5.75V686.3h4.75l.4,2.6h.2a12,12,0,0,1,7.4-3.2c6.1,0,9.65,4.9,9.65,12.5,0,8.4-5.05,13.25-10.5,13.25a9.93,9.93,0,0,1-6.3-2.7Zm5-6.15c3.25,0,5.75-2.9,5.75-8.45,0-4.9-1.6-7.8-5.3-7.8-1.8,0-3.5.9-5.4,2.75v11.45A7.76,7.76,0,0,0,157.55,706.7Z"/><path class="cls-2" d="M184.75,685.7c6.65,0,10.15,4.8,10.15,11.65a12.33,12.33,0,0,1-.25,2.7H179c.5,4.45,3.3,7,7.25,7a10.26,10.26,0,0,0,5.7-1.8l2,3.6a15.49,15.49,0,0,1-8.4,2.65c-6.8,0-12.1-4.75-12.1-12.85S179,685.7,184.75,685.7Zm5.15,10.7c0-3.9-1.65-6.25-5-6.25-2.9,0-5.4,2.15-5.9,6.25Z"/><path class="cls-2" d="M200.4,686.3h4.75l.4,4.35h.2c1.75-3.2,4.35-5,7-5a6.24,6.24,0,0,1,2.8.5l-1,5a8,8,0,0,0-2.55-.4c-2,0-4.3,1.35-5.8,5.05v15H200.4Z"/><path class="cls-2" d="M218.8,704.35c2.2,1.7,4.3,2.75,6.8,2.75,2.65,0,3.9-1.25,3.9-3,0-2.05-2.65-3-5.25-4-3.25-1.2-6.9-3-6.9-7.15,0-4.3,3.45-7.35,9-7.35a13.25,13.25,0,0,1,8.15,3l-2.65,3.5a9.14,9.14,0,0,0-5.4-2.1c-2.45,0-3.6,1.15-3.6,2.7,0,1.9,2.45,2.7,5.1,3.65,3.35,1.25,7,2.85,7,7.45,0,4.2-3.35,7.6-9.55,7.6a15.55,15.55,0,0,1-9.3-3.4Z"/><path class="cls-2" d="M497.12,677.55a13.28,13.28,0,0,1,9.75,4.15l-3.2,3.6a8.54,8.54,0,0,0-6.5-2.7c-5.8,0-9.7,4.5-9.7,11.85s3.5,12,10.05,12a7.18,7.18,0,0,0,4.65-1.45V697.9H496v-4.75h11.35v14.4a15.83,15.83,0,0,1-10.55,3.9c-8.7,0-15.3-6-15.3-16.85S488.32,677.55,497.12,677.55Z"/><path class="cls-2" d="M513.37,678.75a3.56,3.56,0,1,1,3.55,3.25A3.3,3.3,0,0,1,513.37,678.75Zm.65,7.55h5.75v24.55H514Z"/><path class="cls-2" d="M528,690.85h-3.5v-4.3l3.8-.25.7-6.7h4.8v6.7H540v4.55h-6.25v11.7c0,2.9,1.1,4.3,3.45,4.3a7,7,0,0,0,2.55-.55l1,4.25a15.69,15.69,0,0,1-5,.9c-5.7,0-7.8-3.6-7.8-8.9Z"/><path class="cls-2" d="M573.67,710.85l-7.05-12.8h-5v12.8h-5.8v-32.7h11c6.8,0,12.05,2.4,12.05,9.7,0,5-2.6,8-6.55,9.35l7.8,13.65Zm-12-17.4h4.6c4.5,0,6.9-1.9,6.9-5.6s-2.4-5.05-6.9-5.05h-4.6Z"/><path class="cls-2" d="M594.42,685.7c6.65,0,10.15,4.8,10.15,11.65a12.33,12.33,0,0,1-.25,2.7h-15.6c.5,4.45,3.3,7,7.25,7a10.26,10.26,0,0,0,5.7-1.8l2,3.6a15.49,15.49,0,0,1-8.4,2.65c-6.8,0-12.1-4.75-12.1-12.85S588.67,685.7,594.42,685.7Zm5.15,10.7c0-3.9-1.65-6.25-5-6.25-2.9,0-5.4,2.15-5.9,6.25Z"/><path class="cls-2" d="M615.82,712.85v7.7h-5.75V686.3h4.75l.4,2.6h.2a12,12,0,0,1,7.4-3.2c6.1,0,9.65,4.9,9.65,12.5,0,8.4-5.05,13.25-10.5,13.25a9.93,9.93,0,0,1-6.3-2.7Zm5-6.15c3.25,0,5.75-2.9,5.75-8.45,0-4.9-1.6-7.8-5.3-7.8-1.8,0-3.5.9-5.4,2.75v11.45A7.76,7.76,0,0,0,620.77,706.7Z"/><path class="cls-2" d="M648.32,685.7c6.15,0,11.7,4.7,11.7,12.9s-5.55,12.85-11.7,12.85-11.65-4.7-11.65-12.85S642.22,685.7,648.32,685.7Zm0,21.05c3.6,0,5.8-3.25,5.8-8.15s-2.2-8.2-5.8-8.2-5.75,3.25-5.75,8.2S644.72,706.75,648.32,706.75Z"/><path class="cls-2" d="M665.77,704.35c2.2,1.7,4.3,2.75,6.8,2.75,2.65,0,3.9-1.25,3.9-3,0-2.05-2.65-3-5.25-4-3.25-1.2-6.9-3-6.9-7.15,0-4.3,3.45-7.35,9-7.35a13.25,13.25,0,0,1,8.15,3l-2.65,3.5a9.14,9.14,0,0,0-5.4-2.1c-2.45,0-3.6,1.15-3.6,2.7,0,1.9,2.45,2.7,5.1,3.65,3.35,1.25,7,2.85,7,7.45,0,4.2-3.35,7.6-9.55,7.6a15.55,15.55,0,0,1-9.3-3.4Z"/><path class="cls-2" d="M686.42,678.75A3.56,3.56,0,1,1,690,682,3.3,3.3,0,0,1,686.42,678.75Zm.65,7.55h5.75v24.55h-5.75Z"/><path class="cls-2" d="M701,690.85h-3.5v-4.3l3.8-.25.7-6.7h4.8v6.7h6.25v4.55h-6.25v11.7c0,2.9,1.1,4.3,3.45,4.3a7,7,0,0,0,2.55-.55l1,4.25a15.69,15.69,0,0,1-5,.9c-5.7,0-7.8-3.6-7.8-8.9Z"/><path class="cls-2" d="M727.77,685.7c6.15,0,11.7,4.7,11.7,12.9s-5.55,12.85-11.7,12.85-11.65-4.7-11.65-12.85S721.67,685.7,727.77,685.7Zm0,21.05c3.6,0,5.8-3.25,5.8-8.15s-2.2-8.2-5.8-8.2-5.75,3.25-5.75,8.2S724.17,706.75,727.77,706.75Z"/><path class="cls-2" d="M745.17,686.3h4.75l.4,4.35h.2c1.75-3.2,4.35-5,7-5a6.24,6.24,0,0,1,2.8.5l-1,5a8,8,0,0,0-2.55-.4c-2,0-4.3,1.35-5.8,5.05v15h-5.75Z"/><path class="cls-2" d="M765.67,716.3c2.6,0,4.1-1.75,4.9-4.2l.45-1.55-9.65-24.25h5.85l4.25,12.05c.7,2.15,1.4,4.6,2.15,6.9h.2c.6-2.25,1.25-4.7,1.85-6.9l3.7-12.05h5.55L776,712c-2,5.55-4.6,9-10,9a9.55,9.55,0,0,1-3.2-.5l1-4.5A6,6,0,0,0,765.67,716.3Z"/><path class="cls-2" d="M997.75,702h-11l-2.55,8.85h-6l10.7-32.7h6.8l10.65,32.7h-6.15Zm-1.3-4.55-1.15-4c-1-3.45-2-7.2-3-10.8h-.2c-.9,3.65-1.85,7.35-2.9,10.8l-1.15,4Z"/><path class="cls-2" d="M1007.05,678.15h6l2.8,16.5c.55,3.5,1.1,7,1.65,10.45h.2c.65-3.45,1.4-7,2.1-10.45l4.05-16.5h5l4,16.5c.7,3.4,1.45,7,2.15,10.45h.2c.55-3.5,1-7,1.6-10.45l2.8-16.5h5.6l-6.3,32.7h-7.2l-4.05-17.2c-.55-2.55-1-5.05-1.45-7.55h-.2c-.45,2.5-.9,5-1.45,7.55l-4,17.2h-7.1Z"/><path class="cls-2" d="M1051.1,702.7a13,13,0,0,0,8.55,3.7c3.65,0,5.7-1.65,5.7-4.2,0-2.7-2.1-3.55-5.1-4.8l-4.45-2c-3.25-1.35-6.6-3.9-6.6-8.7,0-5.2,4.6-9.2,11-9.2a14.46,14.46,0,0,1,10.1,4.15l-3,3.7a10.56,10.56,0,0,0-7.1-2.8c-3.1,0-5.1,1.45-5.1,3.85s2.5,3.5,5.2,4.6l4.4,1.85c3.9,1.65,6.6,4.1,6.6,8.85,0,5.3-4.4,9.7-11.75,9.7a16.82,16.82,0,0,1-11.75-4.8Z"/><path class="cls-2" d="M1100.7,677.55a12.81,12.81,0,0,1,9.3,4.15l-3.2,3.6a8.33,8.33,0,0,0-6.05-2.7c-5.35,0-9.2,4.5-9.2,11.85s3.55,12,9,12a8.85,8.85,0,0,0,6.9-3.25l3.2,3.55a13.05,13.05,0,0,1-10.2,4.75c-8.3,0-14.85-6-14.85-16.85S1092.3,677.55,1100.7,677.55Z"/><path class="cls-2" d="M1125.6,685.7c6.15,0,11.7,4.7,11.7,12.9s-5.55,12.85-11.7,12.85S1114,706.75,1114,698.6,1119.5,685.7,1125.6,685.7Zm0,21.05c3.6,0,5.8-3.25,5.8-8.15s-2.2-8.2-5.8-8.2-5.75,3.25-5.75,8.2S1122,706.75,1125.6,706.75Z"/><path class="cls-2" d="M1151.9,685.7a9.06,9.06,0,0,1,6.45,2.7l-.2-4v-8.9h5.75v35.3h-4.75l-.4-2.65h-.2a10.23,10.23,0,0,1-7,3.25c-6.15,0-10.1-4.75-10.1-12.85S1146.55,685.7,1151.9,685.7Zm1.1,21c1.9,0,3.5-.85,5.15-2.75V692.5a7.32,7.32,0,0,0-5-2.05c-3.15,0-5.7,3-5.7,8.1S1149.45,706.7,1153,706.7Z"/><path class="cls-2" d="M1180.9,685.7c6.65,0,10.15,4.8,10.15,11.65a12.33,12.33,0,0,1-.25,2.7h-15.6c.5,4.45,3.3,7,7.25,7a10.26,10.26,0,0,0,5.7-1.8l2,3.6a15.49,15.49,0,0,1-8.4,2.65c-6.8,0-12.1-4.75-12.1-12.85S1175.15,685.7,1180.9,685.7Zm5.15,10.7c0-3.9-1.65-6.25-5-6.25-2.9,0-5.4,2.15-5.9,6.25Z"/><path class="cls-2" d="M1197,678.15h11c7.15,0,12.4,2.5,12.4,10.1,0,7.25-5.4,10.6-12.4,10.6h-5.2v12H1197Zm10.5,16.05c4.9,0,7.2-2,7.2-6s-2.45-5.45-7.2-5.45h-4.7v11.4Z"/><path class="cls-2" d="M1225.3,678.75a3.56,3.56,0,1,1,3.55,3.25A3.3,3.3,0,0,1,1225.3,678.75Zm.65,7.55h5.75v24.55H1226Z"/><path class="cls-2" d="M1244.8,712.85v7.7h-5.75V686.3h4.75l.4,2.6h.2a12,12,0,0,1,7.4-3.2c6.1,0,9.65,4.9,9.65,12.5,0,8.4-5.05,13.25-10.5,13.25a9.93,9.93,0,0,1-6.3-2.7Zm5-6.15c3.25,0,5.75-2.9,5.75-8.45,0-4.9-1.6-7.8-5.3-7.8-1.8,0-3.5.9-5.4,2.75v11.45A7.77,7.77,0,0,0,1249.75,706.7Z"/><path class="cls-2" d="M1277,685.7c6.65,0,10.15,4.8,10.15,11.65a12.33,12.33,0,0,1-.25,2.7h-15.6c.5,4.45,3.3,7,7.25,7a10.26,10.26,0,0,0,5.7-1.8l2,3.6a15.49,15.49,0,0,1-8.4,2.65c-6.8,0-12.1-4.75-12.1-12.85S1271.2,685.7,1277,685.7Zm5.15,10.7c0-3.9-1.65-6.25-5-6.25-2.9,0-5.4,2.15-5.9,6.25Z"/><path class="cls-2" d="M1292.6,675.55h5.75v29.3c0,1.4.65,1.9,1.25,1.9a3.44,3.44,0,0,0,.9-.1l.75,4.3a7.86,7.86,0,0,1-3,.5c-4.1,0-5.6-2.65-5.6-6.9Z"/><path class="cls-2" d="M1305.5,678.75a3.56,3.56,0,1,1,3.55,3.25A3.3,3.3,0,0,1,1305.5,678.75Zm.65,7.55h5.75v24.55h-5.75Z"/><path class="cls-2" d="M1319.25,686.3H1324l.4,3.3h.2c2.2-2.15,4.7-3.9,8-3.9,5.25,0,7.55,3.55,7.55,9.75v15.4h-5.75V696.2c0-4.05-1.15-5.55-3.85-5.55-2.15,0-3.55,1-5.6,3.05v17.15h-5.75Z"/><path class="cls-2" d="M1357,685.7c6.65,0,10.15,4.8,10.15,11.65a12.33,12.33,0,0,1-.25,2.7h-15.6c.5,4.45,3.3,7,7.25,7a10.26,10.26,0,0,0,5.7-1.8l2,3.6a15.49,15.49,0,0,1-8.4,2.65c-6.8,0-12.1-4.75-12.1-12.85S1351.2,685.7,1357,685.7Zm5.15,10.7c0-3.9-1.65-6.25-5-6.25-2.9,0-5.4,2.15-5.9,6.25Z"/><path class="cls-2" d="M1644.37,1045h-11l-2.55,8.85h-6l10.7-32.7h6.8l10.65,32.7h-6.15Zm-1.3-4.55-1.15-4c-1-3.45-2-7.2-3-10.8h-.2c-.9,3.65-1.85,7.35-2.9,10.8l-1.15,4Z"/><path class="cls-2" d="M1653.67,1021.19h6l2.8,16.5c.55,3.5,1.1,7,1.65,10.45h.2c.65-3.45,1.4-7,2.1-10.45l4.05-16.5h5l4,16.5c.7,3.4,1.45,7,2.15,10.45h.2c.55-3.5,1-7,1.6-10.45l2.8-16.5h5.6l-6.3,32.7h-7.2l-4.05-17.2c-.55-2.55-1-5.05-1.45-7.55h-.2c-.45,2.5-.9,5-1.45,7.55l-4,17.2h-7.1Z"/><path class="cls-2" d="M1697.72,1045.74a13,13,0,0,0,8.55,3.7c3.65,0,5.7-1.65,5.7-4.2,0-2.7-2.1-3.55-5.1-4.8l-4.45-2c-3.25-1.35-6.6-3.9-6.6-8.7,0-5.2,4.6-9.2,11-9.2a14.46,14.46,0,0,1,10.1,4.15l-3,3.7a10.56,10.56,0,0,0-7.1-2.8c-3.1,0-5.1,1.45-5.1,3.85s2.5,3.5,5.2,4.6l4.4,1.85c3.9,1.65,6.6,4.1,6.6,8.85,0,5.3-4.4,9.7-11.75,9.7a16.82,16.82,0,0,1-11.75-4.8Z"/><path class="cls-2" d="M1747.32,1020.59a12.81,12.81,0,0,1,9.3,4.15l-3.2,3.6a8.33,8.33,0,0,0-6.05-2.7c-5.35,0-9.2,4.5-9.2,11.85s3.55,12,9,12a8.85,8.85,0,0,0,6.9-3.25l3.2,3.55a13.05,13.05,0,0,1-10.2,4.75c-8.3,0-14.85-6-14.85-16.85S1738.92,1020.59,1747.32,1020.59Z"/><path class="cls-2" d="M1772.22,1028.74c6.15,0,11.7,4.7,11.7,12.9s-5.55,12.85-11.7,12.85-11.65-4.7-11.65-12.85S1766.12,1028.74,1772.22,1028.74Zm0,21.05c3.6,0,5.8-3.25,5.8-8.15s-2.2-8.2-5.8-8.2-5.75,3.25-5.75,8.2S1768.62,1049.79,1772.22,1049.79Z"/><path class="cls-2" d="M1798.52,1028.74a9.06,9.06,0,0,1,6.45,2.7l-.2-4v-8.9h5.75v35.3h-4.75l-.4-2.65h-.2a10.23,10.23,0,0,1-7,3.25c-6.15,0-10.1-4.75-10.1-12.85S1793.17,1028.74,1798.52,1028.74Zm1.1,21c1.9,0,3.5-.85,5.15-2.75v-11.45a7.32,7.32,0,0,0-5-2.05c-3.15,0-5.7,3-5.7,8.1S1796.07,1049.74,1799.62,1049.74Z"/><path class="cls-2" d="M1827.52,1028.74c6.65,0,10.15,4.8,10.15,11.65a12.33,12.33,0,0,1-.25,2.7h-15.6c.5,4.45,3.3,7,7.25,7a10.26,10.26,0,0,0,5.7-1.8l2,3.6a15.49,15.49,0,0,1-8.4,2.65c-6.8,0-12.1-4.75-12.1-12.85S1821.77,1028.74,1827.52,1028.74Zm5.15,10.7c0-3.9-1.65-6.25-5-6.25-2.9,0-5.4,2.15-5.9,6.25Z"/><path class="cls-2" d="M1843.62,1021.19h10.45c6.7,0,11.65,2.05,11.65,8.05a7.1,7.1,0,0,1-5.6,7.1v.2c4.7.8,7.35,3.35,7.35,7.75,0,6.55-5.35,9.6-12.55,9.6h-11.3Zm9.9,13.55c4.6,0,6.5-1.75,6.5-4.8s-2.1-4.25-6.35-4.25h-4.25v9.05Zm.8,14.65c4.8,0,7.45-1.8,7.45-5.5,0-3.4-2.6-5-7.45-5h-4.9v10.5Z"/><path class="cls-2" d="M1872.62,1029.34h5.75V1044c0,4,1.15,5.55,3.8,5.55,2.15,0,3.6-1,5.45-3.4v-16.8h5.75v24.55h-4.7l-.45-3.6h-.15c-2.15,2.55-4.55,4.2-7.9,4.2-5.25,0-7.55-3.55-7.55-9.75Z"/><path class="cls-2" d="M1900,1021.79a3.56,3.56,0,1,1,3.55,3.25A3.3,3.3,0,0,1,1900,1021.79Zm.65,7.55h5.75v24.55h-5.75Z"/><path class="cls-2" d="M1913.77,1018.59h5.75v29.3c0,1.4.65,1.9,1.25,1.9a3.44,3.44,0,0,0,.9-.1l.75,4.3a7.86,7.86,0,0,1-3,.5c-4.1,0-5.6-2.65-5.6-6.9Z"/><path class="cls-2" d="M1936.22,1028.74a9.06,9.06,0,0,1,6.45,2.7l-.2-4v-8.9h5.75v35.3h-4.75l-.4-2.65h-.2a10.23,10.23,0,0,1-7,3.25c-6.15,0-10.1-4.75-10.1-12.85S1930.87,1028.74,1936.22,1028.74Zm1.1,21c1.9,0,3.5-.85,5.15-2.75v-11.45a7.32,7.32,0,0,0-5-2.05c-3.15,0-5.7,3-5.7,8.1S1933.77,1049.74,1937.32,1049.74Z"/><path class="cls-2" d="M2260.44,1048h-11l-2.55,8.85h-6l10.7-32.7h6.8l10.65,32.7H2263Zm-1.3-4.55-1.15-4c-1-3.45-2-7.2-3-10.8h-.2c-.9,3.65-1.85,7.35-2.9,10.8l-1.15,4Z"/><path class="cls-2" d="M2272.59,1032.34h4.75l.4,3.35h.2c2-2.2,4.45-4,7.5-4,3.6,0,5.65,1.65,6.8,4.4,2.35-2.5,4.8-4.4,7.9-4.4,5.2,0,7.6,3.55,7.6,9.75v15.4h-5.8v-14.65c0-4.05-1.2-5.55-3.75-5.55-1.55,0-3.25,1-5.15,3.05v17.15h-5.75v-14.65c0-4.05-1.2-5.55-3.8-5.55-1.5,0-3.25,1-5.15,3.05v17.15h-5.75Z"/><path class="cls-2" d="M2328.14,1041.19c0-2.6-1.15-4.8-4.45-4.8a13.66,13.66,0,0,0-6.9,2.4l-2.1-3.85a19,19,0,0,1,10-3.2c6.15,0,9.15,3.75,9.15,10.6v14.55h-4.7l-.45-2.7h-.15c-2.2,1.85-4.7,3.3-7.6,3.3a6.9,6.9,0,0,1-7.3-7.2C2313.69,1045,2318.09,1042.29,2328.14,1041.19Zm-5.35,11.8c2,0,3.55-1,5.35-2.7v-5.5c-6.65.85-8.85,2.6-8.85,5.05C2319.29,1052,2320.74,1053,2322.79,1053Z"/><path class="cls-2" d="M2338.94,1053.79l11.6-16.9h-10.3v-4.55h17.5v3l-11.55,16.9h12v4.6h-19.2Z"/><path class="cls-2" d="M2372.59,1031.74c6.15,0,11.7,4.7,11.7,12.9s-5.55,12.85-11.7,12.85-11.65-4.7-11.65-12.85S2366.49,1031.74,2372.59,1031.74Zm0,21.05c3.6,0,5.8-3.25,5.8-8.15s-2.2-8.2-5.8-8.2-5.75,3.25-5.75,8.2S2369,1052.79,2372.59,1052.79Z"/><path class="cls-2" d="M2390,1032.34h4.75l.4,3.3h.2c2.2-2.15,4.7-3.9,8-3.9,5.25,0,7.55,3.55,7.55,9.75v15.4h-5.75v-14.65c0-4.05-1.15-5.55-3.85-5.55-2.15,0-3.55,1-5.6,3.05v17.15H2390Z"/><path class="cls-2" d="M2428.68,1024.19h19.65v4.9h-13.85v8.35h11.75v4.9h-11.75V1052h14.35v4.9h-20.15Z"/><path class="cls-2" d="M2468.74,1023.59a12.81,12.81,0,0,1,9.3,4.15l-3.2,3.6a8.33,8.33,0,0,0-6.05-2.7c-5.35,0-9.2,4.5-9.2,11.85s3.55,12,9,12a8.85,8.85,0,0,0,6.9-3.25l3.2,3.55a13.05,13.05,0,0,1-10.2,4.75c-8.3,0-14.85-6-14.85-16.85S2460.33,1023.59,2468.74,1023.59Z"/><path class="cls-2" d="M2501.83,1056.89l-7.05-12.8h-5v12.8H2484v-32.7h11c6.8,0,12.05,2.4,12.05,9.7,0,5-2.6,8-6.55,9.35l7.8,13.65Zm-12-17.4h4.6c4.5,0,6.9-1.9,6.9-5.6s-2.4-5.05-6.9-5.05h-4.6Z"/><rect class="cls-3" x="239.13" y="489.32" width="202.19" height="3"/><polygon class="cls-3" points="436.07 508.77 467.16 490.82 436.07 472.87 436.07 508.77"/><rect class="cls-3" x="794.19" y="489.32" width="202.19" height="3"/><polygon class="cls-3" points="991.13 508.77 1022.21 490.82 991.13 472.87 991.13 508.77"/><circle class="cls-4" cx="344.14" cy="490.82" r="36.53"/><path class="cls-5" d="M335.42,500h6.79V480h-5.59v-3.44a20.45,20.45,0,0,0,7-2.49h4.11V500h6v4.5H335.42Z"/><circle class="cls-4" cx="908.2" cy="490.82" r="36.53"/><path class="cls-5" d="M897.75,501.29c8.46-8.18,13.77-13.53,13.77-18.17,0-3.2-1.77-5.26-5-5.26-2.34,0-4.3,1.58-5.93,3.4l-3.06-3.06c2.77-3,5.55-4.69,9.71-4.69,5.83,0,9.61,3.68,9.61,9.33,0,5.4-5,11-11,17.31,1.58-.14,3.59-.33,5.07-.33h7.46v4.69H897.75Z"/><path class="cls-2" d="M1579.8,309.89h-11l-2.55,8.85h-6L1571,286h6.8l10.65,32.7h-6.15Zm-1.3-4.55-1.15-4c-1-3.45-2-7.2-3-10.8h-.2c-.9,3.65-1.85,7.35-2.9,10.8l-1.15,4Z"/><path class="cls-2" d="M1589.1,286h6l2.8,16.5c.55,3.5,1.1,7,1.65,10.45h.2c.65-3.45,1.4-7,2.1-10.45l4.05-16.5h5l4,16.5c.7,3.4,1.45,7,2.15,10.45h.2c.55-3.5,1-7,1.6-10.45l2.8-16.5h5.6l-6.3,32.7h-7.2l-4.05-17.2c-.55-2.55-1-5.05-1.45-7.55h-.2c-.45,2.5-.9,5-1.45,7.55l-4,17.2h-7.1Z"/><path class="cls-2" d="M1633.15,310.59a13,13,0,0,0,8.55,3.7c3.65,0,5.7-1.65,5.7-4.2,0-2.7-2.1-3.55-5.1-4.8l-4.45-2c-3.25-1.35-6.6-3.9-6.6-8.7,0-5.2,4.6-9.2,11-9.2a14.46,14.46,0,0,1,10.1,4.15l-3,3.7a10.56,10.56,0,0,0-7.1-2.8c-3.1,0-5.1,1.45-5.1,3.85s2.5,3.5,5.2,4.6l4.4,1.85c3.9,1.65,6.6,4.1,6.6,8.85,0,5.3-4.4,9.7-11.75,9.7a16.82,16.82,0,0,1-11.75-4.8Z"/><path class="cls-2" d="M1682.75,285.43a12.81,12.81,0,0,1,9.3,4.15l-3.2,3.6a8.33,8.33,0,0,0-6.05-2.7c-5.35,0-9.2,4.5-9.2,11.85s3.55,12,9,12a8.85,8.85,0,0,0,6.9-3.25l3.2,3.55a13.05,13.05,0,0,1-10.2,4.75c-8.3,0-14.85-6-14.85-16.85S1674.34,285.43,1682.75,285.43Z"/><path class="cls-2" d="M1697.59,283.43h5.75v29.3c0,1.4.65,1.9,1.25,1.9a3.44,3.44,0,0,0,.9-.1l.75,4.3a7.86,7.86,0,0,1-3,.5c-4.1,0-5.6-2.65-5.6-6.9Z"/><path class="cls-2" d="M1721.2,293.58c6.15,0,11.7,4.7,11.7,12.9s-5.55,12.85-11.7,12.85-11.65-4.7-11.65-12.85S1715.09,293.58,1721.2,293.58Zm0,21.05c3.6,0,5.8-3.25,5.8-8.15s-2.2-8.2-5.8-8.2-5.75,3.25-5.75,8.2S1717.59,314.64,1721.2,314.64Z"/><path class="cls-2" d="M1738.34,294.18h5.75v14.65c0,4,1.15,5.55,3.8,5.55,2.15,0,3.6-1,5.45-3.4v-16.8h5.75v24.55h-4.7l-.45-3.6h-.15c-2.15,2.55-4.55,4.2-7.9,4.2-5.25,0-7.55-3.55-7.55-9.75Z"/><path class="cls-2" d="M1775.29,293.58a9.06,9.06,0,0,1,6.45,2.7l-.2-4v-8.9h5.75v35.3h-4.75l-.4-2.65h-.2a10.23,10.23,0,0,1-7,3.25c-6.15,0-10.1-4.75-10.1-12.85S1769.94,293.58,1775.29,293.58Zm1.1,21c1.9,0,3.5-.85,5.15-2.75V300.38a7.32,7.32,0,0,0-5-2.05c-3.15,0-5.7,3-5.7,8.1S1772.84,314.59,1776.39,314.59Z"/><path class="cls-2" d="M1795,286h19.75v4.9h-14v9.25h11.85v4.9h-11.85v13.65H1795Z"/><path class="cls-2" d="M1829.15,293.58c6.15,0,11.7,4.7,11.7,12.9s-5.55,12.85-11.7,12.85-11.65-4.7-11.65-12.85S1823,293.58,1829.15,293.58Zm0,21.05c3.6,0,5.8-3.25,5.8-8.15s-2.2-8.2-5.8-8.2-5.75,3.25-5.75,8.2S1825.54,314.64,1829.15,314.64Z"/><path class="cls-2" d="M1846.54,294.18h4.75l.4,4.35h.2c1.75-3.2,4.35-5,7-5a6.24,6.24,0,0,1,2.8.5l-1,5a8,8,0,0,0-2.55-.4c-2,0-4.3,1.35-5.8,5.05v15h-5.75Z"/><path class="cls-2" d="M1865.19,294.18h4.75l.4,3.35h.2c2-2.2,4.45-4,7.5-4,3.6,0,5.65,1.65,6.8,4.4,2.35-2.5,4.8-4.4,7.9-4.4,5.2,0,7.6,3.55,7.6,9.75v15.4h-5.8V304.09c0-4.05-1.2-5.55-3.75-5.55-1.55,0-3.25,1-5.15,3.05v17.15h-5.75V304.09c0-4.05-1.2-5.55-3.8-5.55-1.5,0-3.25,1-5.15,3.05v17.15h-5.75Z"/><path class="cls-2" d="M1920.74,303c0-2.6-1.15-4.8-4.45-4.8a13.66,13.66,0,0,0-6.9,2.4l-2.1-3.85a19,19,0,0,1,10-3.2c6.15,0,9.15,3.75,9.15,10.6v14.55h-4.7l-.45-2.7h-.15c-2.2,1.85-4.7,3.3-7.6,3.3a6.9,6.9,0,0,1-7.3-7.2C1906.29,306.89,1910.69,304.13,1920.74,303Zm-5.35,11.8c2,0,3.55-1,5.35-2.7v-5.5c-6.65.85-8.85,2.6-8.85,5.05C1911.89,313.89,1913.34,314.84,1915.39,314.84Z"/><path class="cls-2" d="M1934.34,298.73h-3.5v-4.3l3.8-.25.7-6.7h4.8v6.7h6.25v4.55h-6.25v11.7c0,2.9,1.1,4.3,3.45,4.3a7,7,0,0,0,2.55-.55l1,4.25a15.69,15.69,0,0,1-5,.9c-5.7,0-7.8-3.6-7.8-8.9Z"/><path class="cls-2" d="M1950.89,286.63a3.56,3.56,0,1,1,3.55,3.25A3.3,3.3,0,0,1,1950.89,286.63Zm.65,7.55h5.75v24.55h-5.75Z"/><path class="cls-2" d="M1974.69,293.58c6.15,0,11.7,4.7,11.7,12.9s-5.55,12.85-11.7,12.85-11.65-4.7-11.65-12.85S1968.59,293.58,1974.69,293.58Zm0,21.05c3.6,0,5.8-3.25,5.8-8.15s-2.2-8.2-5.8-8.2-5.75,3.25-5.75,8.2S1971.09,314.64,1974.69,314.64Z"/><path class="cls-2" d="M1992.09,294.18h4.75l.4,3.3h.2c2.2-2.15,4.7-3.9,8-3.9,5.25,0,7.55,3.55,7.55,9.75v15.4h-5.75V304.09c0-4.05-1.15-5.55-3.85-5.55-2.15,0-3.55,1-5.6,3.05v17.15h-5.75Z"/><path class="cls-2" d="M2262.44,309.89h-11l-2.55,8.85h-6l10.7-32.7h6.8l10.65,32.7H2265Zm-1.3-4.55-1.15-4c-1-3.45-2-7.2-3-10.8h-.2c-.9,3.65-1.85,7.35-2.9,10.8l-1.15,4Z"/><path class="cls-2" d="M2274.59,294.18h4.75l.4,3.35h.2c2-2.2,4.45-4,7.5-4,3.6,0,5.65,1.65,6.8,4.4,2.35-2.5,4.8-4.4,7.9-4.4,5.2,0,7.6,3.55,7.6,9.75v15.4h-5.8V304.09c0-4.05-1.2-5.55-3.75-5.55-1.55,0-3.25,1-5.15,3.05v17.15h-5.75V304.09c0-4.05-1.2-5.55-3.8-5.55-1.5,0-3.25,1-5.15,3.05v17.15h-5.75Z"/><path class="cls-2" d="M2330.14,303c0-2.6-1.15-4.8-4.45-4.8a13.66,13.66,0,0,0-6.9,2.4l-2.1-3.85a19,19,0,0,1,10-3.2c6.15,0,9.15,3.75,9.15,10.6v14.55h-4.7l-.45-2.7h-.15c-2.2,1.85-4.7,3.3-7.6,3.3a6.9,6.9,0,0,1-7.3-7.2C2315.69,306.89,2320.09,304.13,2330.14,303Zm-5.35,11.8c2,0,3.55-1,5.35-2.7v-5.5c-6.65.85-8.85,2.6-8.85,5.05C2321.29,313.89,2322.74,314.84,2324.79,314.84Z"/><path class="cls-2" d="M2340.94,315.64l11.6-16.9h-10.3v-4.55h17.5v3l-11.55,16.9h12v4.6h-19.2Z"/><path class="cls-2" d="M2374.59,293.58c6.15,0,11.7,4.7,11.7,12.9s-5.55,12.85-11.7,12.85-11.65-4.7-11.65-12.85S2368.49,293.58,2374.59,293.58Zm0,21.05c3.6,0,5.8-3.25,5.8-8.15s-2.2-8.2-5.8-8.2-5.75,3.25-5.75,8.2S2371,314.64,2374.59,314.64Z"/><path class="cls-2" d="M2392,294.18h4.75l.4,3.3h.2c2.2-2.15,4.7-3.9,8-3.9,5.25,0,7.55,3.55,7.55,9.75v15.4h-5.75V304.09c0-4.05-1.15-5.55-3.85-5.55-2.15,0-3.55,1-5.6,3.05v17.15H2392Z"/><path class="cls-2" d="M2430.68,286h19.65v4.9h-13.85v8.35h11.75v4.9h-11.75v9.65h14.35v4.9h-20.15Z"/><path class="cls-2" d="M2470.74,285.43a12.81,12.81,0,0,1,9.3,4.15l-3.2,3.6a8.33,8.33,0,0,0-6.05-2.7c-5.35,0-9.2,4.5-9.2,11.85s3.55,12,9,12a8.85,8.85,0,0,0,6.9-3.25l3.2,3.55a13.05,13.05,0,0,1-10.2,4.75c-8.3,0-14.85-6-14.85-16.85S2462.33,285.43,2470.74,285.43Z"/><path class="cls-2" d="M2485.83,310.59a13,13,0,0,0,8.55,3.7c3.65,0,5.7-1.65,5.7-4.2,0-2.7-2.1-3.55-5.1-4.8l-4.45-2c-3.25-1.35-6.6-3.9-6.6-8.7,0-5.2,4.6-9.2,11-9.2a14.46,14.46,0,0,1,10.1,4.15l-3,3.7a10.56,10.56,0,0,0-7.1-2.8c-3.1,0-5.1,1.45-5.1,3.85s2.5,3.5,5.2,4.6l4.4,1.85c3.9,1.65,6.6,4.1,6.6,8.85,0,5.3-4.4,9.7-11.75,9.7a16.82,16.82,0,0,1-11.75-4.8Z"/><rect class="cls-3" x="1924.77" y="118.79" width="301.87" height="3"/><polygon class="cls-3" points="2221.39 138.24 2252.48 120.29 2221.39 102.33 2221.39 138.24"/><rect class="cls-3" x="1924.77" y="859.86" width="301.87" height="3"/><polygon class="cls-3" points="2221.39 879.31 2252.48 861.36 2221.39 843.41 2221.39 879.31"/><rect class="cls-3" x="2373.86" y="705.77" width="3" height="11"/><path class="cls-3" d="M2376.86,696.83h-3V675h3Zm0-30.81h-3V644.15h3Zm0-30.81h-3V613.34h3Zm0-30.81h-3V582.53h3Zm0-30.81h-3V551.72h3Zm0-30.81h-3V520.91h3Zm0-30.81h-3V490.1h3Z"/><rect class="cls-3" x="2373.86" y="470.15" width="3" height="11"/><polygon class="cls-3" points="2393.31 475.4 2375.36 444.32 2357.41 475.4 2393.31 475.4"/><polygon class="cls-3" points="1611.44 862.86 1407.75 862.86 1407.75 118.79 1611.44 118.79 1611.44 121.79 1410.75 121.79 1410.75 859.86 1611.44 859.86 1611.44 862.86"/><polygon class="cls-3" points="1606.19 843.41 1637.27 861.36 1606.19 879.31 1606.19 843.41"/><polygon class="cls-3" points="1606.19 138.24 1637.27 120.29 1606.19 102.33 1606.19 138.24"/><circle class="cls-4" cx="1523.26" cy="861.36" r="36.53"/><path class="cls-5" d="M1514.77,867.76a9.94,9.94,0,0,0,7.22,3.35c3.3,0,5.59-1.72,5.59-4.59,0-3.16-2-5.16-8.94-5.16v-4c6,0,7.94-2.06,7.94-4.88,0-2.54-1.72-4.07-4.5-4.07-2.39,0-4.26,1.15-6.12,2.87l-2.82-3.39a13.42,13.42,0,0,1,9.13-3.83c5.83,0,9.85,2.87,9.85,8,0,3.4-2,5.69-5.31,7v.19c3.59,1,6.31,3.54,6.31,7.56,0,5.55-4.83,8.8-10.66,8.8a13.22,13.22,0,0,1-10.33-4.3Z"/><circle class="cls-4" cx="1523.26" cy="120.29" r="36.53"/><path class="cls-5" d="M1514.68,126.78a10.19,10.19,0,0,0,7.13,3.25,5.51,5.51,0,0,0,5.88-5.83c0-3.63-2.25-5.69-5.59-5.69a7.8,7.8,0,0,0-4.88,1.72l-2.63-1.67.91-15h16.26v4.64h-11.48l-.62,7.36a8.62,8.62,0,0,1,4-1c5.21,0,9.56,3,9.56,9.52s-5.12,10.47-10.71,10.47a14,14,0,0,1-10.38-4.21Z"/><circle class="cls-4" cx="2072.32" cy="861.36" r="36.53"/><path class="cls-5" d="M2083.34,867.19h-3.83V875h-5.16v-7.84h-13.44v-3.73L2073,844.61h6.55v18.32h3.83Zm-9-4.26V856c0-1.77.14-4.54.24-6.31h-.19c-.77,1.58-1.63,3.11-2.49,4.73l-5.55,8.46Z"/><circle class="cls-4" cx="2072.32" cy="120.29" r="36.53"/><path class="cls-5" d="M2079.27,109.76a6.56,6.56,0,0,0-4.83-2.3c-3.83,0-6.93,2.82-7.17,11.24a9,9,0,0,1,6.6-3.59c5.26,0,8.89,3.06,8.89,9.42,0,6.07-4.35,10-9.56,10-6,0-11-4.64-11-14.87,0-11.81,5.74-16.69,12-16.69a10.84,10.84,0,0,1,8.13,3.44Zm-1.62,14.78c0-3.59-1.77-5.4-4.78-5.4-1.72,0-3.73,1-5.45,3.49.57,5.4,2.73,7.7,5.69,7.7C2075.64,130.32,2077.65,128.26,2077.65,124.53Z"/><rect class="cls-3" x="1325.24" y="489.32" width="84.01" height="3"/><polygon class="cls-6" points="1731.74 874.73 1718.14 872.44 1694.02 874.59 1705.88 916.55 1731.74 874.73 1731.74 874.73"/><polygon class="cls-7" points="1694.02 826.83 1694.02 864.94 1706.23 866.68 1730.02 847.1 1706.23 825.09 1694.02 826.83 1694.02 826.83"/><polygon class="cls-8" points="1706.23 877.31 1731.74 874.73 1731.74 912.93 1706.23 914.77 1696.39 894.86 1706.23 877.31 1706.23 877.31"/><polygon class="cls-9" points="1718.48 819.43 1731.74 817.21 1706.23 774.88 1694.02 817.26 1718.48 819.43 1718.48 819.43"/><polygon class="cls-8" points="1706.23 773.01 1731.74 779.01 1731.74 817.21 1706.23 814.64 1706.23 773.01 1706.23 773.01"/><polygon class="cls-8" points="1706.23 825.18 1731.74 826.89 1731.74 865.09 1706.23 866.81 1706.23 825.18 1706.23 825.18"/><polygon class="cls-9" points="1731.74 805.86 1751.25 801.3 1724.51 764.79 1706.23 802.27 1731.74 805.86 1731.74 805.86"/><polygon class="cls-8" points="1724.51 763.91 1751.25 771.43 1751.25 801.3 1724.51 796.8 1724.51 763.91 1724.51 763.91"/><polygon class="cls-6" points="1751.27 890.48 1731.8 885.93 1706.23 889.53 1724.51 928.05 1751.27 890.48 1751.27 890.48"/><polygon class="cls-8" points="1724.51 895.03 1751.25 890.53 1751.25 920.52 1724.51 928.05 1700.34 909.29 1724.51 895.03 1724.51 895.03"/><polygon class="cls-9" points="1882.57 817.23 1858.1 819.41 1825.51 813.95 1852.08 763.8 1882.57 817.23 1882.57 817.23"/><polygon class="cls-7" points="1706.23 889.53 1706.23 877.21 1694.02 874.59 1694.02 912.7 1724.51 927.95 1724.51 895 1706.23 889.53 1706.23 889.53"/><polygon class="cls-6" points="1882.63 874.61 1858.16 872.43 1825.49 877.91 1852.08 927.04 1882.63 874.61 1882.63 874.61"/><polygon class="cls-7" points="1852.08 763.8 1825.51 771.28 1825.51 813.95 1852.08 810.74 1880.99 793.28 1852.08 763.8 1852.08 763.8"/><polygon class="cls-7" points="1852.08 822.22 1825.51 824.37 1825.51 867.04 1852.08 869.16 1880.99 846.71 1852.08 822.22 1852.08 822.22"/><polygon class="cls-7" points="1852.08 881.31 1825.51 878.08 1825.51 920.75 1852.08 928.25 1878.82 897.76 1852.08 881.31 1852.08 881.31"/><polygon class="cls-9" points="1760.35 751.53 1733.62 794.07 1760.83 799.06 1788.37 792.62 1760.35 751.53 1760.35 751.53"/><polygon class="cls-9" points="1842.98 808.74 1815.77 812.32 1760.35 803.04 1788.37 732.21 1842.98 808.74 1842.98 808.74"/><polygon class="cls-7" points="1788.37 878.4 1840.83 846 1788.37 813.37 1760.35 817.37 1760.35 874.4 1788.37 878.4 1788.37 878.4"/><polygon class="cls-8" points="1788.37 813.37 1788.37 878.4 1842.98 870.61 1842.98 821.16 1788.37 813.37 1788.37 813.37"/><polygon class="cls-6" points="1842.98 883.13 1815.77 879.54 1760.35 888.84 1788.37 959.85 1842.98 883.13 1842.98 883.13"/><polygon class="cls-6" points="1788.2 899.11 1761.01 892.75 1733.74 897.76 1759.31 944.25 1788.2 899.11 1788.2 899.11"/><polygon class="cls-7" points="1733.6 897.72 1733.6 932.49 1788.37 959.89 1839.44 909.29 1788.37 894.86 1760.35 888.84 1760.35 905.73 1733.6 897.72 1733.6 897.72"/><polygon class="cls-7" points="1724.51 796.8 1724.51 763.91 1694.02 779.15 1694.02 817.26 1706.23 814.64 1706.23 802.27 1724.51 796.8 1724.51 796.8"/><polygon class="cls-7" points="1760.35 786.07 1760.35 803.04 1788.37 797.03 1838.79 782.6 1788.37 732 1733.6 759.37 1733.6 794.08 1760.35 786.07 1760.35 786.07"/><polygon class="cls-8" points="1788.37 731.95 1788.37 797.03 1842.98 808.74 1842.98 759.25 1788.37 731.95 1788.37 731.95"/><polygon class="cls-8" points="1882.77 817.27 1882.77 779.15 1852.08 763.8 1852.08 810.69 1882.77 817.27 1882.77 817.27"/><polygon class="cls-8" points="1882.77 864.93 1882.77 826.84 1852.08 822.46 1852.08 869.31 1882.77 864.93 1882.77 864.93"/><polygon class="cls-8" points="1788.37 894.86 1788.37 959.85 1842.98 932.54 1842.98 883.13 1788.37 894.86 1788.37 894.86"/><polygon class="cls-8" points="1882.77 912.65 1882.77 874.58 1852.08 881.17 1852.08 928 1882.77 912.65 1882.77 912.65"/><polygon class="cls-6" points="1171.76 522.32 1072.98 534.6 1100.72 576.42 1203.41 526.26 1171.76 522.32 1171.76 522.32"/><polygon class="cls-9" points="1171.76 463.05 1270.55 450.77 1242.81 408.96 1140.11 459.12 1171.76 463.05 1171.76 463.05"/><polygon class="cls-7" points="1140.11 459.12 1242.81 442.45 1242.81 408.96 1140.11 436.73 1140.11 459.12 1140.11 459.12"/><polygon class="cls-7" points="1072.98 506.66 1171.76 516.54 1268.69 492.69 1171.76 468.84 1072.98 478.71 1072.98 506.66 1072.98 506.66"/><polygon class="cls-8" points="1270.55 506.66 1171.76 516.54 1171.76 468.84 1270.55 478.71 1270.55 506.66 1270.55 506.66"/><polygon class="cls-9" points="1072.98 450.77 1171.76 373.43 1224.35 436.91 1120.91 456.74 1072.98 450.77 1072.98 450.77"/><polygon class="cls-7" points="1072.98 422.83 1171.76 373.43 1171.76 421.13 1072.98 450.77 1072.98 422.83 1072.98 422.83"/><polygon class="cls-8" points="1242.81 408.96 1270.55 422.83 1270.55 450.77 1242.81 442.45 1242.81 408.96 1242.81 408.96"/><polygon class="cls-8" points="1203.41 526.26 1100.72 542.92 1100.72 576.42 1203.41 548.64 1203.41 526.26 1203.41 526.26"/><polygon class="cls-8" points="1224.35 436.91 1171.76 421.13 1171.76 373.43 1224.35 399.73 1224.35 436.91 1224.35 436.91"/><polygon class="cls-6" points="1270.55 534.61 1171.76 611.94 1119.18 548.46 1222.61 528.65 1270.55 534.61 1270.55 534.61"/><polygon class="cls-8" points="1270.55 562.54 1171.76 611.94 1171.76 564.24 1270.55 534.61 1270.55 562.54 1270.55 562.54"/><polygon class="cls-7" points="1119.18 548.46 1171.76 564.24 1171.76 611.94 1119.18 585.64 1119.18 548.46 1119.18 548.46"/><polygon class="cls-7" points="1100.72 576.42 1072.98 562.54 1072.98 534.6 1100.72 542.92 1100.72 576.42 1100.72 576.42"/><polygon class="cls-8" points="1731 183.71 1698.23 175.61 1698.23 62.24 1731 55.89 1731 183.71 1731 183.71"/><polygon class="cls-6" points="1704.08 162.97 1789.21 226.12 1789.21 173.79 1731 159.19 1704.08 162.97 1704.08 162.97"/><polygon class="cls-7" points="1845.79 173.79 1878.02 175.61 1878.92 68.8 1845.79 58.25 1845.79 173.79 1845.79 173.79"/><polygon class="cls-9" points="1789.21 62.88 1731 76.45 1704.08 72.67 1789.21 11.2 1789.21 62.88 1789.21 62.88"/><polygon class="cls-6" points="1872.71 162.97 1787.58 222.3 1787.58 173.79 1845.78 159.19 1872.71 162.97 1872.71 162.97"/><polygon class="cls-9" points="1787.58 62.88 1845.79 76.45 1872.71 72.67 1788.39 8.69 1787.58 62.88 1787.58 62.88"/><path class="cls-7" d="M1760,179.76,1704.08,163V72.67L1760,55.89V179.76ZM1788.28,0l-96.67,48.8,0,138.08,96.63,48.77,24.62-116.21L1788.28,0Z"/><path class="cls-8" d="M1816.78,55.89l55.93,16.78V163l-55.93,16.79V55.89Zm-28.5,179.75,96.86-48.77,0-138.08L1788.28,0V235.64Z"/><path class="cls-10" d="M179.14,478.73c17,0,28.79,10.66,28.79,25.88v33H193v-22.4H189v22.4H166c-1.5-16.71-15-28.1-34-28.1h-13v-9.07c14.54-1.31,26.13-6.88,27.42-21.67.47,0,.9-.07,1.36-.07Z"/><path class="cls-10" d="M84.66,478.78c.48,0,.94,0,1.4,0,1.29,14.79,12.87,20.36,27.39,21.67v9.07h-13c-19,0-32.55,11.39-34,28.1H44.11V515.3H40.06v22.35H24.42v-33c0-15.25,11.83-25.87,28.79-25.87Z"/><path class="cls-10" d="M131.93,523.48c17,0,28.79,10.66,28.79,25.87v33H145.78V560h-4v22.36H91.36V560H87.28v22.36H71.64v-33c0-15.21,11.82-25.87,28.78-25.87Z"/><path class="cls-10" d="M68.92,414.5l24.89,17.68v7.72c0,14.05-11.17,25.44-24.89,25.44s-24.81-11.39-24.81-26.61v-6.81L68.92,414.5Z"/><path class="cls-10" d="M163.39,414.5l24.89,17.68v7.72c0,14.05-11.17,25.44-24.89,25.44s-24.81-11.39-24.81-26.61v-6.81l24.81-17.42Z"/><path class="cls-10" d="M116.14,449.27l22.06,15.67v6.84a22.32,22.32,0,0,1-22.06,22.55c-12.14,0-22-10.09-22-23.59v-6l22-15.44Z"/><path class="cls-11" d="M163.43,406.76c13.69,0,24.85,11.39,24.85,25.4s-11.16,25.44-24.85,25.44-24.85-11.39-24.85-25.44,11.16-25.4,24.85-25.4Z"/><path class="cls-11" d="M116.17,441.5a22.55,22.55,0,0,1,0,45.09c-12.14,0-22-10.11-22-22.55s9.88-22.54,22-22.54Z"/><path class="cls-11" d="M179.14,471c17,0,28.79,10.66,28.79,25.87v33H193v-22.4H189v22.4H166c-1.5-16.71-15-28.1-34-28.1h-13V499a30.54,30.54,0,0,0,27.42-27.91c.47,0,.9-.07,1.36-.07Z"/><path class="cls-11" d="M84.66,471c.48,0,.94,0,1.4,0A30.54,30.54,0,0,0,113.46,499v2.83h-13c-19,0-32.55,11.39-34,28.1H44.11V507.56H40.06v22.35H24.42v-33c0-15.25,11.83-25.87,28.79-25.87Z"/><path class="cls-11" d="M131.93,515.74c17,0,28.79,10.66,28.79,25.87v33H145.78V552.27h-4v22.36H91.36V552.27H87.28v22.36H71.64v-33c0-15.21,11.82-25.87,28.78-25.87Z"/><path class="cls-11" d="M68.92,406.76c13.73,0,24.89,11.43,24.89,25.4S82.65,457.6,68.92,457.6s-24.81-11.39-24.81-25.44,11.12-25.4,24.81-25.4Z"/><path class="cls-12" d="M715.93,607.87c0,15.93-36.91,28.85-82.43,28.85s-82.43-12.91-82.43-28.85S588,579,633.5,579s82.43,12.92,82.43,28.85Z"/><g class="cls-13"><path class="cls-14" d="M715.93,607.87c0,15.93-36.91,28.85-82.43,28.85s-82.43-12.91-82.43-28.85S588,579,633.5,579s82.43,12.92,82.43,28.85Z"/></g><path class="cls-12" d="M539.33,523,537,531.33s-.62,3,2.2,3.53c2.95-.06,2.71-2.81,2.5-3.71L539.33,523Z"/><path class="cls-15" d="M779,488.28l.22-1.08c-24.18-4.84-49-4.88-64-4.26,2.47-8.88,3.21-19.11,3.21-30.51,0-16.35-6.14-29.43-16.12-39.39,1.74-5.63,4.07-18.12-2.33-34.11,0,0-11.28-3.58-36.81,13.5a129.87,129.87,0,0,0-31.3-3.73,132,132,0,0,0-34.62,4.52c-26.34-18-38-14.29-38-14.29-7.59,19-2.9,33-1.47,36.52a52.89,52.89,0,0,0-14.37,37c0,11.37,1.3,21.58,4.46,30.45-15.14-.55-39.05-.34-62.37,4.32l.22,1.08c23.46-4.69,47.52-4.86,62.57-4.29a55.42,55.42,0,0,0,2.34,5.34c-14.88.48-40.29,2.38-64.64,9.25l.3,1.06c24.54-6.92,50.17-8.77,64.91-9.22,8.89,16.57,26.42,27.28,57.61,30.64-4.43,3-8.94,8-10.77,16.59-6,2.88-25.13,9.93-36.58-9.78,0,0-6.41-11.72-18.69-12.64,0,0-11.91-.18-.82,7.42,0,0,8,3.75,13.46,17.86,0,0,7.17,24.06,41.78,16.34V581.7s-.73,8.79-8.79,11.72c0,0-4.76,3.3.37,5.13,0,0,22.34,1.83,22.34-16.48V555s-.88-10.75,4.39-14.48V585s-.36,10.62-5.86,14.65c0,0-3.66,6.59,4.39,4.76,0,0,15.38-2.2,16.12-20.15l.35-45.05h3.7l.35,45.05c.73,17.95,16.12,20.15,16.12,20.15,8.06,1.83,4.39-4.76,4.39-4.76-5.49-4-5.86-14.65-5.86-14.65V540.86c5.28,4.11,4.39,14.1,4.39,14.1v27.11c0,18.31,22.34,16.48,22.34,16.48,5.13-1.83.37-5.13.37-5.13-8.06-2.93-8.79-11.72-8.79-11.72V546.17c0-13.86-5.83-21.19-11.54-25.06,33.26-3.3,49.22-14,56.57-30.72,14.57.4,40.78,2.17,65.86,9.25l.3-1.06c-24.93-7-51-8.85-65.69-9.28a54.91,54.91,0,0,0,1.85-5.24c14.91-.64,39.84-.63,64.11,4.22Z"/><path class="cls-16" d="M685.85,451.66c7.16,6.49,11.35,14.33,11.35,22.77,0,39.42-29.39,40.49-65.64,40.49s-65.64-5.46-65.64-40.49c0-8.39,4.13-16.18,11.21-22.64,11.8-10.77,31.77-5.07,54.43-5.07S674,441,685.85,451.66Z"/><path class="cls-5" d="M609.74,476.44c0,10.86-6.12,19.66-13.66,19.66s-13.66-8.8-13.66-19.66,6.12-19.66,13.66-19.66,13.66,8.8,13.66,19.66Z"/><path class="cls-17" d="M605.36,476.69c0,7.24-4.08,13.1-9.11,13.1s-9.11-5.87-9.11-13.1,4.07-13.11,9.11-13.11,9.11,5.87,9.11,13.11Z"/><path class="cls-5" d="M683,476.44c0,10.86-6.12,19.66-13.66,19.66s-13.66-8.8-13.66-19.66,6.11-19.66,13.66-19.66S683,465.58,683,476.44Z"/><path class="cls-17" d="M678.63,476.69c0,7.24-4.08,13.1-9.11,13.1s-9.1-5.87-9.1-13.1,4.08-13.11,9.1-13.11,9.11,5.87,9.11,13.11Z"/><path class="cls-17" d="M635.18,493.9a3.42,3.42,0,1,1-3.42-3.42,3.42,3.42,0,0,1,3.42,3.42Z"/><path class="cls-17" d="M623.8,502.53a1.1,1.1,0,0,1,2.07-.73,6.21,6.21,0,0,0,11.72,0,1.1,1.1,0,0,1,2.07.73,8.41,8.41,0,0,1-15.86,0Z"/><path class="cls-18" d="M548.08,518.15c0,.91-1.07,1.65-2.38,1.65s-2.38-.74-2.38-1.65,1.07-1.65,2.38-1.65,2.38.74,2.38,1.65Z"/><path class="cls-18" d="M554.67,521.81c0,.91-1.07,1.65-2.38,1.65s-2.38-.74-2.38-1.65,1.07-1.65,2.38-1.65,2.38.74,2.38,1.65Z"/><path class="cls-18" d="M558.7,526.58c0,.91-1.07,1.65-2.38,1.65s-2.38-.74-2.38-1.65,1.07-1.65,2.38-1.65,2.38.74,2.38,1.65Z"/><path class="cls-18" d="M562.37,532.07c0,.91-1.07,1.65-2.38,1.65s-2.38-.74-2.38-1.65,1.07-1.65,2.38-1.65,2.38.74,2.38,1.65Z"/><path class="cls-18" d="M566.4,537.2c0,.91-1.07,1.65-2.38,1.65s-2.38-.74-2.38-1.65,1.07-1.65,2.38-1.65,2.38.74,2.38,1.65Z"/><path class="cls-18" d="M571.89,541.6c0,.91-1.07,1.65-2.38,1.65s-2.38-.74-2.38-1.65,1.07-1.65,2.38-1.65,2.38.74,2.38,1.65Z"/><path class="cls-18" d="M579.59,544.53c0,.91-1.07,1.65-2.38,1.65s-2.38-.74-2.38-1.65,1.07-1.65,2.38-1.65,2.38.74,2.38,1.65Z"/><path class="cls-18" d="M587.24,544.53c0,.91-1.07,1.65-2.38,1.65s-2.38-.74-2.38-1.65,1.07-1.65,2.38-1.65,2.38.74,2.38,1.65Z"/><path class="cls-18" d="M595,543.25c0,.91-1.07,1.65-2.38,1.65s-2.38-.74-2.38-1.65,1.07-1.65,2.38-1.65,2.38.74,2.38,1.65Z"/><circle class="cls-4" cx="2375.36" cy="597.33" r="36.53"/><path class="cls-5" d="M2379.59,585.23H2365.2v-4.64h20.42v3.35c-7.12,8.85-8.37,15.21-8.89,27.07h-5.6C2371.65,600.19,2373.71,593.4,2379.59,585.23Z"/><g id="Layer_2-2" data-name="Layer 2"><g id="Layer_1-2-2" data-name="Layer 1-2"><path class="cls-19" d="M2382.42,63.18l42,24.35a2.33,2.33,0,0,1,1.15,2v48.7a2.33,2.33,0,0,0,1.15,2l37.57,21.36a2.33,2.33,0,0,0,3.48-2V65.13a2.33,2.33,0,0,0-1.15-2l-81.89-47.28a2.33,2.33,0,0,0-3.48,2V61.16A2.33,2.33,0,0,0,2382.42,63.18Z"/><path class="cls-20" d="M2418.7,150.15l-42,24.35a2.33,2.33,0,0,1-2.33,0l-47.9-27.83a2.33,2.33,0,0,1-1.15-2V89.45a2.33,2.33,0,0,1,1.15-2l42-24.35a2.33,2.33,0,0,0,1.15-2V17.85a2.33,2.33,0,0,0-3.48-2l-82,47.28a2.33,2.33,0,0,0-1.15,2v104a2.33,2.33,0,0,0,1.15,2l90.07,52a2.33,2.33,0,0,0,2.33,0l81.86-47.28a2.33,2.33,0,0,0,0-4l-37.5-21.67A2.33,2.33,0,0,0,2418.7,150.15Z"/></g></g><g id="Layer_2-3" data-name="Layer 2"><g id="Layer_1-2-3" data-name="Layer 1-2"><path class="cls-21" d="M2384.74,926.13,2432,898.76a2.58,2.58,0,0,0,1.29-2.27V841.76a2.58,2.58,0,0,1,1.29-2.27l42.19-24.36a2.58,2.58,0,0,1,3.91,2.27V923.94a2.58,2.58,0,0,1-1.29,2.27l-92,53.09a2.58,2.58,0,0,1-3.91-2.27V928.36A2.58,2.58,0,0,1,2384.74,926.13Z"/><path class="cls-22" d="M2370.27,863.3V977.07a2.58,2.58,0,0,1-3.91,2.27l-92-53.17a2.58,2.58,0,0,1-1.29-2.23V807a2.58,2.58,0,0,1,1.29-2.38l101.22-58.29a2.58,2.58,0,0,1,2.58,0l92.07,53.13a2.58,2.58,0,0,1,0,4.5l-98.64,56.93A2.58,2.58,0,0,0,2370.27,863.3Z"/></g></g></g></g></svg>