<svg xmlns="http://www.w3.org/2000/svg" xmlns:xlink="http://www.w3.org/1999/xlink" viewBox="0 0 2508.33 1094.92"><defs><style>.cls-1{fill:none;}.cls-2{fill:#6d6e71;}.cls-3{fill:#231f20;}.cls-4{fill:#0f4c8f;}.cls-5{fill:#fff;}.cls-6{fill:#b7ca9d;}.cls-7{fill:#4c622c;}.cls-8{fill:#759c3f;}.cls-9{fill:#3c4929;}.cls-10{fill:#9d5125;}.cls-11{fill:#f58534;}.cls-12{fill:#6b3b19;}.cls-13{fill:#fcbf92;}.cls-14{fill:#4f4f4f;}.cls-15{fill:#adadad;}.cls-16{fill:#9edcf2;}.cls-17{clip-path:url(#clip-path);}.cls-18{fill:#7dbce7;}.cls-19{fill:#010101;}.cls-20{fill:#f5ccb3;}.cls-21{fill:#af5c51;}.cls-22{fill:#c4e5d9;}</style><clipPath id="clip-path"><path class="cls-1" d="M598,676.93c1.83,8.55,6.35,13.61,10.77,16.59l47.17-.06c5.71-3.87,11.54-11.21,11.54-25.06V632.87s.73-8.79,8.79-11.72c0,0,4.76-3.3-.37-5.13,0,0-22.34-1.84-22.34,16.48V659.6s.88,10-4.39,14.1V640.25s.36-10.62,5.86-14.65c0,0,3.66-6.59-4.39-4.76,0,0-15.38,2.2-16.12,20.15l-.35,34.37h-3.7L630.15,641C629.41,623,614,620.84,614,620.84c-8.06-1.83-4.39,4.76-4.39,4.76,5.49,4,5.86,14.65,5.86,14.65v33.84c-5.28-3.74-4.39-14.48-4.39-14.48V632.5c0-18.32-22.34-16.48-22.34-16.48-5.13,1.83-.37,5.13-.37,5.13,8.06,2.93,8.79,11.72,8.79,11.72v24.86l.85,19.21Z"/></clipPath></defs><title>CD Pipeline</title><g id="Layer_2" data-name="Layer 2"><g id="Layer_1-2" data-name="Layer 1"><path class="cls-2" d="M0,695.57H8.7c10,0,16,5.4,16,16.2s-6,16.5-15.65,16.5H0Zm8.3,28c6.6,0,10.4-3.75,10.4-11.8s-3.8-11.5-10.4-11.5H5.8v23.3Z"/><path class="cls-2" d="M40.4,703.13c6.65,0,10.15,4.8,10.15,11.65a12.33,12.33,0,0,1-.25,2.7H34.7c.5,4.45,3.3,7,7.25,7a10.26,10.26,0,0,0,5.7-1.8l2,3.6a15.49,15.49,0,0,1-8.4,2.65c-6.8,0-12.1-4.75-12.1-12.85S34.65,703.13,40.4,703.13Zm5.15,10.7c0-3.9-1.65-6.25-5-6.25-2.9,0-5.4,2.15-5.9,6.25Z"/><path class="cls-2" d="M53,703.73h5.85l3.9,12.75c.65,2.4,1.4,4.9,2,7.4H65c.7-2.5,1.4-5,2.1-7.4L71,703.73h5.55L68.2,728.28H61.55Z"/><path class="cls-2" d="M90.2,703.13c6.65,0,10.15,4.8,10.15,11.65a12.33,12.33,0,0,1-.25,2.7H84.5c.5,4.45,3.3,7,7.25,7a10.26,10.26,0,0,0,5.7-1.8l2,3.6a15.49,15.49,0,0,1-8.4,2.65c-6.8,0-12.1-4.75-12.1-12.85S84.45,703.13,90.2,703.13Zm5.15,10.7c0-3.9-1.65-6.25-5-6.25-2.9,0-5.4,2.15-5.9,6.25Z"/><path class="cls-2" d="M105.85,693h5.75v29.3c0,1.4.65,1.9,1.25,1.9a3.44,3.44,0,0,0,.9-.1l.75,4.3a7.86,7.86,0,0,1-3,.5c-4.1,0-5.6-2.65-5.6-6.9Z"/><path class="cls-2" d="M129.45,703.13c6.15,0,11.7,4.7,11.7,12.9s-5.55,12.85-11.7,12.85S117.8,724.18,117.8,716,123.35,703.13,129.45,703.13Zm0,21.05c3.6,0,5.8-3.25,5.8-8.15s-2.2-8.2-5.8-8.2-5.75,3.25-5.75,8.2S125.85,724.18,129.45,724.18Z"/><path class="cls-2" d="M152.6,730.28V738h-5.75V703.73h4.75l.4,2.6h.2a12,12,0,0,1,7.4-3.2c6.1,0,9.65,4.9,9.65,12.5,0,8.4-5.05,13.25-10.5,13.25a9.93,9.93,0,0,1-6.3-2.7Zm5-6.15c3.25,0,5.75-2.9,5.75-8.45,0-4.9-1.6-7.8-5.3-7.8-1.8,0-3.5.9-5.4,2.75v11.45A7.76,7.76,0,0,0,157.55,724.13Z"/><path class="cls-2" d="M184.75,703.13c6.65,0,10.15,4.8,10.15,11.65a12.33,12.33,0,0,1-.25,2.7H179c.5,4.45,3.3,7,7.25,7a10.26,10.26,0,0,0,5.7-1.8l2,3.6a15.49,15.49,0,0,1-8.4,2.65c-6.8,0-12.1-4.75-12.1-12.85S179,703.13,184.75,703.13Zm5.15,10.7c0-3.9-1.65-6.25-5-6.25-2.9,0-5.4,2.15-5.9,6.25Z"/><path class="cls-2" d="M200.4,703.73h4.75l.4,4.35h.2c1.75-3.2,4.35-5,7-5a6.24,6.24,0,0,1,2.8.5l-1,5a8,8,0,0,0-2.55-.4c-2,0-4.3,1.35-5.8,5.05v15H200.4Z"/><path class="cls-2" d="M218.8,721.78c2.2,1.7,4.3,2.75,6.8,2.75,2.65,0,3.9-1.25,3.9-3,0-2.05-2.65-3-5.25-4-3.25-1.2-6.9-3-6.9-7.15,0-4.3,3.45-7.35,9-7.35a13.25,13.25,0,0,1,8.15,3l-2.65,3.5a9.14,9.14,0,0,0-5.4-2.1c-2.45,0-3.6,1.15-3.6,2.7,0,1.9,2.45,2.7,5.1,3.65,3.35,1.25,7,2.85,7,7.45,0,4.2-3.35,7.6-9.55,7.6a15.55,15.55,0,0,1-9.3-3.4Z"/><path class="cls-2" d="M497.12,695a13.28,13.28,0,0,1,9.75,4.15l-3.2,3.6a8.54,8.54,0,0,0-6.5-2.7c-5.8,0-9.7,4.5-9.7,11.85s3.5,12,10.05,12a7.18,7.18,0,0,0,4.65-1.45v-7.05H496v-4.75h11.35V725a15.83,15.83,0,0,1-10.55,3.9c-8.7,0-15.3-6-15.3-16.85S488.32,695,497.12,695Z"/><path class="cls-2" d="M513.37,696.18a3.56,3.56,0,1,1,3.55,3.25A3.3,3.3,0,0,1,513.37,696.18Zm.65,7.55h5.75v24.55H514Z"/><path class="cls-2" d="M528,708.28h-3.5V704l3.8-.25.7-6.7h4.8v6.7H540v4.55h-6.25V720c0,2.9,1.1,4.3,3.45,4.3a7,7,0,0,0,2.55-.55l1,4.25a15.69,15.69,0,0,1-5,.9c-5.7,0-7.8-3.6-7.8-8.9Z"/><path class="cls-2" d="M573.67,728.28l-7.05-12.8h-5v12.8h-5.8v-32.7h11c6.8,0,12.05,2.4,12.05,9.7,0,5-2.6,8-6.55,9.35l7.8,13.65Zm-12-17.4h4.6c4.5,0,6.9-1.9,6.9-5.6s-2.4-5.05-6.9-5.05h-4.6Z"/><path class="cls-2" d="M594.42,703.13c6.65,0,10.15,4.8,10.15,11.65a12.33,12.33,0,0,1-.25,2.7h-15.6c.5,4.45,3.3,7,7.25,7a10.26,10.26,0,0,0,5.7-1.8l2,3.6a15.49,15.49,0,0,1-8.4,2.65c-6.8,0-12.1-4.75-12.1-12.85S588.67,703.13,594.42,703.13Zm5.15,10.7c0-3.9-1.65-6.25-5-6.25-2.9,0-5.4,2.15-5.9,6.25Z"/><path class="cls-2" d="M615.82,730.28V738h-5.75V703.73h4.75l.4,2.6h.2a12,12,0,0,1,7.4-3.2c6.1,0,9.65,4.9,9.65,12.5,0,8.4-5.05,13.25-10.5,13.25a9.93,9.93,0,0,1-6.3-2.7Zm5-6.15c3.25,0,5.75-2.9,5.75-8.45,0-4.9-1.6-7.8-5.3-7.8-1.8,0-3.5.9-5.4,2.75v11.45A7.76,7.76,0,0,0,620.77,724.13Z"/><path class="cls-2" d="M648.32,703.13c6.15,0,11.7,4.7,11.7,12.9s-5.55,12.85-11.7,12.85-11.65-4.7-11.65-12.85S642.22,703.13,648.32,703.13Zm0,21.05c3.6,0,5.8-3.25,5.8-8.15s-2.2-8.2-5.8-8.2-5.75,3.25-5.75,8.2S644.72,724.18,648.32,724.18Z"/><path class="cls-2" d="M665.77,721.78c2.2,1.7,4.3,2.75,6.8,2.75,2.65,0,3.9-1.25,3.9-3,0-2.05-2.65-3-5.25-4-3.25-1.2-6.9-3-6.9-7.15,0-4.3,3.45-7.35,9-7.35a13.25,13.25,0,0,1,8.15,3l-2.65,3.5a9.14,9.14,0,0,0-5.4-2.1c-2.45,0-3.6,1.15-3.6,2.7,0,1.9,2.45,2.7,5.1,3.65,3.35,1.25,7,2.85,7,7.45,0,4.2-3.35,7.6-9.55,7.6a15.55,15.55,0,0,1-9.3-3.4Z"/><path class="cls-2" d="M686.42,696.18a3.56,3.56,0,1,1,3.55,3.25A3.3,3.3,0,0,1,686.42,696.18Zm.65,7.55h5.75v24.55h-5.75Z"/><path class="cls-2" d="M701,708.28h-3.5V704l3.8-.25.7-6.7h4.8v6.7h6.25v4.55h-6.25V720c0,2.9,1.1,4.3,3.45,4.3a7,7,0,0,0,2.55-.55l1,4.25a15.69,15.69,0,0,1-5,.9c-5.7,0-7.8-3.6-7.8-8.9Z"/><path class="cls-2" d="M727.77,703.13c6.15,0,11.7,4.7,11.7,12.9s-5.55,12.85-11.7,12.85-11.65-4.7-11.65-12.85S721.67,703.13,727.77,703.13Zm0,21.05c3.6,0,5.8-3.25,5.8-8.15s-2.2-8.2-5.8-8.2S722,711.08,722,716,724.17,724.18,727.77,724.18Z"/><path class="cls-2" d="M745.17,703.73h4.75l.4,4.35h.2c1.75-3.2,4.35-5,7-5a6.24,6.24,0,0,1,2.8.5l-1,5a8,8,0,0,0-2.55-.4c-2,0-4.3,1.35-5.8,5.05v15h-5.75Z"/><path class="cls-2" d="M765.67,733.73c2.6,0,4.1-1.75,4.9-4.2L771,728l-9.65-24.25h5.85l4.25,12.05c.7,2.15,1.4,4.6,2.15,6.9h.2c.6-2.25,1.25-4.7,1.85-6.9l3.7-12.05h5.55L776,729.38c-2,5.55-4.6,9-10,9a9.55,9.55,0,0,1-3.2-.5l1-4.5A6,6,0,0,0,765.67,733.73Z"/><path class="cls-2" d="M997.75,719.43h-11l-2.55,8.85h-6l10.7-32.7h6.8l10.65,32.7h-6.15Zm-1.3-4.55-1.15-4c-1-3.45-2-7.2-3-10.8h-.2c-.9,3.65-1.85,7.35-2.9,10.8l-1.15,4Z"/><path class="cls-2" d="M1007.05,695.57h6l2.8,16.5c.55,3.5,1.1,7,1.65,10.45h.2c.65-3.45,1.4-7,2.1-10.45l4.05-16.5h5l4,16.5c.7,3.4,1.45,7,2.15,10.45h.2c.55-3.5,1-7,1.6-10.45l2.8-16.5h5.6l-6.3,32.7h-7.2l-4.05-17.2c-.55-2.55-1-5.05-1.45-7.55h-.2c-.45,2.5-.9,5-1.45,7.55l-4,17.2h-7.1Z"/><path class="cls-2" d="M1051.1,720.13a13,13,0,0,0,8.55,3.7c3.65,0,5.7-1.65,5.7-4.2,0-2.7-2.1-3.55-5.1-4.8l-4.45-2c-3.25-1.35-6.6-3.9-6.6-8.7,0-5.2,4.6-9.2,11-9.2a14.46,14.46,0,0,1,10.1,4.15l-3,3.7a10.56,10.56,0,0,0-7.1-2.8c-3.1,0-5.1,1.45-5.1,3.85s2.5,3.5,5.2,4.6l4.4,1.85c3.9,1.65,6.6,4.1,6.6,8.85,0,5.3-4.4,9.7-11.75,9.7a16.82,16.82,0,0,1-11.75-4.8Z"/><path class="cls-2" d="M1100.7,695a12.81,12.81,0,0,1,9.3,4.15l-3.2,3.6a8.33,8.33,0,0,0-6.05-2.7c-5.35,0-9.2,4.5-9.2,11.85s3.55,12,9,12a8.85,8.85,0,0,0,6.9-3.25l3.2,3.55a13.05,13.05,0,0,1-10.2,4.75c-8.3,0-14.85-6-14.85-16.85S1092.3,695,1100.7,695Z"/><path class="cls-2" d="M1125.6,703.13c6.15,0,11.7,4.7,11.7,12.9s-5.55,12.85-11.7,12.85S1114,724.18,1114,716,1119.5,703.13,1125.6,703.13Zm0,21.05c3.6,0,5.8-3.25,5.8-8.15s-2.2-8.2-5.8-8.2-5.75,3.25-5.75,8.2S1122,724.18,1125.6,724.18Z"/><path class="cls-2" d="M1151.9,703.13a9.06,9.06,0,0,1,6.45,2.7l-.2-4V693h5.75v35.3h-4.75l-.4-2.65h-.2a10.23,10.23,0,0,1-7,3.25c-6.15,0-10.1-4.75-10.1-12.85S1146.55,703.13,1151.9,703.13Zm1.1,21c1.9,0,3.5-.85,5.15-2.75V709.93a7.32,7.32,0,0,0-5-2.05c-3.15,0-5.7,3-5.7,8.1S1149.45,724.13,1153,724.13Z"/><path class="cls-2" d="M1180.9,703.13c6.65,0,10.15,4.8,10.15,11.65a12.33,12.33,0,0,1-.25,2.7h-15.6c.5,4.45,3.3,7,7.25,7a10.26,10.26,0,0,0,5.7-1.8l2,3.6a15.49,15.49,0,0,1-8.4,2.65c-6.8,0-12.1-4.75-12.1-12.85S1175.15,703.13,1180.9,703.13Zm5.15,10.7c0-3.9-1.65-6.25-5-6.25-2.9,0-5.4,2.15-5.9,6.25Z"/><path class="cls-2" d="M1197,695.57h11c7.15,0,12.4,2.5,12.4,10.1,0,7.25-5.4,10.6-12.4,10.6h-5.2v12H1197Zm10.5,16.05c4.9,0,7.2-2,7.2-6s-2.45-5.45-7.2-5.45h-4.7v11.4Z"/><path class="cls-2" d="M1225.3,696.17a3.56,3.56,0,1,1,3.55,3.25A3.3,3.3,0,0,1,1225.3,696.17Zm.65,7.55h5.75v24.55H1226Z"/><path class="cls-2" d="M1244.8,730.28V738h-5.75V703.73h4.75l.4,2.6h.2a12,12,0,0,1,7.4-3.2c6.1,0,9.65,4.9,9.65,12.5,0,8.4-5.05,13.25-10.5,13.25a9.93,9.93,0,0,1-6.3-2.7Zm5-6.15c3.25,0,5.75-2.9,5.75-8.45,0-4.9-1.6-7.8-5.3-7.8-1.8,0-3.5.9-5.4,2.75v11.45A7.77,7.77,0,0,0,1249.75,724.13Z"/><path class="cls-2" d="M1277,703.13c6.65,0,10.15,4.8,10.15,11.65a12.33,12.33,0,0,1-.25,2.7h-15.6c.5,4.45,3.3,7,7.25,7a10.26,10.26,0,0,0,5.7-1.8l2,3.6a15.49,15.49,0,0,1-8.4,2.65c-6.8,0-12.1-4.75-12.1-12.85S1271.2,703.13,1277,703.13Zm5.15,10.7c0-3.9-1.65-6.25-5-6.25-2.9,0-5.4,2.15-5.9,6.25Z"/><path class="cls-2" d="M1292.6,693h5.75v29.3c0,1.4.65,1.9,1.25,1.9a3.44,3.44,0,0,0,.9-.1l.75,4.3a7.86,7.86,0,0,1-3,.5c-4.1,0-5.6-2.65-5.6-6.9Z"/><path class="cls-2" d="M1305.5,696.17a3.56,3.56,0,1,1,3.55,3.25A3.3,3.3,0,0,1,1305.5,696.17Zm.65,7.55h5.75v24.55h-5.75Z"/><path class="cls-2" d="M1319.25,703.73H1324l.4,3.3h.2c2.2-2.15,4.7-3.9,8-3.9,5.25,0,7.55,3.55,7.55,9.75v15.4h-5.75V713.63c0-4.05-1.15-5.55-3.85-5.55-2.15,0-3.55,1-5.6,3.05v17.15h-5.75Z"/><path class="cls-2" d="M1357,703.13c6.65,0,10.15,4.8,10.15,11.65a12.33,12.33,0,0,1-.25,2.7h-15.6c.5,4.45,3.3,7,7.25,7a10.26,10.26,0,0,0,5.7-1.8l2,3.6a15.49,15.49,0,0,1-8.4,2.65c-6.8,0-12.1-4.75-12.1-12.85S1351.2,703.13,1357,703.13Zm5.15,10.7c0-3.9-1.65-6.25-5-6.25-2.9,0-5.4,2.15-5.9,6.25Z"/><path class="cls-2" d="M1644.37,1082.47h-11l-2.55,8.85h-6l10.7-32.7h6.8l10.65,32.7h-6.15Zm-1.3-4.55-1.15-4c-1-3.45-2-7.2-3-10.8h-.2c-.9,3.65-1.85,7.35-2.9,10.8l-1.15,4Z"/><path class="cls-2" d="M1653.67,1058.61h6l2.8,16.5c.55,3.5,1.1,7,1.65,10.45h.2c.65-3.45,1.4-7,2.1-10.45l4.05-16.5h5l4,16.5c.7,3.4,1.45,7,2.15,10.45h.2c.55-3.5,1-7,1.6-10.45l2.8-16.5h5.6l-6.3,32.7h-7.2l-4.05-17.2c-.55-2.55-1-5.05-1.45-7.55h-.2c-.45,2.5-.9,5-1.45,7.55l-4,17.2h-7.1Z"/><path class="cls-2" d="M1697.72,1083.17a13,13,0,0,0,8.55,3.7c3.65,0,5.7-1.65,5.7-4.2,0-2.7-2.1-3.55-5.1-4.8l-4.45-2c-3.25-1.35-6.6-3.9-6.6-8.7,0-5.2,4.6-9.2,11-9.2a14.46,14.46,0,0,1,10.1,4.15l-3,3.7a10.56,10.56,0,0,0-7.1-2.8c-3.1,0-5.1,1.45-5.1,3.85s2.5,3.5,5.2,4.6l4.4,1.85c3.9,1.65,6.6,4.1,6.6,8.85,0,5.3-4.4,9.7-11.75,9.7a16.82,16.82,0,0,1-11.75-4.8Z"/><path class="cls-2" d="M1747.32,1058a12.81,12.81,0,0,1,9.3,4.15l-3.2,3.6a8.33,8.33,0,0,0-6.05-2.7c-5.35,0-9.2,4.5-9.2,11.85s3.55,12,9,12a8.85,8.85,0,0,0,6.9-3.25l3.2,3.55a13.05,13.05,0,0,1-10.2,4.75c-8.3,0-14.85-6-14.85-16.85S1738.92,1058,1747.32,1058Z"/><path class="cls-2" d="M1772.22,1066.16c6.15,0,11.7,4.7,11.7,12.9s-5.55,12.85-11.7,12.85-11.65-4.7-11.65-12.85S1766.12,1066.16,1772.22,1066.16Zm0,21.05c3.6,0,5.8-3.25,5.8-8.15s-2.2-8.2-5.8-8.2-5.75,3.25-5.75,8.2S1768.62,1087.22,1772.22,1087.22Z"/><path class="cls-2" d="M1798.52,1066.16a9.06,9.06,0,0,1,6.45,2.7l-.2-4V1056h5.75v35.3h-4.75l-.4-2.65h-.2a10.23,10.23,0,0,1-7,3.25c-6.15,0-10.1-4.75-10.1-12.85S1793.17,1066.16,1798.52,1066.16Zm1.1,21c1.9,0,3.5-.85,5.15-2.75V1073a7.32,7.32,0,0,0-5-2.05c-3.15,0-5.7,3-5.7,8.1S1796.07,1087.17,1799.62,1087.17Z"/><path class="cls-2" d="M1827.52,1066.16c6.65,0,10.15,4.8,10.15,11.65a12.33,12.33,0,0,1-.25,2.7h-15.6c.5,4.45,3.3,7,7.25,7a10.26,10.26,0,0,0,5.7-1.8l2,3.6a15.49,15.49,0,0,1-8.4,2.65c-6.8,0-12.1-4.75-12.1-12.85S1821.77,1066.16,1827.52,1066.16Zm5.15,10.7c0-3.9-1.65-6.25-5-6.25-2.9,0-5.4,2.15-5.9,6.25Z"/><path class="cls-2" d="M1843.62,1058.61h10.45c6.7,0,11.65,2.05,11.65,8.05a7.1,7.1,0,0,1-5.6,7.1v.2c4.7.8,7.35,3.35,7.35,7.75,0,6.55-5.35,9.6-12.55,9.6h-11.3Zm9.9,13.55c4.6,0,6.5-1.75,6.5-4.8s-2.1-4.25-6.35-4.25h-4.25v9.05Zm.8,14.65c4.8,0,7.45-1.8,7.45-5.5,0-3.4-2.6-5-7.45-5h-4.9v10.5Z"/><path class="cls-2" d="M1872.62,1066.77h5.75v14.65c0,4,1.15,5.55,3.8,5.55,2.15,0,3.6-1,5.45-3.4v-16.8h5.75v24.55h-4.7l-.45-3.6h-.15c-2.15,2.55-4.55,4.2-7.9,4.2-5.25,0-7.55-3.55-7.55-9.75Z"/><path class="cls-2" d="M1900,1059.21a3.56,3.56,0,1,1,3.55,3.25A3.3,3.3,0,0,1,1900,1059.21Zm.65,7.55h5.75v24.55h-5.75Z"/><path class="cls-2" d="M1913.77,1056h5.75v29.3c0,1.4.65,1.9,1.25,1.9a3.44,3.44,0,0,0,.9-.1l.75,4.3a7.86,7.86,0,0,1-3,.5c-4.1,0-5.6-2.65-5.6-6.9Z"/><path class="cls-2" d="M1936.22,1066.16a9.06,9.06,0,0,1,6.45,2.7l-.2-4V1056h5.75v35.3h-4.75l-.4-2.65h-.2a10.23,10.23,0,0,1-7,3.25c-6.15,0-10.1-4.75-10.1-12.85S1930.87,1066.16,1936.22,1066.16Zm1.1,21c1.9,0,3.5-.85,5.15-2.75V1073a7.32,7.32,0,0,0-5-2.05c-3.15,0-5.7,3-5.7,8.1S1933.77,1087.17,1937.32,1087.17Z"/><path class="cls-2" d="M2260.44,1085.47h-11l-2.55,8.85h-6l10.7-32.7h6.8l10.65,32.7H2263Zm-1.3-4.55-1.15-4c-1-3.45-2-7.2-3-10.8h-.2c-.9,3.65-1.85,7.35-2.9,10.8l-1.15,4Z"/><path class="cls-2" d="M2272.59,1069.77h4.75l.4,3.35h.2c2-2.2,4.45-4,7.5-4,3.6,0,5.65,1.65,6.8,4.4,2.35-2.5,4.8-4.4,7.9-4.4,5.2,0,7.6,3.55,7.6,9.75v15.4h-5.8v-14.65c0-4.05-1.2-5.55-3.75-5.55-1.55,0-3.25,1-5.15,3.05v17.15h-5.75v-14.65c0-4.05-1.2-5.55-3.8-5.55-1.5,0-3.25,1-5.15,3.05v17.15h-5.75Z"/><path class="cls-2" d="M2328.14,1078.62c0-2.6-1.15-4.8-4.45-4.8a13.66,13.66,0,0,0-6.9,2.4l-2.1-3.85a19,19,0,0,1,10-3.2c6.15,0,9.15,3.75,9.15,10.6v14.55h-4.7l-.45-2.7h-.15c-2.2,1.85-4.7,3.3-7.6,3.3a6.9,6.9,0,0,1-7.3-7.2C2313.69,1082.47,2318.09,1079.72,2328.14,1078.62Zm-5.35,11.8c2,0,3.55-1,5.35-2.7v-5.5c-6.65.85-8.85,2.6-8.85,5.05C2319.29,1089.47,2320.74,1090.42,2322.79,1090.42Z"/><path class="cls-2" d="M2338.94,1091.22l11.6-16.9h-10.3v-4.55h17.5v3l-11.55,16.9h12v4.6h-19.2Z"/><path class="cls-2" d="M2372.59,1069.16c6.15,0,11.7,4.7,11.7,12.9s-5.55,12.85-11.7,12.85-11.65-4.7-11.65-12.85S2366.49,1069.16,2372.59,1069.16Zm0,21.05c3.6,0,5.8-3.25,5.8-8.15s-2.2-8.2-5.8-8.2-5.75,3.25-5.75,8.2S2369,1090.22,2372.59,1090.22Z"/><path class="cls-2" d="M2390,1069.77h4.75l.4,3.3h.2c2.2-2.15,4.7-3.9,8-3.9,5.25,0,7.55,3.55,7.55,9.75v15.4h-5.75v-14.65c0-4.05-1.15-5.55-3.85-5.55-2.15,0-3.55,1-5.6,3.05v17.15H2390Z"/><path class="cls-2" d="M2428.68,1061.61h19.65v4.9h-13.85v8.35h11.75v4.9h-11.75v9.65h14.35v4.9h-20.15Z"/><path class="cls-2" d="M2468.74,1061a12.81,12.81,0,0,1,9.3,4.15l-3.2,3.6a8.33,8.33,0,0,0-6.05-2.7c-5.35,0-9.2,4.5-9.2,11.85s3.55,12,9,12a8.85,8.85,0,0,0,6.9-3.25l3.2,3.55a13.05,13.05,0,0,1-10.2,4.75c-8.3,0-14.85-6-14.85-16.85S2460.33,1061,2468.74,1061Z"/><path class="cls-2" d="M2501.83,1094.32l-7.05-12.8h-5v12.8H2484v-32.7h11c6.8,0,12.05,2.4,12.05,9.7,0,5-2.6,8-6.55,9.35l7.8,13.65Zm-12-17.4h4.6c4.5,0,6.9-1.9,6.9-5.6s-2.4-5.05-6.9-5.05h-4.6Z"/><rect class="cls-3" x="239.13" y="506.75" width="202.19" height="3"/><polygon class="cls-3" points="436.07 526.2 467.16 508.25 436.07 490.3 436.07 526.2"/><rect class="cls-3" x="794.19" y="506.75" width="202.19" height="3"/><polygon class="cls-3" points="991.13 526.2 1022.21 508.25 991.13 490.3 991.13 526.2"/><circle class="cls-4" cx="344.14" cy="508.25" r="36.53"/><path class="cls-5" d="M335.42,517.42h6.79v-20h-5.59V494a20.45,20.45,0,0,0,7-2.49h4.11v25.92h6v4.5H335.42Z"/><circle class="cls-4" cx="908.2" cy="508.25" r="36.53"/><path class="cls-5" d="M897.75,518.71c8.46-8.18,13.77-13.53,13.77-18.17,0-3.2-1.77-5.26-5-5.26-2.34,0-4.3,1.58-5.93,3.4l-3.06-3.06c2.77-3,5.55-4.69,9.71-4.69,5.83,0,9.61,3.68,9.61,9.33,0,5.4-5,11-11,17.31,1.58-.14,3.59-.33,5.07-.33h7.46v4.69H897.75Z"/><path class="cls-2" d="M1579.8,347.31h-11l-2.55,8.85h-6l10.7-32.7h6.8l10.65,32.7h-6.15Zm-1.3-4.55-1.15-4c-1-3.45-2-7.2-3-10.8h-.2c-.9,3.65-1.85,7.35-2.9,10.8l-1.15,4Z"/><path class="cls-2" d="M1589.1,323.46h6l2.8,16.5c.55,3.5,1.1,7,1.65,10.45h.2c.65-3.45,1.4-7,2.1-10.45l4.05-16.5h5l4,16.5c.7,3.4,1.45,7,2.15,10.45h.2c.55-3.5,1-7,1.6-10.45l2.8-16.5h5.6l-6.3,32.7h-7.2l-4.05-17.2c-.55-2.55-1-5.05-1.45-7.55h-.2c-.45,2.5-.9,5-1.45,7.55l-4,17.2h-7.1Z"/><path class="cls-2" d="M1633.15,348a13,13,0,0,0,8.55,3.7c3.65,0,5.7-1.65,5.7-4.2,0-2.7-2.1-3.55-5.1-4.8l-4.45-2c-3.25-1.35-6.6-3.9-6.6-8.7,0-5.2,4.6-9.2,11-9.2a14.46,14.46,0,0,1,10.1,4.15l-3,3.7a10.56,10.56,0,0,0-7.1-2.8c-3.1,0-5.1,1.45-5.1,3.85s2.5,3.5,5.2,4.6l4.4,1.85c3.9,1.65,6.6,4.1,6.6,8.85,0,5.3-4.4,9.7-11.75,9.7a16.82,16.82,0,0,1-11.75-4.8Z"/><path class="cls-2" d="M1682.75,322.86A12.81,12.81,0,0,1,1692,327l-3.2,3.6a8.33,8.33,0,0,0-6.05-2.7c-5.35,0-9.2,4.5-9.2,11.85s3.55,12,9,12a8.85,8.85,0,0,0,6.9-3.25l3.2,3.55a13.05,13.05,0,0,1-10.2,4.75c-8.3,0-14.85-6-14.85-16.85S1674.34,322.86,1682.75,322.86Z"/><path class="cls-2" d="M1697.59,320.86h5.75v29.3c0,1.4.65,1.9,1.25,1.9a3.44,3.44,0,0,0,.9-.1l.75,4.3a7.86,7.86,0,0,1-3,.5c-4.1,0-5.6-2.65-5.6-6.9Z"/><path class="cls-2" d="M1721.2,331c6.15,0,11.7,4.7,11.7,12.9s-5.55,12.85-11.7,12.85-11.65-4.7-11.65-12.85S1715.09,331,1721.2,331Zm0,21.05c3.6,0,5.8-3.25,5.8-8.15s-2.2-8.2-5.8-8.2-5.75,3.25-5.75,8.2S1717.59,352.06,1721.2,352.06Z"/><path class="cls-2" d="M1738.34,331.61h5.75v14.65c0,4,1.15,5.55,3.8,5.55,2.15,0,3.6-1,5.45-3.4v-16.8h5.75v24.55h-4.7l-.45-3.6h-.15c-2.15,2.55-4.55,4.2-7.9,4.2-5.25,0-7.55-3.55-7.55-9.75Z"/><path class="cls-2" d="M1775.29,331a9.06,9.06,0,0,1,6.45,2.7l-.2-4v-8.9h5.75v35.3h-4.75l-.4-2.65h-.2a10.23,10.23,0,0,1-7,3.25c-6.15,0-10.1-4.75-10.1-12.85S1769.94,331,1775.29,331Zm1.1,21c1.9,0,3.5-.85,5.15-2.75V337.81a7.32,7.32,0,0,0-5-2.05c-3.15,0-5.7,3-5.7,8.1S1772.84,352,1776.39,352Z"/><path class="cls-2" d="M1795,323.46h19.75v4.9h-14v9.25h11.85v4.9h-11.85v13.65H1795Z"/><path class="cls-2" d="M1829.15,331c6.15,0,11.7,4.7,11.7,12.9s-5.55,12.85-11.7,12.85-11.65-4.7-11.65-12.85S1823,331,1829.15,331Zm0,21.05c3.6,0,5.8-3.25,5.8-8.15s-2.2-8.2-5.8-8.2-5.75,3.25-5.75,8.2S1825.54,352.06,1829.15,352.06Z"/><path class="cls-2" d="M1846.54,331.61h4.75l.4,4.35h.2c1.75-3.2,4.35-5,7-5a6.24,6.24,0,0,1,2.8.5l-1,5a8,8,0,0,0-2.55-.4c-2,0-4.3,1.35-5.8,5.05v15h-5.75Z"/><path class="cls-2" d="M1865.19,331.61h4.75l.4,3.35h.2c2-2.2,4.45-4,7.5-4,3.6,0,5.65,1.65,6.8,4.4,2.35-2.5,4.8-4.4,7.9-4.4,5.2,0,7.6,3.55,7.6,9.75v15.4h-5.8V341.51c0-4.05-1.2-5.55-3.75-5.55-1.55,0-3.25,1-5.15,3.05v17.15h-5.75V341.51c0-4.05-1.2-5.55-3.8-5.55-1.5,0-3.25,1-5.15,3.05v17.15h-5.75Z"/><path class="cls-2" d="M1920.74,340.46c0-2.6-1.15-4.8-4.45-4.8a13.66,13.66,0,0,0-6.9,2.4l-2.1-3.85a19,19,0,0,1,10-3.2c6.15,0,9.15,3.75,9.15,10.6v14.55h-4.7l-.45-2.7h-.15c-2.2,1.85-4.7,3.3-7.6,3.3a6.9,6.9,0,0,1-7.3-7.2C1906.29,344.31,1910.69,341.56,1920.74,340.46Zm-5.35,11.8c2,0,3.55-1,5.35-2.7v-5.5c-6.65.85-8.85,2.6-8.85,5.05C1911.89,351.31,1913.34,352.26,1915.39,352.26Z"/><path class="cls-2" d="M1934.34,336.16h-3.5v-4.3l3.8-.25.7-6.7h4.8v6.7h6.25v4.55h-6.25v11.7c0,2.9,1.1,4.3,3.45,4.3a7,7,0,0,0,2.55-.55l1,4.25a15.69,15.69,0,0,1-5,.9c-5.7,0-7.8-3.6-7.8-8.9Z"/><path class="cls-2" d="M1950.89,324.06a3.56,3.56,0,1,1,3.55,3.25A3.3,3.3,0,0,1,1950.89,324.06Zm.65,7.55h5.75v24.55h-5.75Z"/><path class="cls-2" d="M1974.69,331c6.15,0,11.7,4.7,11.7,12.9s-5.55,12.85-11.7,12.85-11.65-4.7-11.65-12.85S1968.59,331,1974.69,331Zm0,21.05c3.6,0,5.8-3.25,5.8-8.15s-2.2-8.2-5.8-8.2-5.75,3.25-5.75,8.2S1971.09,352.06,1974.69,352.06Z"/><path class="cls-2" d="M1992.09,331.61h4.75l.4,3.3h.2c2.2-2.15,4.7-3.9,8-3.9,5.25,0,7.55,3.55,7.55,9.75v15.4h-5.75V341.51c0-4.05-1.15-5.55-3.85-5.55-2.15,0-3.55,1-5.6,3.05v17.15h-5.75Z"/><path class="cls-2" d="M2262.44,347.31h-11l-2.55,8.85h-6l10.7-32.7h6.8l10.65,32.7H2265Zm-1.3-4.55-1.15-4c-1-3.45-2-7.2-3-10.8h-.2c-.9,3.65-1.85,7.35-2.9,10.8l-1.15,4Z"/><path class="cls-2" d="M2274.59,331.61h4.75l.4,3.35h.2c2-2.2,4.45-4,7.5-4,3.6,0,5.65,1.65,6.8,4.4,2.35-2.5,4.8-4.4,7.9-4.4,5.2,0,7.6,3.55,7.6,9.75v15.4h-5.8V341.51c0-4.05-1.2-5.55-3.75-5.55-1.55,0-3.25,1-5.15,3.05v17.15h-5.75V341.51c0-4.05-1.2-5.55-3.8-5.55-1.5,0-3.25,1-5.15,3.05v17.15h-5.75Z"/><path class="cls-2" d="M2330.14,340.46c0-2.6-1.15-4.8-4.45-4.8a13.66,13.66,0,0,0-6.9,2.4l-2.1-3.85a19,19,0,0,1,10-3.2c6.15,0,9.15,3.75,9.15,10.6v14.55h-4.7l-.45-2.7h-.15c-2.2,1.85-4.7,3.3-7.6,3.3a6.9,6.9,0,0,1-7.3-7.2C2315.69,344.31,2320.09,341.56,2330.14,340.46Zm-5.35,11.8c2,0,3.55-1,5.35-2.7v-5.5c-6.65.85-8.85,2.6-8.85,5.05C2321.29,351.31,2322.74,352.26,2324.79,352.26Z"/><path class="cls-2" d="M2340.94,353.06l11.6-16.9h-10.3v-4.55h17.5v3l-11.55,16.9h12v4.6h-19.2Z"/><path class="cls-2" d="M2374.59,331c6.15,0,11.7,4.7,11.7,12.9s-5.55,12.85-11.7,12.85-11.65-4.7-11.65-12.85S2368.49,331,2374.59,331Zm0,21.05c3.6,0,5.8-3.25,5.8-8.15s-2.2-8.2-5.8-8.2-5.75,3.25-5.75,8.2S2371,352.06,2374.59,352.06Z"/><path class="cls-2" d="M2392,331.61h4.75l.4,3.3h.2c2.2-2.15,4.7-3.9,8-3.9,5.25,0,7.55,3.55,7.55,9.75v15.4h-5.75V341.51c0-4.05-1.15-5.55-3.85-5.55-2.15,0-3.55,1-5.6,3.05v17.15H2392Z"/><path class="cls-2" d="M2430.68,323.46h19.65v4.9h-13.85v8.35h11.75v4.9h-11.75v9.65h14.35v4.9h-20.15Z"/><path class="cls-2" d="M2470.74,322.86A12.81,12.81,0,0,1,2480,327l-3.2,3.6a8.33,8.33,0,0,0-6.05-2.7c-5.35,0-9.2,4.5-9.2,11.85s3.55,12,9,12a8.85,8.85,0,0,0,6.9-3.25l3.2,3.55a13.05,13.05,0,0,1-10.2,4.75c-8.3,0-14.85-6-14.85-16.85S2462.33,322.86,2470.74,322.86Z"/><path class="cls-2" d="M2485.83,348a13,13,0,0,0,8.55,3.7c3.65,0,5.7-1.65,5.7-4.2,0-2.7-2.1-3.55-5.1-4.8l-4.45-2c-3.25-1.35-6.6-3.9-6.6-8.7,0-5.2,4.6-9.2,11-9.2A14.46,14.46,0,0,1,2505,327l-3,3.7a10.56,10.56,0,0,0-7.1-2.8c-3.1,0-5.1,1.45-5.1,3.85s2.5,3.5,5.2,4.6l4.4,1.85c3.9,1.65,6.6,4.1,6.6,8.85,0,5.3-4.4,9.7-11.75,9.7a16.82,16.82,0,0,1-11.75-4.8Z"/><rect class="cls-3" x="1924.77" y="136.21" width="301.87" height="3"/><polygon class="cls-3" points="2221.39 155.66 2252.48 137.71 2221.39 119.76 2221.39 155.66"/><rect class="cls-3" x="1924.77" y="877.28" width="301.87" height="3"/><polygon class="cls-3" points="2221.39 896.73 2252.48 878.78 2221.39 860.83 2221.39 896.73"/><rect class="cls-3" x="2373.86" y="723.19" width="3" height="11"/><path class="cls-3" d="M2376.86,714.25h-3V692.38h3Zm0-30.81h-3V661.57h3Zm0-30.81h-3V630.76h3Zm0-30.81h-3V600h3Zm0-30.81h-3V569.14h3Zm0-30.81h-3V538.33h3Zm0-30.81h-3V507.52h3Z"/><rect class="cls-3" x="2373.86" y="487.58" width="3" height="11"/><polygon class="cls-3" points="2393.31 492.83 2375.36 461.74 2357.41 492.83 2393.31 492.83"/><polygon class="cls-3" points="1611.44 880.28 1407.75 880.28 1407.75 136.21 1611.44 136.21 1611.44 139.21 1410.75 139.21 1410.75 877.28 1611.44 877.28 1611.44 880.28"/><polygon class="cls-3" points="1606.19 860.83 1637.27 878.78 1606.19 896.73 1606.19 860.83"/><polygon class="cls-3" points="1606.19 155.66 1637.27 137.71 1606.19 119.76 1606.19 155.66"/><circle class="cls-4" cx="1523.26" cy="878.78" r="36.53"/><path class="cls-5" d="M1514.77,885.18a9.94,9.94,0,0,0,7.22,3.35c3.3,0,5.59-1.72,5.59-4.59,0-3.16-2-5.16-8.94-5.16v-4c6,0,7.94-2.06,7.94-4.88,0-2.54-1.72-4.07-4.5-4.07-2.39,0-4.26,1.15-6.12,2.87l-2.82-3.39a13.42,13.42,0,0,1,9.13-3.83c5.83,0,9.85,2.87,9.85,8,0,3.4-2,5.69-5.31,7v.19c3.59,1,6.31,3.54,6.31,7.56,0,5.55-4.83,8.8-10.66,8.8a13.22,13.22,0,0,1-10.33-4.3Z"/><circle class="cls-4" cx="1523.26" cy="137.71" r="36.53"/><path class="cls-5" d="M1514.68,144.2a10.19,10.19,0,0,0,7.13,3.25,5.51,5.51,0,0,0,5.88-5.83c0-3.63-2.25-5.69-5.59-5.69a7.8,7.8,0,0,0-4.88,1.72l-2.63-1.67.91-15h16.26v4.64h-11.48l-.62,7.36a8.62,8.62,0,0,1,4-1c5.21,0,9.56,3,9.56,9.52S1528.12,152,1522.52,152a14,14,0,0,1-10.38-4.21Z"/><circle class="cls-4" cx="2072.32" cy="878.78" r="36.53"/><path class="cls-5" d="M2083.34,884.61h-3.83v7.84h-5.16v-7.84h-13.44v-3.73L2073,862h6.55v18.32h3.83Zm-9-4.26v-6.89c0-1.77.14-4.54.24-6.31h-.19c-.77,1.58-1.63,3.11-2.49,4.73l-5.55,8.46Z"/><circle class="cls-4" cx="2072.32" cy="137.71" r="36.53"/><path class="cls-5" d="M2079.27,127.18a6.56,6.56,0,0,0-4.83-2.3c-3.83,0-6.93,2.82-7.17,11.24a9,9,0,0,1,6.6-3.59c5.26,0,8.89,3.06,8.89,9.42,0,6.07-4.35,10-9.56,10-6,0-11-4.64-11-14.87,0-11.81,5.74-16.69,12-16.69a10.84,10.84,0,0,1,8.13,3.44ZM2077.65,142c0-3.59-1.77-5.4-4.78-5.4-1.72,0-3.73,1-5.45,3.49.57,5.4,2.73,7.7,5.69,7.7C2075.64,147.74,2077.65,145.69,2077.65,142Z"/><rect class="cls-3" x="1325.24" y="506.75" width="84.01" height="3"/><polygon class="cls-6" points="1725.6 895.28 1710.52 892.74 1683.77 895.12 1696.92 941.64 1725.6 895.28 1725.6 895.28"/><polygon class="cls-7" points="1683.77 842.18 1683.77 884.43 1697.31 886.36 1723.69 864.65 1697.31 840.25 1683.77 842.18 1683.77 842.18"/><polygon class="cls-8" points="1697.31 898.14 1725.6 895.28 1725.6 937.63 1697.31 939.67 1686.4 917.59 1697.31 898.14 1697.31 898.14"/><polygon class="cls-9" points="1710.89 833.98 1725.6 831.52 1697.31 784.59 1683.77 831.57 1710.89 833.98 1710.89 833.98"/><polygon class="cls-8" points="1697.31 782.52 1725.6 789.17 1725.6 831.52 1697.31 828.67 1697.31 782.52 1697.31 782.52"/><polygon class="cls-8" points="1697.31 840.36 1725.6 842.24 1725.6 884.59 1697.31 886.5 1697.31 840.36 1697.31 840.36"/><polygon class="cls-9" points="1725.6 818.93 1747.22 813.88 1717.57 773.41 1697.31 814.95 1725.6 818.93 1725.6 818.93"/><polygon class="cls-8" points="1717.57 772.43 1747.22 780.76 1747.22 813.88 1717.57 808.89 1717.57 772.43 1717.57 772.43"/><polygon class="cls-6" points="1747.24 912.74 1725.66 907.7 1697.31 911.69 1717.57 954.39 1747.24 912.74 1747.24 912.74"/><polygon class="cls-8" points="1717.57 917.79 1747.22 912.8 1747.22 946.04 1717.57 954.39 1690.78 933.59 1717.57 917.79 1717.57 917.79"/><polygon class="cls-9" points="1892.8 831.54 1865.66 833.95 1829.53 827.9 1858.99 772.31 1892.8 831.54 1892.8 831.54"/><polygon class="cls-7" points="1697.31 911.69 1697.31 898.03 1683.77 895.12 1683.77 937.37 1717.57 954.27 1717.57 917.75 1697.31 911.69 1697.31 911.69"/><polygon class="cls-6" points="1892.87 895.14 1865.74 892.73 1829.52 898.8 1858.99 953.27 1892.87 895.14 1892.87 895.14"/><polygon class="cls-7" points="1858.99 772.31 1829.53 780.6 1829.53 827.9 1858.99 824.35 1891.05 804.99 1858.99 772.31 1858.99 772.31"/><polygon class="cls-7" points="1858.99 837.07 1829.53 839.46 1829.53 886.76 1858.99 889.11 1891.05 864.22 1858.99 837.07 1858.99 837.07"/><polygon class="cls-7" points="1858.99 902.57 1829.53 899 1829.53 946.3 1858.99 954.62 1888.63 920.81 1858.99 902.57 1858.99 902.57"/><polygon class="cls-9" points="1757.3 758.71 1727.68 805.86 1757.84 811.39 1788.37 804.26 1757.3 758.71 1757.3 758.71"/><polygon class="cls-9" points="1848.91 822.13 1818.74 826.09 1757.3 815.8 1788.37 737.29 1848.91 822.13 1848.91 822.13"/><polygon class="cls-7" points="1788.37 899.35 1846.52 863.43 1788.37 827.25 1757.3 831.69 1757.3 894.92 1788.37 899.35 1788.37 899.35"/><polygon class="cls-8" points="1788.37 827.25 1788.37 899.35 1848.91 890.71 1848.91 835.9 1788.37 827.25 1788.37 827.25"/><polygon class="cls-6" points="1848.91 904.59 1818.74 900.61 1757.3 910.92 1788.37 989.64 1848.91 904.59 1848.91 904.59"/><polygon class="cls-6" points="1788.18 922.3 1758.04 915.26 1727.8 920.81 1756.15 972.36 1788.18 922.3 1788.18 922.3"/><polygon class="cls-7" points="1727.65 920.77 1727.65 959.32 1788.37 989.68 1844.98 933.59 1788.37 917.59 1757.3 910.92 1757.3 929.64 1727.65 920.77 1727.65 920.77"/><polygon class="cls-7" points="1717.57 808.89 1717.57 772.43 1683.77 789.33 1683.77 831.57 1697.31 828.67 1697.31 814.95 1717.57 808.89 1717.57 808.89"/><polygon class="cls-7" points="1757.3 797 1757.3 815.8 1788.37 809.14 1844.26 793.15 1788.37 737.05 1727.65 767.39 1727.65 805.87 1757.3 797 1757.3 797"/><polygon class="cls-8" points="1788.37 737 1788.37 809.14 1848.91 822.13 1848.91 767.27 1788.37 737 1788.37 737"/><polygon class="cls-8" points="1893.02 831.58 1893.02 789.32 1858.99 772.31 1858.99 824.29 1893.02 831.58 1893.02 831.58"/><polygon class="cls-8" points="1893.02 884.42 1893.02 842.19 1858.99 837.34 1858.99 889.27 1893.02 884.42 1893.02 884.42"/><polygon class="cls-8" points="1788.37 917.59 1788.37 989.64 1848.91 959.37 1848.91 904.59 1788.37 917.59 1788.37 917.59"/><polygon class="cls-8" points="1893.02 937.32 1893.02 895.11 1858.99 902.42 1858.99 954.33 1893.02 937.32 1893.02 937.32"/><polygon class="cls-6" points="1171.76 539.74 1072.98 552.02 1100.72 593.85 1203.41 543.69 1171.76 539.74 1171.76 539.74"/><polygon class="cls-9" points="1171.76 480.48 1270.55 468.2 1242.81 426.38 1140.11 476.54 1171.76 480.48 1171.76 480.48"/><polygon class="cls-7" points="1140.11 476.54 1242.81 459.88 1242.81 426.38 1140.11 454.16 1140.11 476.54 1140.11 476.54"/><polygon class="cls-7" points="1072.98 524.08 1171.76 533.96 1268.69 510.11 1171.76 486.27 1072.98 496.13 1072.98 524.08 1072.98 524.08"/><polygon class="cls-8" points="1270.55 524.08 1171.76 533.96 1171.76 486.27 1270.55 496.13 1270.55 524.08 1270.55 524.08"/><polygon class="cls-9" points="1072.98 468.2 1171.76 390.86 1224.35 454.34 1120.91 474.16 1072.98 468.2 1072.98 468.2"/><polygon class="cls-7" points="1072.98 440.26 1171.76 390.86 1171.76 438.56 1072.98 468.2 1072.98 440.26 1072.98 440.26"/><polygon class="cls-8" points="1242.81 426.38 1270.55 440.26 1270.55 468.2 1242.81 459.88 1242.81 426.38 1242.81 426.38"/><polygon class="cls-8" points="1203.41 543.69 1100.72 560.35 1100.72 593.85 1203.41 566.06 1203.41 543.69 1203.41 543.69"/><polygon class="cls-8" points="1224.35 454.34 1171.76 438.56 1171.76 390.86 1224.35 417.15 1224.35 454.34 1224.35 454.34"/><polygon class="cls-6" points="1270.55 552.03 1171.76 629.36 1119.18 565.88 1222.61 546.07 1270.55 552.03 1270.55 552.03"/><polygon class="cls-8" points="1270.55 579.96 1171.76 629.36 1171.76 581.66 1270.55 552.03 1270.55 579.96 1270.55 579.96"/><polygon class="cls-7" points="1119.18 565.88 1171.76 581.66 1171.76 629.36 1119.18 603.07 1119.18 565.88 1119.18 565.88"/><polygon class="cls-7" points="1100.72 593.85 1072.98 579.96 1072.98 552.02 1100.72 560.35 1100.72 593.85 1100.72 593.85"/><polygon class="cls-10" points="2284.38 44.56 2273.48 50.01 2273.48 203.89 2284.38 209.34 2327.36 130.15 2284.38 44.56 2284.38 44.56"/><polygon class="cls-10" points="2317.6 72.35 2333.66 49.61 2405.63 81.6 2388.85 84.26 2317.6 72.35 2317.6 72.35"/><polygon class="cls-10" points="2305.13 183.18 2322.8 207.48 2405.63 171.75 2389.64 169.27 2305.13 183.18 2305.13 183.18"/><polygon class="cls-11" points="2309.8 203.36 2284.38 209.34 2284.38 44.56 2309.8 50.37 2309.8 203.36 2309.8 203.36"/><polygon class="cls-10" points="2296.43 38.54 2309.8 31.85 2334.96 137.61 2309.8 222.04 2296.43 215.36 2296.43 38.54 2296.43 38.54"/><polygon class="cls-10" points="2388.73 169.13 2405.63 171.75 2421.1 128.68 2405.63 81.6 2388.73 84.28 2388.73 169.13 2388.73 169.13"/><polygon class="cls-11" points="2335.81 214.69 2309.8 222.04 2309.8 31.85 2335.81 39.23 2335.81 214.69 2335.81 214.69"/><polygon class="cls-11" points="2423.33 168.43 2309.8 189.52 2309.8 222.04 2423.33 189.95 2423.33 168.43 2423.33 168.43"/><polygon class="cls-11" points="2423.53 85 2309.8 63.4 2309.8 31.85 2423.53 64.14 2423.53 85 2423.53 85"/><polygon class="cls-11" points="2405.63 59.05 2423.86 64.08 2423.86 189.95 2405.63 194.96 2405.63 59.05 2405.63 59.05"/><polygon class="cls-12" points="2477.24 110.32 2428.41 112.62 2411.15 111.46 2460.53 71.66 2477.24 110.32 2477.24 110.32"/><polygon class="cls-10" points="2411.15 111.46 2460.53 108.65 2460.53 71.66 2411.15 79.67 2411.15 111.46 2411.15 111.46"/><polygon class="cls-12" points="2364.66 108.35 2414.7 57.91 2440.14 106.61 2388.27 109.93 2364.66 108.35 2364.66 108.35"/><polygon class="cls-10" points="2364.66 108.35 2414.7 104.07 2414.7 57.91 2364.66 69.61 2364.66 108.35 2364.66 108.35"/><polygon class="cls-10" points="2411.15 143.11 2477.24 144.24 2460.53 182.91 2411.15 174.89 2411.15 143.11 2411.15 143.11"/><polygon class="cls-10" points="2364.66 146.22 2440.14 147.95 2414.7 196.66 2364.66 184.96 2364.66 146.22 2364.66 146.22"/><polygon class="cls-13" points="2364.66 146.22 2414.7 150.5 2440.14 147.95 2388.27 144.64 2364.66 146.22 2364.66 146.22"/><polygon class="cls-13" points="2477.24 144.24 2428.41 141.95 2411.15 143.11 2460.53 145.91 2477.24 144.24 2477.24 144.24"/><polygon class="cls-11" points="2460.53 108.65 2477.24 110.32 2477.24 76.67 2460.53 71.66 2460.53 108.65 2460.53 108.65"/><polygon class="cls-11" points="2440.14 106.61 2414.7 104.07 2414.7 57.91 2440.14 65.54 2440.14 106.61 2440.14 106.61"/><polygon class="cls-11" points="2460.53 145.91 2477.24 144.24 2477.24 177.9 2460.53 182.91 2460.53 145.91 2460.53 145.91"/><polygon class="cls-11" points="2440.14 147.95 2414.7 150.5 2414.7 196.66 2440.14 189.02 2440.14 147.95 2440.14 147.95"/><polygon class="cls-8" points="1722.52 210.88 1684.89 201.57 1684.89 71.45 1722.52 64.16 1722.52 210.88 1722.52 210.88"/><polygon class="cls-6" points="1691.61 187.07 1789.33 259.55 1789.33 199.49 1722.52 182.72 1691.61 187.07 1691.61 187.07"/><polygon class="cls-7" points="1854.27 199.49 1891.28 201.57 1892.3 78.98 1854.27 66.86 1854.27 199.49 1854.27 199.49"/><polygon class="cls-9" points="1789.33 72.18 1722.52 87.76 1691.61 83.42 1789.33 12.85 1789.33 72.18 1789.33 72.18"/><polygon class="cls-6" points="1885.18 187.07 1787.46 255.17 1787.46 199.49 1854.27 182.72 1885.18 187.07 1885.18 187.07"/><polygon class="cls-9" points="1787.46 72.18 1854.27 87.76 1885.18 83.42 1788.39 9.98 1787.46 72.18 1787.46 72.18"/><path class="cls-7" d="M1755.82,206.34l-64.2-19.27V83.42l64.2-19.26V206.34ZM1788.26,0l-111,56,.05,158.5,110.92,56,28.26-133.39L1788.26,0Z"/><path class="cls-8" d="M1821,64.16l64.2,19.26V187.07L1821,206.34V64.16Zm-32.71,206.33,111.18-56,0-158.5L1788.26,0V270.49Z"/><path class="cls-14" d="M179.14,496.16c17,0,28.79,10.66,28.79,25.88v33H193v-22.4H189v22.4H166c-1.5-16.71-15-28.1-34-28.1h-13V517.9c14.54-1.31,26.13-6.88,27.42-21.67.47,0,.9-.07,1.36-.07Z"/><path class="cls-14" d="M84.66,496.2c.48,0,.94,0,1.4,0,1.29,14.79,12.87,20.36,27.39,21.67V527h-13c-19,0-32.55,11.39-34,28.1H44.11V532.72H40.06v22.35H24.42v-33c0-15.25,11.83-25.87,28.79-25.87Z"/><path class="cls-14" d="M131.93,540.9c17,0,28.79,10.66,28.79,25.87v33H145.78V577.43h-4v22.36H91.36V577.43H87.28v22.36H71.64v-33c0-15.21,11.82-25.87,28.78-25.87Z"/><path class="cls-14" d="M68.92,431.92,93.81,449.6v7.72c0,14.05-11.17,25.44-24.89,25.44s-24.81-11.39-24.81-26.61v-6.81l24.81-17.42Z"/><path class="cls-14" d="M163.39,431.92l24.89,17.68v7.72c0,14.05-11.17,25.44-24.89,25.44s-24.81-11.39-24.81-26.61v-6.81l24.81-17.42Z"/><path class="cls-14" d="M116.14,466.69l22.06,15.67v6.84a22.32,22.32,0,0,1-22.06,22.55c-12.14,0-22-10.09-22-23.59v-6l22-15.44Z"/><path class="cls-15" d="M163.43,424.18c13.69,0,24.85,11.39,24.85,25.4S177.12,475,163.43,475s-24.85-11.39-24.85-25.44,11.16-25.4,24.85-25.4Z"/><path class="cls-15" d="M116.17,458.93a22.55,22.55,0,0,1,0,45.09c-12.14,0-22-10.11-22-22.55s9.88-22.54,22-22.54Z"/><path class="cls-15" d="M179.14,488.42c17,0,28.79,10.66,28.79,25.87v33H193v-22.4H189v22.4H166c-1.5-16.71-15-28.1-34-28.1h-13v-2.83a30.54,30.54,0,0,0,27.42-27.91c.47,0,.9-.07,1.36-.07Z"/><path class="cls-15" d="M84.66,488.46c.48,0,.94,0,1.4,0a30.54,30.54,0,0,0,27.39,27.91v2.83h-13c-19,0-32.55,11.39-34,28.1H44.11V525H40.06v22.35H24.42v-33c0-15.25,11.83-25.87,28.79-25.87Z"/><path class="cls-15" d="M131.93,533.16c17,0,28.79,10.66,28.79,25.87v33H145.78V569.69h-4v22.36H91.36V569.69H87.28v22.36H71.64V559c0-15.21,11.82-25.87,28.78-25.87Z"/><path class="cls-15" d="M68.92,424.18c13.73,0,24.89,11.43,24.89,25.4S82.65,475,68.92,475s-24.81-11.39-24.81-25.44,11.12-25.4,24.81-25.4Z"/><path class="cls-10" d="M2474.1,866.86a98.74,98.74,0,1,1-98.74-98.74,98.74,98.74,0,0,1,98.74,98.74Z"/><polygon class="cls-10" points="2474.1 866.86 2276.62 866.86 2276.62 858.75 2474.1 858.75 2474.1 866.86 2474.1 866.86"/><path class="cls-11" d="M2474.1,858.75A98.74,98.74,0,1,1,2375.36,760a98.74,98.74,0,0,1,98.74,98.74Z"/><polygon class="cls-5" points="2381.75 848.03 2368.99 848.03 2362.16 789.22 2388.59 789.22 2381.75 848.03 2381.75 848.03"/><polygon class="cls-5" points="2432.47 891.36 2437.55 887.13 2419.1 859.56 2378.66 845.44 2375.36 867.76 2411.81 871.18 2432.47 891.36 2432.47 891.36"/><polygon class="cls-5" points="2318.26 891.36 2313.18 887.13 2331.63 859.56 2372.07 845.44 2375.37 867.76 2338.92 871.18 2318.26 891.36 2318.26 891.36"/><path class="cls-5" d="M2393.7,789.22a18.33,18.33,0,1,1-18.33-18.33,18.33,18.33,0,0,1,18.33,18.33Z"/><path class="cls-11" d="M2375.37,772.51a16.71,16.71,0,1,0,16.71,16.71,16.73,16.73,0,0,0-16.71-16.71Zm0,36.66a20,20,0,1,1,20-20,20,20,0,0,1-20,20Z"/><path class="cls-11" d="M2381.38,789.22a6,6,0,1,1-6-6,6,6,0,0,1,6,6Z"/><path class="cls-5" d="M2388.59,856.38a13.21,13.21,0,1,1-13.21-13.21,13.21,13.21,0,0,1,13.21,13.21Z"/><path class="cls-11" d="M2375.37,844.79A11.59,11.59,0,1,0,2387,856.38a11.6,11.6,0,0,0-11.59-11.59Zm0,26.43a14.84,14.84,0,1,1,14.84-14.84,14.85,14.85,0,0,1-14.84,14.84Z"/><path class="cls-11" d="M2379.44,856.38a4.07,4.07,0,1,1-4.07-4.07,4.07,4.07,0,0,1,4.07,4.07Z"/><polygon class="cls-5" points="2417.97 933.89 2332.75 933.89 2332.75 886.81 2417.97 886.81 2417.97 933.89 2417.97 933.89"/><polygon class="cls-13" points="2343.52 930.09 2337.03 930.09 2337.03 890.61 2343.52 890.61 2343.52 930.09 2343.52 930.09"/><polygon class="cls-13" points="2355.22 930.09 2348.73 930.09 2348.73 890.61 2355.22 890.61 2355.22 930.09 2355.22 930.09"/><polygon class="cls-13" points="2366.91 930.09 2360.42 930.09 2360.42 890.61 2366.91 890.61 2366.91 930.09 2366.91 930.09"/><polygon class="cls-13" points="2378.61 930.09 2372.11 930.09 2372.11 890.61 2378.61 890.61 2378.61 930.09 2378.61 930.09"/><polygon class="cls-13" points="2390.3 930.09 2383.81 930.09 2383.81 890.61 2390.3 890.61 2390.3 930.09 2390.3 930.09"/><polygon class="cls-13" points="2401.99 930.09 2395.5 930.09 2395.5 890.61 2401.99 890.61 2401.99 930.09 2401.99 930.09"/><polygon class="cls-13" points="2413.69 930.09 2407.2 930.09 2407.2 890.61 2413.69 890.61 2413.69 930.09 2413.69 930.09"/><path class="cls-16" d="M715.93,625.29c0,15.93-36.91,28.85-82.43,28.85s-82.43-12.91-82.43-28.85,36.9-28.85,82.43-28.85,82.43,12.92,82.43,28.85Z"/><g class="cls-17"><path class="cls-18" d="M715.93,625.29c0,15.93-36.91,28.85-82.43,28.85s-82.43-12.91-82.43-28.85,36.9-28.85,82.43-28.85,82.43,12.92,82.43,28.85Z"/></g><path class="cls-16" d="M539.33,540.46,537,548.75s-.62,3,2.2,3.53c2.95-.06,2.71-2.81,2.5-3.71l-2.33-8.11Z"/><path class="cls-19" d="M779,505.7l.22-1.08c-24.18-4.84-49-4.88-64-4.26,2.47-8.88,3.21-19.11,3.21-30.51,0-16.35-6.14-29.43-16.12-39.39,1.74-5.63,4.07-18.12-2.33-34.11,0,0-11.28-3.58-36.81,13.5a129.87,129.87,0,0,0-31.3-3.73,132,132,0,0,0-34.62,4.52c-26.34-18-38-14.29-38-14.29-7.59,19-2.9,33-1.47,36.52a52.89,52.89,0,0,0-14.37,37c0,11.37,1.3,21.58,4.46,30.45-15.14-.55-39.05-.34-62.37,4.32l.22,1.08c23.46-4.69,47.52-4.86,62.57-4.29a55.42,55.42,0,0,0,2.34,5.34c-14.88.48-40.29,2.38-64.64,9.25l.3,1.06c24.54-6.92,50.17-8.77,64.91-9.22,8.89,16.57,26.42,27.28,57.61,30.64-4.43,3-8.94,8-10.77,16.59-6,2.88-25.13,9.93-36.58-9.78,0,0-6.41-11.72-18.69-12.64,0,0-11.91-.18-.82,7.42,0,0,8,3.75,13.46,17.86,0,0,7.17,24.06,41.78,16.34v24.86s-.73,8.79-8.79,11.72c0,0-4.76,3.3.37,5.13,0,0,22.34,1.83,22.34-16.48V572.39s-.88-10.75,4.39-14.48v44.52s-.36,10.62-5.86,14.65c0,0-3.66,6.59,4.39,4.76,0,0,15.38-2.2,16.12-20.15l.35-45.05h3.7l.35,45.05c.73,17.95,16.12,20.15,16.12,20.15,8.06,1.83,4.39-4.76,4.39-4.76-5.49-4-5.86-14.65-5.86-14.65V558.28c5.28,4.11,4.39,14.1,4.39,14.1v27.11c0,18.31,22.34,16.48,22.34,16.48,5.13-1.83.37-5.13.37-5.13-8.06-2.93-8.79-11.72-8.79-11.72V563.59c0-13.86-5.83-21.19-11.54-25.06,33.26-3.3,49.22-14,56.57-30.72,14.57.4,40.78,2.17,65.86,9.25l.3-1.06c-24.93-7-51-8.85-65.69-9.28a54.91,54.91,0,0,0,1.85-5.24c14.91-.64,39.84-.63,64.11,4.22Z"/><path class="cls-20" d="M685.85,469.08c7.16,6.49,11.35,14.33,11.35,22.77,0,39.42-29.39,40.49-65.64,40.49s-65.64-5.46-65.64-40.49c0-8.39,4.13-16.18,11.21-22.64,11.8-10.77,31.77-5.07,54.43-5.07s42.47-5.76,54.28,4.94Z"/><path class="cls-5" d="M609.74,493.86c0,10.86-6.12,19.66-13.66,19.66s-13.66-8.8-13.66-19.66,6.12-19.66,13.66-19.66,13.66,8.8,13.66,19.66Z"/><path class="cls-21" d="M605.36,494.11c0,7.24-4.08,13.1-9.11,13.1s-9.11-5.87-9.11-13.1S591.22,481,596.26,481s9.11,5.87,9.11,13.11Z"/><path class="cls-5" d="M683,493.86c0,10.86-6.12,19.66-13.66,19.66s-13.66-8.8-13.66-19.66,6.11-19.66,13.66-19.66S683,483,683,493.86Z"/><path class="cls-21" d="M678.63,494.11c0,7.24-4.08,13.1-9.11,13.1s-9.1-5.87-9.1-13.1S664.5,481,669.52,481s9.11,5.87,9.11,13.11Z"/><path class="cls-21" d="M635.18,511.32a3.42,3.42,0,1,1-3.42-3.42,3.42,3.42,0,0,1,3.42,3.42Z"/><path class="cls-21" d="M623.8,520a1.1,1.1,0,0,1,2.07-.73,6.21,6.21,0,0,0,11.72,0,1.1,1.1,0,0,1,2.07.73,8.41,8.41,0,0,1-15.86,0Z"/><path class="cls-22" d="M548.08,535.57c0,.91-1.07,1.65-2.38,1.65s-2.38-.74-2.38-1.65,1.07-1.65,2.38-1.65,2.38.74,2.38,1.65Z"/><path class="cls-22" d="M554.67,539.24c0,.91-1.07,1.65-2.38,1.65s-2.38-.74-2.38-1.65,1.07-1.65,2.38-1.65,2.38.74,2.38,1.65Z"/><path class="cls-22" d="M558.7,544c0,.91-1.07,1.65-2.38,1.65s-2.38-.74-2.38-1.65,1.07-1.65,2.38-1.65,2.38.74,2.38,1.65Z"/><path class="cls-22" d="M562.37,549.5c0,.91-1.07,1.65-2.38,1.65s-2.38-.74-2.38-1.65,1.07-1.65,2.38-1.65,2.38.74,2.38,1.65Z"/><path class="cls-22" d="M566.4,554.63c0,.91-1.07,1.65-2.38,1.65s-2.38-.74-2.38-1.65S562.7,553,564,553s2.38.74,2.38,1.65Z"/><path class="cls-22" d="M571.89,559c0,.91-1.07,1.65-2.38,1.65s-2.38-.74-2.38-1.65,1.07-1.65,2.38-1.65,2.38.74,2.38,1.65Z"/><path class="cls-22" d="M579.59,562c0,.91-1.07,1.65-2.38,1.65s-2.38-.74-2.38-1.65,1.07-1.65,2.38-1.65,2.38.74,2.38,1.65Z"/><path class="cls-22" d="M587.24,562c0,.91-1.07,1.65-2.38,1.65s-2.38-.74-2.38-1.65,1.07-1.65,2.38-1.65,2.38.74,2.38,1.65Z"/><path class="cls-22" d="M595,560.68c0,.91-1.07,1.65-2.38,1.65s-2.38-.74-2.38-1.65,1.07-1.65,2.38-1.65,2.38.74,2.38,1.65Z"/><circle class="cls-4" cx="2375.36" cy="614.76" r="36.53"/><path class="cls-5" d="M2379.59,602.65H2365.2V598h20.42v3.35c-7.12,8.85-8.37,15.21-8.89,27.07h-5.6C2371.65,617.62,2373.71,610.83,2379.59,602.65Z"/></g></g></svg>