<svg xmlns="http://www.w3.org/2000/svg" viewBox="0 0 3753.23 859.07"><defs><style>.cls-1{fill:#4989c8;}.cls-2{font-size:75.96px;fill:#fff;}.cls-12,.cls-2{font-family:SourceSansPro-Regular, Source Sans Pro;}.cls-3{fill:#5ac2ad;}.cls-4{fill:#4dc6e0;}.cls-5{letter-spacing:-0.07em;}.cls-6{fill:#febd45;}.cls-7{letter-spacing:0em;}.cls-8{fill:#f79158;}.cls-9{letter-spacing:-0.01em;}.cls-10{fill:#e56283;}.cls-11{letter-spacing:-0.01em;}.cls-12{font-size:70.99px;fill:#6d6e71;}.cls-13{letter-spacing:-0.02em;}.cls-14{letter-spacing:-0.01em;}.cls-15{letter-spacing:-0.02em;}.cls-16{letter-spacing:-0.02em;}.cls-17{letter-spacing:-0.01em;}.cls-18{letter-spacing:0.02em;}.cls-19{letter-spacing:-0.02em;}.cls-20{letter-spacing:0em;}.cls-21{letter-spacing:0em;}.cls-22{letter-spacing:-0.01em;}.cls-23{letter-spacing:-0.02em;}</style></defs><title>structure</title><g id="Layer_2" data-name="Layer 2"><g id="Layer_1-2" data-name="Layer 1"><polygon class="cls-1" points="577.47 395.98 676.47 197.99 577.47 0 0 0 0 395.98 577.47 395.98"/><text class="cls-2" transform="translate(256.23 223.25)">Code</text><polygon class="cls-3" points="1192.24 395.98 1291.23 197.99 1192.24 0 614.77 0 709.23 197.99 614.77 395.98 1192.24 395.98"/><text class="cls-2" transform="translate(870.09 223.25)">Build</text><polygon class="cls-4" points="1808.24 395.98 1907.23 197.99 1808.24 0 1230.77 0 1325.23 197.99 1230.77 395.98 1808.24 395.98"/><text class="cls-2" transform="translate(1503.75 223.25)"><tspan class="cls-5">T</tspan><tspan x="35.32" y="0">est</tspan></text><polygon class="cls-6" points="2422.24 395.98 2521.23 197.99 2422.24 0 1844.77 0 1939.23 197.99 1844.77 395.98 2422.24 395.98"/><text class="cls-2" transform="translate(2071.98 223.25)">Depl<tspan class="cls-7" x="145.69" y="0">o</tspan><tspan x="186.56" y="0">y</tspan></text><polygon class="cls-8" points="3036.24 395.98 3135.23 197.99 3036.24 0 2458.77 0 2553.23 197.99 2458.77 395.98 3036.24 395.98"/><text class="cls-2" transform="translate(2648.38 223.25)">P<tspan class="cls-9" x="43.37" y="0">r</tspan><tspan class="cls-7" x="68.97" y="0">o</tspan><tspan x="109.84" y="0">vision</tspan></text><polygon class="cls-10" points="3654.24 395.98 3753.23 197.99 3654.24 0 3076.77 0 3171.23 197.99 3076.77 395.98 3654.24 395.98"/><text class="cls-2" transform="translate(3290.65 223.25)">Moni<tspan class="cls-11" x="156.25" y="0">t</tspan><tspan x="181.17" y="0">or</tspan></text><text class="cls-12" transform="translate(3140 505.12)">E<tspan class="cls-13" x="37.05" y="0">C</tspan><tspan x="75.53" y="0">S moni</tspan><tspan class="cls-14" x="281.03" y="0">t</tspan><tspan x="304.32" y="0">o</tspan><tspan class="cls-14" x="342.79" y="0">r</tspan><tspan x="366.71" y="0">s</tspan><tspan class="cls-15" x="0" y="82.76">c</tspan><tspan x="30.88" y="82.76">on</tspan><tspan class="cls-16" x="108.18" y="82.76">t</tspan><tspan x="130.9" y="82.76">ainer h</tspan><tspan class="cls-17" x="336.33" y="82.76">e</tspan><tspan x="370.54" y="82.76">alth</tspan></text><text class="cls-12" transform="translate(2524 505.12)">E<tspan class="cls-13" x="37.05" y="0">C</tspan><tspan x="75.53" y="0">S Se</tspan><tspan class="cls-18" x="200.18" y="0">r</tspan><tspan x="226.16" y="0">vi</tspan><tspan class="cls-19" x="276.77" y="0">c</tspan><tspan x="307.65" y="0">e</tspan><tspan x="0" y="82.76">depl</tspan><tspan class="cls-20" x="132.1" y="82.76">oy</tspan><tspan class="cls-21" x="203.16" y="82.76">ed</tspan></text><text class="cls-12" transform="translate(1911 505.12)">CodePipeline<tspan x="0" y="82.76">upda</tspan><tspan class="cls-14" x="153.75" y="82.76">t</tspan><tspan x="177.04" y="82.76">es</tspan><tspan x="0" y="165.51">Cloud</tspan><tspan class="cls-22" x="174.77" y="165.51">F</tspan><tspan x="208.48" y="165.51">ormation</tspan><tspan x="0" y="248.27">E</tspan><tspan class="cls-13" x="37.05" y="248.27">C</tspan><tspan x="75.53" y="248.27">S </tspan><tspan class="cls-23" x="127.42" y="248.27">t</tspan><tspan x="150.14" y="248.27">ask</tspan><tspan x="0" y="331.02">definition</tspan></text><text class="cls-12" transform="translate(1300 505.12)">CodeBuild runs<tspan class="cls-14" x="0" y="82.76">t</tspan><tspan x="23.28" y="82.76">ests</tspan></text><text class="cls-12" transform="translate(678 505.12)">CodeBuild builds<tspan x="0" y="82.76">Doc</tspan><tspan class="cls-16" x="114.29" y="82.76">k</tspan><tspan x="148.15" y="82.76">er ima</tspan><tspan class="cls-22" x="334.98" y="82.76">g</tspan><tspan x="369.76" y="82.76">e</tspan></text><text class="cls-12" transform="translate(67 505.12)">Push <tspan class="cls-15" x="161.85" y="0">c</tspan><tspan x="192.73" y="0">ode </tspan><tspan class="cls-14" x="320.14" y="0">t</tspan><tspan x="343.43" y="0">o</tspan><tspan x="0" y="82.76">GitHub</tspan></text></g></g></svg>