<svg xmlns="http://www.w3.org/2000/svg" viewBox="0 0 3753.23 837"><defs><style>.cls-1{fill:#4989c8;}.cls-2{fill:#fff;}.cls-3{fill:#5ac2ad;}.cls-4{fill:#4dc6e0;}.cls-5{fill:#febd45;}.cls-6{fill:#f79158;}.cls-7{fill:#e56283;}.cls-8{fill:#6d6e71;}</style></defs><title>structure_1</title><g id="Layer_2" data-name="Layer 2"><g id="Layer_1-2" data-name="Layer 1"><polygon class="cls-1" points="577.47 395.98 676.47 197.99 577.47 0 0 0 0 395.98 577.47 395.98"/><path class="cls-2" d="M282.21,172.51a18.4,18.4,0,0,1,13.6,6.15l-3.57,4a13.31,13.31,0,0,0-10-4.63c-9.49,0-15.8,7.75-15.8,20.13,0,12.53,6,20.43,15.5,20.43,4.71,0,8.2-2,11.39-5.54l3.57,3.87a19.09,19.09,0,0,1-15.12,7.22c-12.53,0-21.88-9.57-21.88-25.83C260,182.31,269.45,172.51,282.21,172.51Z"/><path class="cls-2" d="M319.81,185.42c9,0,17.09,7.06,17.09,19.45,0,12.23-8.05,19.29-17.09,19.29s-17.09-7.06-17.09-19.29C302.72,192.49,310.77,185.42,319.81,185.42Zm0,33.57c6.38,0,10.63-5.7,10.63-14.13s-4.25-14.28-10.63-14.28-10.63,5.77-10.63,14.28S313.51,219,319.81,219Z"/><path class="cls-2" d="M360,185.42c4.25,0,7.06,1.6,10.33,4.25l-.3-6.3v-14.2h6.3v54.08h-5.17l-.53-4.33h-.23c-2.89,2.81-6.84,5.24-11.17,5.24-9.27,0-15.27-7-15.27-19.29C344,192.87,351.56,185.42,360,185.42Zm.61,33.5c3.42,0,6.38-1.67,9.42-5.09V194.54c-3.11-2.81-5.92-3.87-9-3.87-5.92,0-10.63,5.7-10.63,14.13C350.42,213.6,354.15,218.92,360.6,218.92Z"/><path class="cls-2" d="M402.61,185.42c9.42,0,14.74,6.76,14.74,17.32a22,22,0,0,1-.23,3.42H392.2c.46,8,5.24,13,12.31,13a16.68,16.68,0,0,0,9.19-2.89l2.2,4.1a22,22,0,0,1-12.15,3.8c-9.87,0-17.7-7.22-17.7-19.29S394.18,185.42,402.61,185.42Zm9.27,16.63c0-7.52-3.34-11.7-9.11-11.7-5.17,0-9.87,4.25-10.63,11.7Z"/><polygon class="cls-3" points="1192.24 395.98 1291.23 197.99 1192.24 0 614.77 0 709.23 197.99 614.77 395.98 1192.24 395.98"/><path class="cls-2" d="M876.7,173.42h14.81c10.1,0,17.17,3.42,17.17,12.15,0,4.94-2.81,9.34-8.74,10.86v.3c7.29,1.14,11.55,5.09,11.55,11.93,0,9.8-7.75,14.58-18.84,14.58h-16Zm13.75,21.27c8.43,0,12-3,12-8.58,0-5.39-4-7.67-11.7-7.67h-7.67v16.25Zm1.29,23.55c8.51,0,13.52-3.11,13.52-9.87,0-6.15-4.79-9-13.52-9h-8.66v18.84Z"/><path class="cls-2" d="M920.07,186.33h6.3v22.56c0,6.91,2.05,9.87,6.91,9.87,3.8,0,6.46-1.9,10-6.23V186.33h6.23v36.92H944.3l-.53-5.77h-.23c-3.42,4-7.06,6.68-12.15,6.68-7.82,0-11.32-5-11.32-14.43Z"/><path class="cls-2" d="M960.79,174.71a4.34,4.34,0,0,1,8.66,0,4.34,4.34,0,0,1-8.66,0Zm1.14,11.62h6.23v36.92h-6.23Z"/><path class="cls-2" d="M980.61,169.17h6.23v47.09c0,2,.84,2.73,1.75,2.73a5.23,5.23,0,0,0,1.37-.15l.84,4.71a8.38,8.38,0,0,1-3.57.61c-4.71,0-6.61-3-6.61-8.36Z"/><path class="cls-2" d="M1013.35,185.42c4.25,0,7.06,1.6,10.33,4.25l-.3-6.3v-14.2h6.3v54.08h-5.17l-.53-4.33h-.23c-2.89,2.81-6.84,5.24-11.17,5.24-9.27,0-15.27-7-15.27-19.29C997.32,192.87,1004.92,185.42,1013.35,185.42Zm.61,33.5c3.42,0,6.38-1.67,9.42-5.09V194.54c-3.11-2.81-5.92-3.87-9-3.87-5.92,0-10.63,5.7-10.63,14.13C1003.78,213.6,1007.5,218.92,1014,218.92Z"/><polygon class="cls-4" points="1808.24 395.98 1907.23 197.99 1808.24 0 1230.77 0 1325.23 197.99 1230.77 395.98 1808.24 395.98"/><path class="cls-2" d="M1520.76,178.74h-15.12v-5.32h36.54v5.32h-15.12v44.51h-6.3Z"/><path class="cls-2" d="M1559.13,185.42c9.42,0,14.74,6.76,14.74,17.32a22,22,0,0,1-.23,3.42h-24.91c.46,8,5.24,13,12.31,13a16.68,16.68,0,0,0,9.19-2.89l2.2,4.1a22,22,0,0,1-12.15,3.8c-9.87,0-17.7-7.22-17.7-19.29S1550.69,185.42,1559.13,185.42Zm9.27,16.63c0-7.52-3.34-11.7-9.11-11.7-5.17,0-9.87,4.25-10.63,11.7Z"/><path class="cls-2" d="M1582,214.89c3.19,2.58,6.46,4.41,10.86,4.41,4.86,0,7.29-2.58,7.29-5.77,0-3.8-4.41-5.47-8.43-7-5.24-1.9-11-4.41-11-10.63,0-5.92,4.71-10.48,12.69-10.48a18.43,18.43,0,0,1,11.47,4.18l-3,3.95a13.71,13.71,0,0,0-8.43-3.27c-4.63,0-6.76,2.51-6.76,5.32,0,3.42,4,4.79,8.2,6.38,5.32,2,11.24,4.18,11.24,11.17,0,6-4.79,11-13.52,11a22.22,22.22,0,0,1-13.75-5.09Z"/><path class="cls-2" d="M1615.87,191.42h-5.47v-4.71l5.77-.38.76-10.33h5.24v10.33h10v5.09h-10v20.51c0,4.56,1.44,7.14,5.7,7.14a13.42,13.42,0,0,0,4.18-1l1.22,4.71a22.79,22.79,0,0,1-6.84,1.37c-7.9,0-10.56-5-10.56-12.31Z"/><polygon class="cls-5" points="2422.24 395.98 2521.23 197.99 2422.24 0 1844.77 0 1939.23 197.99 1844.77 395.98 2422.24 395.98"/><path class="cls-2" d="M2078.59,173.42H2091c15.34,0,23.55,8.89,23.55,24.69s-8.2,25.14-23.24,25.14h-12.76Zm12,44.66c11.7,0,17.47-7.37,17.47-20s-5.77-19.52-17.47-19.52H2085v39.5Z"/><path class="cls-2" d="M2138.53,185.42c9.42,0,14.74,6.76,14.74,17.32a22,22,0,0,1-.23,3.42h-24.91c.46,8,5.24,13,12.31,13a16.68,16.68,0,0,0,9.19-2.89l2.2,4.1a22,22,0,0,1-12.15,3.8c-9.87,0-17.7-7.22-17.7-19.29S2130.09,185.42,2138.53,185.42Zm9.27,16.63c0-7.52-3.34-11.7-9.11-11.7-5.17,0-9.87,4.25-10.63,11.7Z"/><path class="cls-2" d="M2168.61,226.36v12.46h-6.23V186.33h5.17l.53,4.25h.23c3.34-2.81,7.44-5.17,11.77-5.17,9.5,0,14.58,7.37,14.58,18.84,0,12.53-7.52,19.9-16,19.9-3.42,0-6.84-1.6-10.25-4.25Zm9-7.44c6.08,0,10.56-5.54,10.56-14.66,0-8.13-2.73-13.6-9.72-13.6-3.11,0-6.23,1.75-9.87,5V215C2171.95,217.86,2175.21,218.92,2177.64,218.92Z"/><path class="cls-2" d="M2204.54,169.17h6.23v47.09c0,2,.84,2.73,1.75,2.73a5.23,5.23,0,0,0,1.37-.15l.84,4.71a8.39,8.39,0,0,1-3.57.61c-4.71,0-6.61-3-6.61-8.36Z"/><path class="cls-2" d="M2238.26,185.42c9,0,17.09,7.06,17.09,19.45,0,12.23-8.05,19.29-17.09,19.29s-17.09-7.06-17.09-19.29C2221.17,192.49,2229.22,185.42,2238.26,185.42Zm0,33.57c6.38,0,10.63-5.7,10.63-14.13s-4.25-14.28-10.63-14.28-10.63,5.77-10.63,14.28S2232,219,2238.26,219Z"/><path class="cls-2" d="M2265.08,234c4.18,0,6.84-3.34,8.36-7.9l.84-2.73-14.81-37h6.46l7.52,20.43c1.14,3.19,2.43,7,3.57,10.41h.3c1.06-3.34,2.13-7.14,3.11-10.41l6.61-20.43h6.08l-13.9,40c-2.58,7.29-6.38,12.84-13.82,12.84a12.26,12.26,0,0,1-4.33-.76l1.22-4.94A10.85,10.85,0,0,0,2265.08,234Z"/><polygon class="cls-6" points="3036.24 395.98 3135.23 197.99 3036.24 0 2458.77 0 2553.23 197.99 2458.77 395.98 3036.24 395.98"/><path class="cls-2" d="M2655,173.42h15.34c11,0,18.38,3.72,18.38,14.66,0,10.48-7.52,15.42-18.38,15.42h-9v19.75H2655Zm14.51,24.91c8.74,0,12.91-3.19,12.91-10.25,0-7.22-4.33-9.57-12.91-9.57h-8.13v19.83Z"/><path class="cls-2" d="M2698,186.33h5.17l.53,6.68h.23c2.51-4.63,6.3-7.6,10.48-7.6a9.17,9.17,0,0,1,3.95.76l-1.22,5.47a10.33,10.33,0,0,0-3.57-.61c-3.11,0-6.84,2.28-9.34,8.51v23.7H2698Z"/><path class="cls-2" d="M2737.94,185.42c9,0,17.09,7.06,17.09,19.45,0,12.23-8.05,19.29-17.09,19.29s-17.09-7.06-17.09-19.29C2720.85,192.49,2728.9,185.42,2737.94,185.42Zm0,33.57c6.38,0,10.63-5.7,10.63-14.13s-4.25-14.28-10.63-14.28-10.63,5.77-10.63,14.28S2731.64,219,2737.94,219Z"/><path class="cls-2" d="M2759.13,186.33h6.46l7,21c1.06,3.65,2.28,7.37,3.42,10.86h.3c1.06-3.49,2.28-7.22,3.34-10.86l7-21h6.15l-13.06,36.92h-7.29Z"/><path class="cls-2" d="M2798.79,174.71a4.34,4.34,0,0,1,8.66,0,4.34,4.34,0,0,1-8.66,0Zm1.14,11.62h6.23v36.92h-6.23Z"/><path class="cls-2" d="M2817.62,214.89c3.19,2.58,6.46,4.41,10.86,4.41,4.86,0,7.29-2.58,7.29-5.77,0-3.8-4.41-5.47-8.43-7-5.24-1.9-11-4.41-11-10.63,0-5.92,4.71-10.48,12.69-10.48a18.43,18.43,0,0,1,11.47,4.18l-3,3.95a13.71,13.71,0,0,0-8.43-3.27c-4.63,0-6.76,2.51-6.76,5.32,0,3.42,4,4.79,8.2,6.38,5.32,2,11.24,4.18,11.24,11.17,0,6-4.79,11-13.52,11a22.22,22.22,0,0,1-13.75-5.09Z"/><path class="cls-2" d="M2849.3,174.71a4.34,4.34,0,0,1,8.66,0,4.34,4.34,0,0,1-8.66,0Zm1.14,11.62h6.23v36.92h-6.23Z"/><path class="cls-2" d="M2883.48,185.42c9,0,17.09,7.06,17.09,19.45,0,12.23-8.05,19.29-17.09,19.29s-17.09-7.06-17.09-19.29C2866.39,192.49,2874.44,185.42,2883.48,185.42Zm0,33.57c6.38,0,10.63-5.7,10.63-14.13s-4.25-14.28-10.63-14.28-10.63,5.77-10.63,14.28S2877.18,219,2883.48,219Z"/><path class="cls-2" d="M2910.3,186.33h5.17l.53,5.32h.23c3.49-3.49,7.29-6.23,12.38-6.23,7.75,0,11.24,5,11.24,14.43v23.4h-6.23V200.69c0-6.91-2.13-9.87-7-9.87-3.8,0-6.38,2-10.1,5.7v26.74h-6.23Z"/><polygon class="cls-7" points="3654.24 395.98 3753.23 197.99 3654.24 0 3076.77 0 3171.23 197.99 3076.77 395.98 3654.24 395.98"/><path class="cls-2" d="M3297.26,173.42h7.52l9.65,26.74,3.57,10.18h.3l3.49-10.18,9.57-26.74h7.44v49.83h-6V195.83c0-4.41.53-10.33.84-14.74h-.3l-3.95,11.09-9.57,26.05h-3.65l-9.57-26.05-3.95-11.09h-.3c.3,4.41.76,10.33.76,14.74v27.42h-5.85Z"/><path class="cls-2" d="M3366.08,185.42c9,0,17.09,7.06,17.09,19.45,0,12.23-8.05,19.29-17.09,19.29S3349,217.1,3349,204.87C3349,192.49,3357,185.42,3366.08,185.42Zm0,33.57c6.38,0,10.63-5.7,10.63-14.13s-4.25-14.28-10.63-14.28-10.63,5.77-10.63,14.28S3359.78,219,3366.08,219Z"/><path class="cls-2" d="M3392.9,186.33h5.17l.53,5.32h.23c3.49-3.49,7.29-6.23,12.38-6.23,7.75,0,11.24,5,11.24,14.43v23.4h-6.23V200.69c0-6.91-2.13-9.87-7-9.87-3.8,0-6.38,2-10.1,5.7v26.74h-6.23Z"/><path class="cls-2" d="M3433.31,174.71a4.34,4.34,0,0,1,8.66,0,4.34,4.34,0,0,1-8.66,0Zm1.14,11.62h6.23v36.92h-6.23Z"/><path class="cls-2" d="M3454.2,191.42h-5.47v-4.71l5.77-.38.76-10.33h5.24v10.33h10v5.09h-10v20.51c0,4.56,1.44,7.14,5.7,7.14a13.42,13.42,0,0,0,4.18-1l1.22,4.71a22.79,22.79,0,0,1-6.84,1.37c-7.9,0-10.56-5-10.56-12.31Z"/><path class="cls-2" d="M3492.4,185.42c9,0,17.09,7.06,17.09,19.45,0,12.23-8.05,19.29-17.09,19.29s-17.09-7.06-17.09-19.29C3475.31,192.49,3483.37,185.42,3492.4,185.42Zm0,33.57c6.38,0,10.63-5.7,10.63-14.13s-4.25-14.28-10.63-14.28-10.63,5.77-10.63,14.28S3486.1,219,3492.4,219Z"/><path class="cls-2" d="M3519.22,186.33h5.17l.53,6.68h.23c2.51-4.63,6.3-7.6,10.48-7.6a9.17,9.17,0,0,1,3.95.76l-1.22,5.47a10.33,10.33,0,0,0-3.57-.61c-3.11,0-6.84,2.28-9.34,8.51v23.7h-6.23Z"/><path class="cls-8" d="M3146.18,458.55H3173v5h-20.87v14.62h17.6v5h-17.6v16.89h21.58v5h-27.54Z"/><path class="cls-8" d="M3201.33,457.7a17.2,17.2,0,0,1,12.71,5.75l-3.34,3.76a12.44,12.44,0,0,0-9.3-4.33c-8.87,0-14.76,7.24-14.76,18.81s5.61,19.09,14.48,19.09c4.4,0,7.67-1.85,10.65-5.18l3.34,3.62A17.84,17.84,0,0,1,3201,506c-11.71,0-20.44-8.94-20.44-24.13C3180.53,466.86,3189.41,457.7,3201.33,457.7Z"/><path class="cls-8" d="M3221.92,495a18.11,18.11,0,0,0,12.85,5.82c6.1,0,9.72-3.05,9.72-7.6,0-4.76-3.41-6.25-7.81-8.23l-6.67-2.91c-4.33-1.85-9.44-5.18-9.44-12,0-7.1,6.25-12.35,14.69-12.35a19,19,0,0,1,13.7,5.75l-3.12,3.83a15,15,0,0,0-10.58-4.4c-5.25,0-8.73,2.63-8.73,6.81,0,4.47,4.12,6.18,7.74,7.74l6.67,2.84c5.4,2.34,9.58,5.54,9.58,12.42,0,7.38-6.1,13.27-15.9,13.27a22.42,22.42,0,0,1-16.26-6.89Z"/><path class="cls-8" d="M3273.24,470.62h4.83l.5,5h.21c3-3.27,6.6-5.82,10.72-5.82,5.25,0,8.09,2.48,9.51,6.6,3.62-3.9,7.17-6.6,11.36-6.6,7.1,0,10.51,4.69,10.51,13.49v21.86h-5.82V484c0-6.46-2.06-9.23-6.39-9.23-2.7,0-5.47,1.77-8.66,5.32v25h-5.82V484c0-6.46-2.06-9.23-6.46-9.23-2.56,0-5.47,1.77-8.66,5.32v25h-5.82Z"/><path class="cls-8" d="M3345.5,469.77c8.45,0,16,6.6,16,18.17s-7.52,18-16,18-16-6.6-16-18S3337.06,469.77,3345.5,469.77Zm0,31.38c6,0,9.94-5.32,9.94-13.2s-4-13.34-9.94-13.34-9.94,5.39-9.94,13.34S3339.61,501.15,3345.5,501.15Z"/><path class="cls-8" d="M3370.56,470.62h4.83l.5,5h.21c3.27-3.27,6.81-5.82,11.57-5.82,7.24,0,10.51,4.69,10.51,13.49v21.86h-5.82V484c0-6.46-2-9.23-6.53-9.23-3.55,0-6,1.85-9.44,5.32v25h-5.82Z"/><path class="cls-8" d="M3408.33,459.76a4.06,4.06,0,0,1,8.09,0,4.06,4.06,0,0,1-8.09,0Zm1.06,10.86h5.82v34.5h-5.82Z"/><path class="cls-8" d="M3427.85,475.38h-5.11V471l5.4-.35.71-9.65h4.9v9.65h9.3v4.76h-9.3v19.17c0,4.26,1.35,6.67,5.32,6.67a12.52,12.52,0,0,0,3.9-.92l1.14,4.4a21.3,21.3,0,0,1-6.39,1.28c-7.38,0-9.87-4.68-9.87-11.5Z"/><path class="cls-8" d="M3463.55,469.77c8.45,0,16,6.6,16,18.17s-7.52,18-16,18-16-6.6-16-18S3455.11,469.77,3463.55,469.77Zm0,31.38c6,0,9.94-5.32,9.94-13.2s-4-13.34-9.94-13.34-9.94,5.39-9.94,13.34S3457.66,501.15,3463.55,501.15Z"/><path class="cls-8" d="M3488.61,470.62h4.83l.5,6.25h.21c2.34-4.33,5.89-7.1,9.8-7.1a8.56,8.56,0,0,1,3.69.71l-1.14,5.11a9.65,9.65,0,0,0-3.34-.57c-2.91,0-6.39,2.13-8.73,8v22.15h-5.82Z"/><path class="cls-8" d="M3511.61,497.31c3,2.41,6,4.12,10.15,4.12,4.54,0,6.81-2.41,6.81-5.39,0-3.55-4.12-5.11-7.88-6.53-4.9-1.77-10.29-4.12-10.29-9.94,0-5.54,4.4-9.8,11.85-9.8a17.22,17.22,0,0,1,10.72,3.9l-2.77,3.69a12.81,12.81,0,0,0-7.88-3.05c-4.33,0-6.32,2.34-6.32,5,0,3.19,3.76,4.47,7.67,6,5,1.85,10.51,3.9,10.51,10.43,0,5.61-4.47,10.29-12.64,10.29a20.76,20.76,0,0,1-12.85-4.76Z"/><path class="cls-8" d="M3159.88,552.53a14.22,14.22,0,0,1,10.08,4.12l-2.91,3.76c-2.06-1.77-4.19-3.05-7-3.05-6.25,0-10.79,5.39-10.79,13.34s4.33,13.2,10.65,13.2a12.3,12.3,0,0,0,8.09-3.48l2.63,3.83a17.08,17.08,0,0,1-11.22,4.47c-9.16,0-16.18-6.6-16.18-18S3151,552.53,3159.88,552.53Z"/><path class="cls-8" d="M3190.12,552.53c8.45,0,16,6.6,16,18.17s-7.52,18-16,18-16-6.6-16-18S3181.67,552.53,3190.12,552.53Zm0,31.38c6,0,9.94-5.32,9.94-13.2s-4-13.34-9.94-13.34-9.94,5.39-9.94,13.34S3184.22,583.9,3190.12,583.9Z"/><path class="cls-8" d="M3215.17,553.38H3220l.5,5h.21c3.27-3.27,6.81-5.82,11.57-5.82,7.24,0,10.51,4.69,10.51,13.49v21.86H3237V566.79c0-6.46-2-9.23-6.53-9.23-3.55,0-6,1.85-9.44,5.32v25h-5.82Z"/><path class="cls-8" d="M3255,558.13h-5.11v-4.4l5.4-.35.71-9.65h4.9v9.65h9.3v4.76h-9.3V577.3c0,4.26,1.35,6.67,5.32,6.67a12.52,12.52,0,0,0,3.9-.92l1.14,4.4a21.3,21.3,0,0,1-6.39,1.28c-7.38,0-9.87-4.68-9.87-11.5Z"/><path class="cls-8" d="M3296.24,566c0-4.4-1.49-8.66-7.1-8.66-4,0-7.6,1.85-10.29,3.69l-2.34-4c3.19-2.06,8-4.47,13.56-4.47,8.45,0,12,5.61,12,14.2v21.15h-4.83l-.5-4.12h-.14c-3.34,2.7-7.17,5-11.43,5-5.82,0-10.15-3.62-10.15-9.8C3275,571.41,3281.55,567.65,3296.24,566Zm-9.44,18c3.34,0,6.1-1.63,9.44-4.61v-9.58c-11.57,1.42-15.47,4.26-15.47,8.66C3280.77,582.41,3283.39,584,3286.8,584Z"/><path class="cls-8" d="M3312,542.52a4.06,4.06,0,0,1,8.09,0,4.06,4.06,0,0,1-8.09,0Zm1.06,10.86h5.82v34.5h-5.82Z"/><path class="cls-8" d="M3330.53,553.38h4.83l.5,5h.21c3.27-3.27,6.81-5.82,11.57-5.82,7.24,0,10.51,4.69,10.51,13.49v21.86h-5.82V566.79c0-6.46-2-9.23-6.53-9.23-3.55,0-6,1.85-9.44,5.32v25h-5.82Z"/><path class="cls-8" d="M3382.27,552.53c8.8,0,13.77,6.32,13.77,16.18a20.62,20.62,0,0,1-.21,3.19h-23.28c.43,7.45,4.9,12.14,11.5,12.14a15.59,15.59,0,0,0,8.59-2.7l2.06,3.83a20.55,20.55,0,0,1-11.36,3.55c-9.23,0-16.54-6.74-16.54-18S3374.4,552.53,3382.27,552.53Zm8.66,15.55c0-7-3.12-10.93-8.52-10.93-4.83,0-9.23,4-9.94,10.93Z"/><path class="cls-8" d="M3404.56,553.38h4.83l.5,6.25h.21c2.34-4.33,5.89-7.1,9.8-7.1a8.56,8.56,0,0,1,3.69.71l-1.14,5.11a9.65,9.65,0,0,0-3.34-.57c-2.91,0-6.39,2.13-8.73,8v22.15h-5.82Z"/><path class="cls-8" d="M3443.53,537.34h5.82v13.77l-.21,7.1c3.27-3.12,6.74-5.68,11.5-5.68,7.24,0,10.51,4.69,10.51,13.49v21.86h-5.82V566.79c0-6.46-2-9.23-6.53-9.23-3.55,0-6,1.85-9.44,5.32v25h-5.82Z"/><path class="cls-8" d="M3495.07,552.53c8.8,0,13.77,6.32,13.77,16.18a20.62,20.62,0,0,1-.21,3.19h-23.28c.43,7.45,4.9,12.14,11.5,12.14a15.59,15.59,0,0,0,8.59-2.7l2.06,3.83a20.55,20.55,0,0,1-11.36,3.55c-9.23,0-16.54-6.74-16.54-18S3487.19,552.53,3495.07,552.53Zm8.66,15.55c0-7-3.12-10.93-8.52-10.93-4.83,0-9.23,4-9.94,10.93Z"/><path class="cls-8" d="M3535.89,566c0-4.4-1.49-8.66-7.1-8.66-4,0-7.6,1.85-10.29,3.69l-2.34-4c3.19-2.06,8-4.47,13.56-4.47,8.45,0,12,5.61,12,14.2v21.15h-4.83l-.5-4.12h-.14c-3.34,2.7-7.17,5-11.43,5-5.82,0-10.15-3.62-10.15-9.8C3514.66,571.41,3521.19,567.65,3535.89,566Zm-9.44,18c3.34,0,6.1-1.63,9.44-4.61v-9.58c-11.57,1.42-15.47,4.26-15.47,8.66C3520.41,582.41,3523,584,3526.45,584Z"/><path class="cls-8" d="M3552.71,537.34h5.82v44c0,1.85.78,2.56,1.63,2.56a4.89,4.89,0,0,0,1.28-.14l.78,4.4a7.84,7.84,0,0,1-3.34.57c-4.4,0-6.18-2.77-6.18-7.81Z"/><path class="cls-8" d="M3571.8,558.13h-5.11v-4.4l5.4-.35.71-9.65h4.9v9.65h9.3v4.76h-9.3V577.3c0,4.26,1.35,6.67,5.32,6.67a12.52,12.52,0,0,0,3.9-.92l1.14,4.4a21.3,21.3,0,0,1-6.39,1.28c-7.38,0-9.87-4.68-9.87-11.5Z"/><path class="cls-8" d="M3594.8,537.34h5.82v13.77l-.21,7.1c3.27-3.12,6.74-5.68,11.5-5.68,7.24,0,10.51,4.69,10.51,13.49v21.86h-5.82V566.79c0-6.46-2-9.23-6.53-9.23-3.55,0-6,1.85-9.44,5.32v25h-5.82Z"/><path class="cls-8" d="M2530.18,458.55H2557v5h-20.87v14.62h17.6v5h-17.6v16.89h21.58v5h-27.54Z"/><path class="cls-8" d="M2585.33,457.7a17.2,17.2,0,0,1,12.71,5.75l-3.34,3.76a12.44,12.44,0,0,0-9.3-4.33c-8.87,0-14.76,7.24-14.76,18.81s5.61,19.09,14.48,19.09c4.4,0,7.67-1.85,10.65-5.18l3.34,3.62A17.84,17.84,0,0,1,2585,506c-11.71,0-20.44-8.94-20.44-24.13C2564.53,466.86,2573.41,457.7,2585.33,457.7Z"/><path class="cls-8" d="M2605.92,495a18.11,18.11,0,0,0,12.85,5.82c6.1,0,9.72-3.05,9.72-7.6,0-4.76-3.41-6.25-7.81-8.23l-6.67-2.91c-4.33-1.85-9.44-5.18-9.44-12,0-7.1,6.25-12.35,14.69-12.35a19,19,0,0,1,13.7,5.75l-3.12,3.83a15,15,0,0,0-10.58-4.4c-5.25,0-8.73,2.63-8.73,6.81,0,4.47,4.12,6.18,7.74,7.74l6.67,2.84c5.4,2.34,9.58,5.54,9.58,12.42,0,7.38-6.1,13.27-15.9,13.27a22.42,22.42,0,0,1-16.26-6.89Z"/><path class="cls-8" d="M2656.32,497.31c3,2.41,6,4.12,10.15,4.12,4.54,0,6.81-2.41,6.81-5.39,0-3.55-4.12-5.11-7.88-6.53-4.9-1.77-10.29-4.12-10.29-9.94,0-5.54,4.4-9.8,11.85-9.8a17.22,17.22,0,0,1,10.72,3.9l-2.77,3.69a12.81,12.81,0,0,0-7.88-3.05c-4.33,0-6.32,2.34-6.32,5,0,3.19,3.76,4.47,7.67,6,5,1.85,10.51,3.9,10.51,10.43,0,5.61-4.47,10.29-12.64,10.29a20.76,20.76,0,0,1-12.85-4.76Z"/><path class="cls-8" d="M2699.9,469.77c8.8,0,13.77,6.32,13.77,16.18a20.62,20.62,0,0,1-.21,3.19h-23.28c.43,7.45,4.9,12.14,11.5,12.14a15.59,15.59,0,0,0,8.59-2.7l2.06,3.83A20.55,20.55,0,0,1,2701,506c-9.23,0-16.54-6.74-16.54-18S2692,469.77,2699.9,469.77Zm8.66,15.55c0-7-3.12-10.93-8.52-10.93-4.83,0-9.23,4-9.94,10.93Z"/><path class="cls-8" d="M2722.19,470.62H2727l.5,6.25h.21c2.34-4.33,5.89-7.1,9.8-7.1a8.56,8.56,0,0,1,3.69.71l-1.14,5.11a9.65,9.65,0,0,0-3.34-.57c-2.91,0-6.39,2.13-8.73,8v22.15h-5.82Z"/><path class="cls-8" d="M2743.2,470.62h6l6.53,19.59c1,3.41,2.13,6.89,3.19,10.15h.28c1-3.27,2.13-6.74,3.12-10.15l6.53-19.59h5.75l-12.21,34.5h-6.81Z"/><path class="cls-8" d="M2780.26,459.76a4.06,4.06,0,0,1,8.09,0,4.06,4.06,0,0,1-8.09,0Zm1.06,10.86h5.82v34.5h-5.82Z"/><path class="cls-8" d="M2812.84,469.77a14.22,14.22,0,0,1,10.08,4.12l-2.91,3.76c-2.06-1.77-4.19-3.05-7-3.05-6.25,0-10.79,5.39-10.79,13.34s4.33,13.2,10.65,13.2a12.3,12.3,0,0,0,8.09-3.48l2.63,3.83a17.08,17.08,0,0,1-11.22,4.47c-9.16,0-16.18-6.6-16.18-18S2804,469.77,2812.84,469.77Z"/><path class="cls-8" d="M2842.58,469.77c8.8,0,13.77,6.32,13.77,16.18a20.62,20.62,0,0,1-.21,3.19h-23.28c.43,7.45,4.9,12.14,11.5,12.14a15.59,15.59,0,0,0,8.59-2.7l2.06,3.83a20.55,20.55,0,0,1-11.36,3.55c-9.23,0-16.54-6.74-16.54-18S2834.7,469.77,2842.58,469.77Zm8.66,15.55c0-7-3.12-10.93-8.52-10.93-4.83,0-9.23,4-9.94,10.93Z"/><path class="cls-8" d="M2542.31,552.53c4,0,6.6,1.49,9.65,4l-.28-5.89V537.34h5.89v50.54h-4.83l-.5-4H2552c-2.7,2.63-6.39,4.9-10.43,4.9-8.66,0-14.27-6.53-14.27-18C2527.34,559.48,2534.44,552.53,2542.31,552.53Zm.57,31.3c3.19,0,6-1.56,8.8-4.76V561c-2.91-2.63-5.54-3.62-8.38-3.62-5.54,0-9.94,5.32-9.94,13.2C2533.37,578.86,2536.85,583.83,2542.88,583.83Z"/><path class="cls-8" d="M2582.14,552.53c8.8,0,13.77,6.32,13.77,16.18a20.62,20.62,0,0,1-.21,3.19h-23.28c.43,7.45,4.9,12.14,11.5,12.14a15.59,15.59,0,0,0,8.59-2.7l2.06,3.83a20.55,20.55,0,0,1-11.36,3.55c-9.23,0-16.54-6.74-16.54-18S2574.26,552.53,2582.14,552.53Zm8.66,15.55c0-7-3.12-10.93-8.52-10.93-4.83,0-9.23,4-9.94,10.93Z"/><path class="cls-8" d="M2610.25,590.79v11.64h-5.82v-49h4.83l.5,4h.21c3.12-2.63,7-4.83,11-4.83,8.87,0,13.63,6.89,13.63,17.6,0,11.71-7,18.6-14.91,18.6-3.19,0-6.39-1.49-9.58-4Zm8.45-7c5.68,0,9.87-5.18,9.87-13.7,0-7.6-2.56-12.71-9.09-12.71-2.91,0-5.82,1.63-9.23,4.69v18.1C2613.37,582.84,2616.42,583.83,2618.69,583.83Z"/><path class="cls-8" d="M2643.82,537.34h5.82v44c0,1.85.78,2.56,1.63,2.56a4.89,4.89,0,0,0,1.28-.14l.78,4.4a7.84,7.84,0,0,1-3.34.57c-4.4,0-6.18-2.77-6.18-7.81Z"/><path class="cls-8" d="M2675.34,552.53c8.45,0,16,6.6,16,18.17s-7.52,18-16,18-16-6.6-16-18S2666.89,552.53,2675.34,552.53Zm0,31.38c6,0,9.94-5.32,9.94-13.2s-4-13.34-9.94-13.34-9.94,5.39-9.94,13.34S2669.45,583.9,2675.34,583.9Z"/><path class="cls-8" d="M2700.4,597.88c3.9,0,6.39-3.12,7.81-7.38l.78-2.56-13.84-34.57h6l7,19.09c1.06,3,2.27,6.53,3.34,9.72h.28c1-3.12,2-6.67,2.91-9.72l6.18-19.09h5.68l-13,37.34c-2.41,6.81-6,12-12.92,12a11.46,11.46,0,0,1-4-.71l1.14-4.61A10.15,10.15,0,0,0,2700.4,597.88Z"/><path class="cls-8" d="M2745.9,552.53c8.8,0,13.77,6.32,13.77,16.18a20.62,20.62,0,0,1-.21,3.19h-23.28c.43,7.45,4.9,12.14,11.5,12.14a15.59,15.59,0,0,0,8.59-2.7l2.06,3.83a20.55,20.55,0,0,1-11.36,3.55c-9.23,0-16.54-6.74-16.54-18S2738,552.53,2745.9,552.53Zm8.66,15.55c0-7-3.12-10.93-8.52-10.93-4.83,0-9.23,4-9.94,10.93Z"/><path class="cls-8" d="M2780.68,552.53c4,0,6.6,1.49,9.65,4l-.28-5.89V537.34h5.89v50.54h-4.83l-.5-4h-.21c-2.7,2.63-6.39,4.9-10.43,4.9-8.66,0-14.27-6.53-14.27-18C2765.71,559.48,2772.8,552.53,2780.68,552.53Zm.57,31.3c3.19,0,6-1.56,8.8-4.76V561c-2.91-2.63-5.54-3.62-8.38-3.62-5.54,0-9.94,5.32-9.94,13.2C2771.74,578.86,2775.22,583.83,2781.25,583.83Z"/><path class="cls-8" d="M1935.28,457.7a17.19,17.19,0,0,1,12.71,5.75l-3.34,3.76a12.44,12.44,0,0,0-9.3-4.33c-8.87,0-14.76,7.24-14.76,18.81s5.61,19.09,14.48,19.09c4.4,0,7.67-1.85,10.65-5.18l3.34,3.62a17.84,17.84,0,0,1-14.13,6.74c-11.71,0-20.44-8.94-20.44-24.13C1914.48,466.86,1923.35,457.7,1935.28,457.7Z"/><path class="cls-8" d="M1970.42,469.77c8.45,0,16,6.6,16,18.17s-7.52,18-16,18-16-6.6-16-18S1962,469.77,1970.42,469.77Zm0,31.38c6,0,9.94-5.32,9.94-13.2s-4-13.34-9.94-13.34-9.94,5.39-9.94,13.34S1964.52,501.15,1970.42,501.15Z"/><path class="cls-8" d="M2008,469.77c4,0,6.6,1.49,9.65,4l-.28-5.89V454.58h5.89v50.54h-4.83l-.5-4h-.21c-2.7,2.63-6.39,4.9-10.43,4.9-8.66,0-14.27-6.53-14.27-18C1993,476.73,2000.09,469.77,2008,469.77Zm.57,31.3c3.19,0,6-1.56,8.8-4.76v-18c-2.91-2.63-5.54-3.62-8.38-3.62-5.54,0-9.94,5.32-9.94,13.2C1999,496.11,2002.5,501.07,2008.53,501.07Z"/><path class="cls-8" d="M2047.79,469.77c8.8,0,13.77,6.32,13.77,16.18a20.62,20.62,0,0,1-.21,3.19h-23.28c.43,7.45,4.9,12.14,11.5,12.14a15.59,15.59,0,0,0,8.59-2.7l2.06,3.83a20.55,20.55,0,0,1-11.36,3.55c-9.23,0-16.54-6.74-16.54-18S2039.91,469.77,2047.79,469.77Zm8.66,15.55c0-7-3.12-10.93-8.52-10.93-4.83,0-9.23,4-9.94,10.93Z"/><path class="cls-8" d="M2070.43,458.55h14.34c10.29,0,17.18,3.48,17.18,13.7,0,9.8-7,14.41-17.18,14.41h-8.38v18.46h-6ZM2084,481.84c8.16,0,12.07-3,12.07-9.58s-4-8.94-12.07-8.94h-7.6v18.53Z"/><path class="cls-8" d="M2109.55,459.76a4.06,4.06,0,0,1,8.09,0,4.06,4.06,0,0,1-8.09,0Zm1.06,10.86h5.82v34.5h-5.82Z"/><path class="cls-8" d="M2133.89,508v11.64h-5.82v-49h4.83l.5,4h.21c3.12-2.63,7-4.83,11-4.83,8.87,0,13.63,6.89,13.63,17.6,0,11.71-7,18.6-14.91,18.6-3.19,0-6.39-1.49-9.58-4Zm8.45-7c5.68,0,9.87-5.18,9.87-13.7,0-7.6-2.56-12.71-9.09-12.71-2.91,0-5.82,1.63-9.23,4.69v18.1C2137,500.08,2140.07,501.07,2142.34,501.07Z"/><path class="cls-8" d="M2180.39,469.77c8.8,0,13.77,6.32,13.77,16.18a20.62,20.62,0,0,1-.21,3.19h-23.28c.43,7.45,4.9,12.14,11.5,12.14a15.59,15.59,0,0,0,8.59-2.7l2.06,3.83a20.55,20.55,0,0,1-11.36,3.55c-9.23,0-16.54-6.74-16.54-18S2172.51,469.77,2180.39,469.77Zm8.66,15.55c0-7-3.12-10.93-8.52-10.93-4.83,0-9.23,4-9.94,10.93Z"/><path class="cls-8" d="M2202.68,454.58h5.82v44c0,1.85.78,2.56,1.63,2.56a4.89,4.89,0,0,0,1.28-.14l.78,4.4a7.84,7.84,0,0,1-3.34.57c-4.4,0-6.18-2.77-6.18-7.81Z"/><path class="cls-8" d="M2219.72,459.76a4.06,4.06,0,0,1,8.09,0,4.06,4.06,0,0,1-8.09,0Zm1.06,10.86h5.82v34.5h-5.82Z"/><path class="cls-8" d="M2238.24,470.62h4.83l.5,5h.21c3.27-3.27,6.81-5.82,11.57-5.82,7.24,0,10.51,4.69,10.51,13.49v21.86H2260V484c0-6.46-2-9.23-6.53-9.23-3.55,0-6,1.85-9.44,5.32v25h-5.82Z"/><path class="cls-8" d="M2290,469.77c8.8,0,13.77,6.32,13.77,16.18a20.62,20.62,0,0,1-.21,3.19h-23.28c.43,7.45,4.9,12.14,11.5,12.14a15.59,15.59,0,0,0,8.59-2.7l2.06,3.83a20.55,20.55,0,0,1-11.36,3.55c-9.23,0-16.54-6.74-16.54-18S2282.11,469.77,2290,469.77Zm8.66,15.55c0-7-3.12-10.93-8.52-10.93-4.83,0-9.23,4-9.94,10.93Z"/><path class="cls-8" d="M1916.32,553.38h5.89v21.08c0,6.46,1.92,9.23,6.46,9.23,3.55,0,6-1.77,9.3-5.82V553.38h5.82v34.5H1939l-.5-5.39h-.21c-3.19,3.76-6.6,6.25-11.36,6.25-7.31,0-10.58-4.68-10.58-13.49Z"/><path class="cls-8" d="M1961.26,590.79v11.64h-5.82v-49h4.83l.5,4h.21c3.12-2.63,7-4.83,11-4.83,8.87,0,13.63,6.89,13.63,17.6,0,11.71-7,18.6-14.91,18.6-3.19,0-6.39-1.49-9.58-4Zm8.45-7c5.68,0,9.87-5.18,9.87-13.7,0-7.6-2.56-12.71-9.09-12.71-2.91,0-5.82,1.63-9.23,4.69v18.1C1964.38,582.84,1967.43,583.83,1969.71,583.83Z"/><path class="cls-8" d="M2007.33,552.53c4,0,6.6,1.49,9.65,4l-.28-5.89V537.34h5.89v50.54h-4.83l-.5-4h-.21c-2.7,2.63-6.39,4.9-10.43,4.9-8.66,0-14.27-6.53-14.27-18C1992.35,559.48,1999.45,552.53,2007.33,552.53Zm.57,31.3c3.19,0,6-1.56,8.8-4.76V561c-2.91-2.63-5.54-3.62-8.38-3.62-5.54,0-9.94,5.32-9.94,13.2C1998.38,578.86,2001.86,583.83,2007.9,583.83Z"/><path class="cls-8" d="M2053.75,566c0-4.4-1.49-8.66-7.1-8.66-4,0-7.6,1.85-10.29,3.69l-2.34-4c3.19-2.06,8-4.47,13.56-4.47,8.45,0,12,5.61,12,14.2v21.15h-4.83l-.5-4.12h-.14c-3.34,2.7-7.17,5-11.43,5-5.82,0-10.15-3.62-10.15-9.8C2032.53,571.41,2039.06,567.65,2053.75,566Zm-9.44,18c3.34,0,6.1-1.63,9.44-4.61v-9.58c-11.57,1.42-15.47,4.26-15.47,8.66C2038.28,582.41,2040.9,584,2044.31,584Z"/><path class="cls-8" d="M2071.57,558.13h-5.11v-4.4l5.39-.35.71-9.65h4.9v9.65h9.3v4.76h-9.3V577.3c0,4.26,1.35,6.67,5.32,6.67a12.52,12.52,0,0,0,3.9-.92l1.14,4.4a21.3,21.3,0,0,1-6.39,1.28c-7.38,0-9.87-4.68-9.87-11.5Z"/><path class="cls-8" d="M2106.78,552.53c8.8,0,13.77,6.32,13.77,16.18a20.62,20.62,0,0,1-.21,3.19h-23.28c.43,7.45,4.9,12.14,11.5,12.14a15.59,15.59,0,0,0,8.59-2.7l2.06,3.83a20.55,20.55,0,0,1-11.36,3.55c-9.23,0-16.54-6.74-16.54-18S2098.9,552.53,2106.78,552.53Zm8.66,15.55c0-7-3.12-10.93-8.52-10.93-4.83,0-9.23,4-9.94,10.93Z"/><path class="cls-8" d="M2128.15,580.07c3,2.41,6,4.12,10.15,4.12,4.54,0,6.81-2.41,6.81-5.39,0-3.55-4.12-5.11-7.88-6.53-4.9-1.77-10.29-4.12-10.29-9.94,0-5.54,4.4-9.8,11.85-9.8a17.22,17.22,0,0,1,10.72,3.9l-2.77,3.69a12.81,12.81,0,0,0-7.88-3.05c-4.33,0-6.32,2.34-6.32,5,0,3.19,3.76,4.47,7.67,6,5,1.85,10.51,3.9,10.51,10.43,0,5.61-4.47,10.29-12.64,10.29a20.76,20.76,0,0,1-12.85-4.76Z"/><path class="cls-8" d="M1935.28,623.21A17.19,17.19,0,0,1,1948,629l-3.34,3.76a12.44,12.44,0,0,0-9.3-4.33c-8.87,0-14.76,7.24-14.76,18.81s5.61,19.09,14.48,19.09c4.4,0,7.67-1.85,10.65-5.18l3.34,3.62a17.84,17.84,0,0,1-14.13,6.74c-11.71,0-20.44-8.94-20.44-24.13C1914.48,632.37,1923.35,623.21,1935.28,623.21Z"/><path class="cls-8" d="M1957,620.09h5.82v44c0,1.85.78,2.56,1.63,2.56a4.89,4.89,0,0,0,1.28-.14l.78,4.4a7.84,7.84,0,0,1-3.34.57c-4.4,0-6.18-2.77-6.18-7.81Z"/><path class="cls-8" d="M1988.52,635.28c8.45,0,16,6.6,16,18.17s-7.52,18-16,18-16-6.6-16-18S1980.07,635.28,1988.52,635.28Zm0,31.38c6,0,9.94-5.32,9.94-13.2s-4-13.34-9.94-13.34-9.94,5.39-9.94,13.34S1982.62,666.66,1988.52,666.66Z"/><path class="cls-8" d="M2013.08,636.13H2019v21.08c0,6.46,1.92,9.23,6.46,9.23,3.55,0,6-1.77,9.3-5.82V636.13h5.82v34.5h-4.83l-.5-5.39H2035c-3.19,3.76-6.6,6.25-11.36,6.25-7.31,0-10.58-4.68-10.58-13.49Z"/><path class="cls-8" d="M2064.68,635.28c4,0,6.6,1.49,9.65,4l-.28-5.89V620.09h5.89v50.54h-4.83l-.5-4h-.21c-2.7,2.63-6.39,4.9-10.43,4.9-8.66,0-14.27-6.53-14.27-18C2049.71,642.24,2056.8,635.28,2064.68,635.28Zm.57,31.3c3.19,0,6-1.56,8.8-4.76v-18c-2.91-2.63-5.54-3.62-8.38-3.62-5.54,0-9.94,5.32-9.94,13.2C2055.74,661.62,2059.22,666.59,2065.25,666.59Z"/><path class="cls-8" d="M2091.94,624.07h26.9v5H2097.9v15.76h17.75v5H2097.9v20.87h-6Z"/><path class="cls-8" d="M2138.72,635.28c8.45,0,16,6.6,16,18.17s-7.52,18-16,18-16-6.6-16-18S2130.28,635.28,2138.72,635.28Zm0,31.38c6,0,9.94-5.32,9.94-13.2s-4-13.34-9.94-13.34-9.94,5.39-9.94,13.34S2132.83,666.66,2138.72,666.66Z"/><path class="cls-8" d="M2163.78,636.13h4.83l.5,6.25h.21c2.34-4.33,5.89-7.1,9.8-7.1a8.56,8.56,0,0,1,3.69.71l-1.14,5.11a9.65,9.65,0,0,0-3.34-.57c-2.91,0-6.39,2.13-8.73,8v22.15h-5.82Z"/><path class="cls-8" d="M2188.41,636.13h4.83l.5,5h.21c3-3.27,6.6-5.82,10.72-5.82,5.25,0,8.09,2.48,9.51,6.6,3.62-3.9,7.17-6.6,11.36-6.6,7.1,0,10.51,4.69,10.51,13.49v21.86h-5.82V649.55c0-6.46-2.06-9.23-6.39-9.23-2.7,0-5.47,1.77-8.66,5.32v25h-5.82V649.55c0-6.46-2.06-9.23-6.46-9.23-2.56,0-5.47,1.77-8.66,5.32v25h-5.82Z"/><path class="cls-8" d="M2266.78,648.77c0-4.4-1.49-8.66-7.1-8.66-4,0-7.6,1.85-10.29,3.69l-2.34-4c3.19-2.06,8-4.47,13.56-4.47,8.45,0,12,5.61,12,14.2v21.15h-4.83l-.5-4.12h-.14c-3.34,2.7-7.17,5-11.43,5-5.82,0-10.15-3.62-10.15-9.8C2245.56,654.16,2252.09,650.4,2266.78,648.77Zm-9.44,18c3.34,0,6.1-1.63,9.44-4.61V652.6c-11.57,1.42-15.47,4.26-15.47,8.66C2251.3,665.17,2253.93,666.8,2257.34,666.8Z"/><path class="cls-8" d="M2284.6,640.89h-5.11v-4.4l5.4-.35.71-9.65h4.9v9.65h9.3v4.76h-9.3v19.17c0,4.26,1.35,6.67,5.32,6.67a12.52,12.52,0,0,0,3.9-.92l1.14,4.4a21.3,21.3,0,0,1-6.39,1.28c-7.38,0-9.87-4.68-9.87-11.5Z"/><path class="cls-8" d="M2306.53,625.27a4.06,4.06,0,0,1,8.09,0,4.06,4.06,0,0,1-8.09,0Zm1.06,10.86h5.82v34.5h-5.82Z"/><path class="cls-8" d="M2338.47,635.28c8.45,0,16,6.6,16,18.17s-7.52,18-16,18-16-6.6-16-18S2330,635.28,2338.47,635.28Zm0,31.38c6,0,9.94-5.32,9.94-13.2s-4-13.34-9.94-13.34-9.94,5.39-9.94,13.34S2332.58,666.66,2338.47,666.66Z"/><path class="cls-8" d="M2363.53,636.13h4.83l.5,5h.21c3.27-3.27,6.81-5.82,11.57-5.82,7.24,0,10.51,4.69,10.51,13.49v21.86h-5.82V649.55c0-6.46-2-9.23-6.53-9.23-3.55,0-6,1.85-9.44,5.32v25h-5.82Z"/><path class="cls-8" d="M1917.18,706.82H1944v5h-20.87v14.62h17.6v5h-17.6v16.89h21.58v5h-27.54Z"/><path class="cls-8" d="M1972.33,706a17.2,17.2,0,0,1,12.71,5.75l-3.34,3.76a12.44,12.44,0,0,0-9.3-4.33c-8.87,0-14.76,7.24-14.76,18.81s5.61,19.09,14.48,19.09c4.4,0,7.67-1.85,10.65-5.18l3.34,3.62a17.84,17.84,0,0,1-14.13,6.74c-11.71,0-20.44-8.94-20.44-24.13C1951.53,715.13,1960.41,706,1972.33,706Z"/><path class="cls-8" d="M1992.92,743.24a18.11,18.11,0,0,0,12.85,5.82c6.1,0,9.72-3.05,9.72-7.6,0-4.76-3.41-6.25-7.81-8.23l-6.67-2.91c-4.33-1.85-9.44-5.18-9.44-12,0-7.1,6.25-12.35,14.69-12.35a19,19,0,0,1,13.7,5.75l-3.12,3.83a15,15,0,0,0-10.58-4.4c-5.25,0-8.73,2.63-8.73,6.81,0,4.47,4.12,6.18,7.74,7.74l6.67,2.84c5.4,2.34,9.58,5.54,9.58,12.42,0,7.38-6.1,13.27-15.9,13.27a22.42,22.42,0,0,1-16.26-6.89Z"/><path class="cls-8" d="M2045.23,723.65h-5.11v-4.4l5.39-.35.71-9.65h4.9v9.65h9.3v4.76h-9.3v19.17c0,4.26,1.35,6.67,5.32,6.67a12.52,12.52,0,0,0,3.9-.92l1.14,4.4a21.3,21.3,0,0,1-6.39,1.28c-7.38,0-9.87-4.68-9.87-11.5Z"/><path class="cls-8" d="M2086.48,731.52c0-4.4-1.49-8.66-7.1-8.66-4,0-7.6,1.85-10.29,3.69l-2.34-4c3.19-2.06,8-4.47,13.56-4.47,8.45,0,12,5.61,12,14.2v21.15h-4.83l-.5-4.12h-.14c-3.34,2.7-7.17,5-11.43,5-5.82,0-10.15-3.62-10.15-9.8C2065.25,736.92,2071.78,733.16,2086.48,731.52Zm-9.44,18c3.34,0,6.1-1.63,9.44-4.61v-9.58c-11.57,1.42-15.47,4.26-15.47,8.66C2071,747.92,2073.63,749.55,2077,749.55Z"/><path class="cls-8" d="M2102.38,745.58c3,2.41,6,4.12,10.15,4.12,4.54,0,6.81-2.41,6.81-5.39,0-3.55-4.12-5.11-7.88-6.53-4.9-1.77-10.29-4.12-10.29-9.94,0-5.54,4.4-9.8,11.85-9.8a17.22,17.22,0,0,1,10.72,3.9l-2.77,3.69a12.81,12.81,0,0,0-7.88-3.05c-4.33,0-6.32,2.34-6.32,5,0,3.19,3.76,4.47,7.67,6,5,1.85,10.51,3.9,10.51,10.43,0,5.61-4.47,10.29-12.64,10.29a20.76,20.76,0,0,1-12.85-4.76Z"/><path class="cls-8" d="M2133,702.85h5.75v34.21h.21l14.69-18.17h6.46l-11.57,13.84,13.13,20.66h-6.39l-10.08-16.61-6.46,7.52v9.09H2133Z"/><path class="cls-8" d="M1929.31,800.79c4,0,6.6,1.49,9.65,4l-.28-5.89V785.6h5.89v50.54h-4.83l-.5-4H1939c-2.7,2.63-6.39,4.9-10.43,4.9-8.66,0-14.27-6.53-14.27-18C1914.34,807.75,1921.44,800.79,1929.31,800.79Zm.57,31.3c3.19,0,6-1.56,8.8-4.76v-18c-2.91-2.63-5.54-3.62-8.38-3.62-5.54,0-9.94,5.32-9.94,13.2C1920.37,827.13,1923.85,832.1,1929.88,832.1Z"/><path class="cls-8" d="M1969.14,800.79c8.8,0,13.77,6.32,13.77,16.18a20.62,20.62,0,0,1-.21,3.19h-23.28c.43,7.45,4.9,12.14,11.5,12.14a15.59,15.59,0,0,0,8.59-2.7l2.06,3.83A20.55,20.55,0,0,1,1970.2,837c-9.23,0-16.54-6.74-16.54-18S1961.26,800.79,1969.14,800.79Zm8.66,15.55c0-7-3.12-10.93-8.52-10.93-4.83,0-9.23,4-9.94,10.93Z"/><path class="cls-8" d="M2007,790.36a9.69,9.69,0,0,0-3.9-.85c-3.27,0-4.83,2.27-4.83,6.67v5.47h7.31v4.76h-7.31v29.74h-5.82V806.4h-4.69V802l4.69-.35v-5.47c0-7,3.19-11.43,10.08-11.43a15.64,15.64,0,0,1,5.75,1.14Z"/><path class="cls-8" d="M2011.09,790.78a4.06,4.06,0,0,1,8.09,0,4.06,4.06,0,0,1-8.09,0Zm1.06,10.86H2018v34.5h-5.82Z"/><path class="cls-8" d="M2029.62,801.65h4.83l.5,5h.21c3.27-3.27,6.81-5.82,11.57-5.82,7.24,0,10.51,4.69,10.51,13.49v21.86h-5.82V815.06c0-6.46-2-9.23-6.53-9.23-3.55,0-6,1.85-9.44,5.32v25h-5.82Z"/><path class="cls-8" d="M2067.38,790.78a4.06,4.06,0,0,1,8.09,0,4.06,4.06,0,0,1-8.09,0Zm1.06,10.86h5.82v34.5h-5.82Z"/><path class="cls-8" d="M2086.9,806.4h-5.11V802l5.4-.35.71-9.65h4.9v9.65h9.3v4.76h-9.3v19.17c0,4.26,1.35,6.67,5.32,6.67a12.52,12.52,0,0,0,3.9-.92l1.14,4.4a21.3,21.3,0,0,1-6.39,1.28c-7.38,0-9.87-4.68-9.87-11.5Z"/><path class="cls-8" d="M2108.84,790.78a4.06,4.06,0,0,1,8.09,0,4.06,4.06,0,0,1-8.09,0Zm1.06,10.86h5.82v34.5h-5.82Z"/><path class="cls-8" d="M2140.78,800.79c8.45,0,16,6.6,16,18.17s-7.52,18-16,18-16-6.6-16-18S2132.33,800.79,2140.78,800.79Zm0,31.38c6,0,9.94-5.32,9.94-13.2s-4-13.34-9.94-13.34-9.94,5.39-9.94,13.34S2134.89,832.17,2140.78,832.17Z"/><path class="cls-8" d="M2165.84,801.65h4.83l.5,5h.21c3.27-3.27,6.81-5.82,11.57-5.82,7.24,0,10.51,4.69,10.51,13.49v21.86h-5.82V815.06c0-6.46-2-9.23-6.53-9.23-3.55,0-6,1.85-9.44,5.32v25h-5.82Z"/><path class="cls-8" d="M1324.28,457.7a17.19,17.19,0,0,1,12.71,5.75l-3.34,3.76a12.44,12.44,0,0,0-9.3-4.33c-8.87,0-14.76,7.24-14.76,18.81s5.61,19.09,14.48,19.09c4.4,0,7.67-1.85,10.65-5.18l3.34,3.62a17.84,17.84,0,0,1-14.13,6.74c-11.71,0-20.44-8.94-20.44-24.13C1303.48,466.86,1312.35,457.7,1324.28,457.7Z"/><path class="cls-8" d="M1359.42,469.77c8.45,0,16,6.6,16,18.17s-7.52,18-16,18-16-6.6-16-18S1351,469.77,1359.42,469.77Zm0,31.38c6,0,9.94-5.32,9.94-13.2s-4-13.34-9.94-13.34-9.94,5.39-9.94,13.34S1353.52,501.15,1359.42,501.15Z"/><path class="cls-8" d="M1397,469.77c4,0,6.6,1.49,9.65,4l-.28-5.89V454.58h5.89v50.54h-4.83l-.5-4h-.21c-2.7,2.63-6.39,4.9-10.43,4.9-8.66,0-14.27-6.53-14.27-18C1382,476.73,1389.09,469.77,1397,469.77Zm.57,31.3c3.19,0,6-1.56,8.8-4.76v-18c-2.91-2.63-5.54-3.62-8.38-3.62-5.54,0-9.94,5.32-9.94,13.2C1388,496.11,1391.5,501.07,1397.53,501.07Z"/><path class="cls-8" d="M1436.79,469.77c8.8,0,13.77,6.32,13.77,16.18a20.62,20.62,0,0,1-.21,3.19h-23.28c.43,7.45,4.9,12.14,11.5,12.14a15.59,15.59,0,0,0,8.59-2.7l2.06,3.83a20.55,20.55,0,0,1-11.36,3.55c-9.23,0-16.54-6.74-16.54-18S1428.91,469.77,1436.79,469.77Zm8.66,15.55c0-7-3.12-10.93-8.52-10.93-4.83,0-9.23,4-9.94,10.93Z"/><path class="cls-8" d="M1459.43,458.55h13.84c9.44,0,16,3.19,16,11.36,0,4.61-2.63,8.73-8.16,10.15v.28c6.81,1.06,10.79,4.76,10.79,11.14,0,9.16-7.24,13.63-17.6,13.63h-14.91Zm12.85,19.88c7.88,0,11.22-2.84,11.22-8s-3.76-7.17-10.93-7.17h-7.17v15.19Zm1.21,22c8,0,12.64-2.91,12.64-9.23,0-5.75-4.47-8.38-12.64-8.38h-8.09v17.6Z"/><path class="cls-8" d="M1500,470.62h5.89V491.7c0,6.46,1.92,9.23,6.46,9.23,3.55,0,6-1.77,9.3-5.82V470.62h5.82v34.5h-4.83l-.5-5.39h-.21c-3.19,3.76-6.6,6.25-11.36,6.25-7.31,0-10.58-4.68-10.58-13.49Z"/><path class="cls-8" d="M1538,459.76a4.06,4.06,0,0,1,8.09,0,4.06,4.06,0,0,1-8.09,0Zm1.06,10.86h5.82v34.5h-5.82Z"/><path class="cls-8" d="M1556.54,454.58h5.82v44c0,1.85.78,2.56,1.63,2.56a4.89,4.89,0,0,0,1.28-.14l.78,4.4a7.84,7.84,0,0,1-3.34.57c-4.4,0-6.18-2.77-6.18-7.81Z"/><path class="cls-8" d="M1587.13,469.77c4,0,6.6,1.49,9.65,4l-.28-5.89V454.58h5.89v50.54h-4.83l-.5-4h-.21c-2.7,2.63-6.39,4.9-10.43,4.9-8.66,0-14.27-6.53-14.27-18C1572.16,476.73,1579.26,469.77,1587.13,469.77Zm.57,31.3c3.19,0,6-1.56,8.8-4.76v-18c-2.91-2.63-5.54-3.62-8.38-3.62-5.54,0-9.94,5.32-9.94,13.2C1578.19,496.11,1581.67,501.07,1587.7,501.07Z"/><path class="cls-8" d="M1628.38,470.62h4.83l.5,6.25h.21c2.34-4.33,5.89-7.1,9.8-7.1a8.56,8.56,0,0,1,3.69.71l-1.14,5.11a9.65,9.65,0,0,0-3.34-.57c-2.91,0-6.39,2.13-8.73,8v22.15h-5.82Z"/><path class="cls-8" d="M1652.51,470.62h5.89V491.7c0,6.46,1.92,9.23,6.46,9.23,3.55,0,6-1.77,9.3-5.82V470.62H1680v34.5h-4.83l-.5-5.39h-.21c-3.19,3.76-6.6,6.25-11.36,6.25-7.31,0-10.58-4.68-10.58-13.49Z"/><path class="cls-8" d="M1691.63,470.62h4.83l.5,5h.21c3.27-3.27,6.81-5.82,11.57-5.82,7.24,0,10.51,4.69,10.51,13.49v21.86h-5.82V484c0-6.46-2-9.23-6.53-9.23-3.55,0-6,1.85-9.44,5.32v25h-5.82Z"/><path class="cls-8" d="M1729.53,497.31c3,2.41,6,4.12,10.15,4.12,4.54,0,6.81-2.41,6.81-5.39,0-3.55-4.12-5.11-7.88-6.53-4.9-1.77-10.29-4.12-10.29-9.94,0-5.54,4.4-9.8,11.85-9.8a17.22,17.22,0,0,1,10.72,3.9l-2.77,3.69a12.81,12.81,0,0,0-7.88-3.05c-4.33,0-6.32,2.34-6.32,5,0,3.19,3.76,4.47,7.67,6,5,1.85,10.51,3.9,10.51,10.43,0,5.61-4.47,10.29-12.64,10.29a20.76,20.76,0,0,1-12.85-4.76Z"/><path class="cls-8" d="M1306.82,558.13h-5.11v-4.4l5.4-.35.71-9.65h4.9v9.65h9.3v4.76h-9.3V577.3c0,4.26,1.35,6.67,5.32,6.67a12.52,12.52,0,0,0,3.9-.92l1.14,4.4a21.3,21.3,0,0,1-6.39,1.28c-7.38,0-9.87-4.68-9.87-11.5Z"/><path class="cls-8" d="M1342,552.53c8.8,0,13.77,6.32,13.77,16.18a20.62,20.62,0,0,1-.21,3.19H1332.3c.43,7.45,4.9,12.14,11.5,12.14a15.59,15.59,0,0,0,8.59-2.7l2.06,3.83a20.55,20.55,0,0,1-11.36,3.55c-9.23,0-16.54-6.74-16.54-18S1334.14,552.53,1342,552.53Zm8.66,15.55c0-7-3.12-10.93-8.52-10.93-4.83,0-9.23,4-9.94,10.93Z"/><path class="cls-8" d="M1363.39,580.07c3,2.41,6,4.12,10.15,4.12,4.54,0,6.81-2.41,6.81-5.39,0-3.55-4.12-5.11-7.88-6.53-4.9-1.77-10.29-4.12-10.29-9.94,0-5.54,4.4-9.8,11.85-9.8a17.22,17.22,0,0,1,10.72,3.9l-2.77,3.69a12.81,12.81,0,0,0-7.88-3.05c-4.33,0-6.32,2.34-6.32,5,0,3.19,3.76,4.47,7.67,6,5,1.85,10.51,3.9,10.51,10.43,0,5.61-4.47,10.29-12.64,10.29a20.76,20.76,0,0,1-12.85-4.76Z"/><path class="cls-8" d="M1395,558.13h-5.11v-4.4l5.39-.35.71-9.65h4.9v9.65h9.3v4.76h-9.3V577.3c0,4.26,1.35,6.67,5.32,6.67a12.52,12.52,0,0,0,3.9-.92l1.14,4.4a21.3,21.3,0,0,1-6.39,1.28c-7.38,0-9.87-4.68-9.87-11.5Z"/><path class="cls-8" d="M1417.13,580.07c3,2.41,6,4.12,10.15,4.12,4.54,0,6.81-2.41,6.81-5.39,0-3.55-4.12-5.11-7.88-6.53-4.9-1.77-10.29-4.12-10.29-9.94,0-5.54,4.4-9.8,11.85-9.8a17.22,17.22,0,0,1,10.72,3.9l-2.77,3.69a12.81,12.81,0,0,0-7.88-3.05c-4.33,0-6.32,2.34-6.32,5,0,3.19,3.76,4.47,7.67,6,5,1.85,10.51,3.9,10.51,10.43,0,5.61-4.47,10.29-12.64,10.29a20.76,20.76,0,0,1-12.85-4.76Z"/><path class="cls-8" d="M702.28,457.7A17.19,17.19,0,0,1,715,463.45l-3.34,3.76a12.44,12.44,0,0,0-9.3-4.33c-8.87,0-14.76,7.24-14.76,18.81s5.61,19.09,14.48,19.09c4.4,0,7.67-1.85,10.65-5.18l3.34,3.62A17.84,17.84,0,0,1,701.92,506c-11.71,0-20.44-8.94-20.44-24.13C681.48,466.86,690.35,457.7,702.28,457.7Z"/><path class="cls-8" d="M737.42,469.77c8.45,0,16,6.6,16,18.17s-7.52,18-16,18-16-6.6-16-18S729,469.77,737.42,469.77Zm0,31.38c6,0,9.94-5.32,9.94-13.2s-4-13.34-9.94-13.34-9.94,5.39-9.94,13.34S731.52,501.15,737.42,501.15Z"/><path class="cls-8" d="M775,469.77c4,0,6.6,1.49,9.65,4l-.28-5.89V454.58h5.89v50.54H785.4l-.5-4h-.21c-2.7,2.63-6.39,4.9-10.43,4.9-8.66,0-14.27-6.53-14.27-18C760,476.73,767.09,469.77,775,469.77Zm.57,31.3c3.19,0,6-1.56,8.8-4.76v-18c-2.91-2.63-5.54-3.62-8.38-3.62-5.54,0-9.94,5.32-9.94,13.2C766,496.11,769.5,501.07,775.53,501.07Z"/><path class="cls-8" d="M814.79,469.77c8.8,0,13.77,6.32,13.77,16.18a20.62,20.62,0,0,1-.21,3.19H805.06c.43,7.45,4.9,12.14,11.5,12.14a15.59,15.59,0,0,0,8.59-2.7l2.06,3.83A20.55,20.55,0,0,1,815.85,506c-9.23,0-16.54-6.74-16.54-18S806.91,469.77,814.79,469.77Zm8.66,15.55c0-7-3.12-10.93-8.52-10.93-4.83,0-9.23,4-9.94,10.93Z"/><path class="cls-8" d="M837.43,458.55h13.84c9.44,0,16,3.19,16,11.36,0,4.61-2.63,8.73-8.16,10.15v.28c6.81,1.06,10.79,4.76,10.79,11.14,0,9.16-7.24,13.63-17.6,13.63H837.43Zm12.85,19.88c7.88,0,11.22-2.84,11.22-8s-3.76-7.17-10.93-7.17H843.4v15.19Zm1.21,22c8,0,12.64-2.91,12.64-9.23,0-5.75-4.47-8.38-12.64-8.38H843.4v17.6Z"/><path class="cls-8" d="M878,470.62h5.89V491.7c0,6.46,1.92,9.23,6.46,9.23,3.55,0,6-1.77,9.3-5.82V470.62h5.82v34.5h-4.83l-.5-5.39h-.21c-3.19,3.76-6.6,6.25-11.36,6.25-7.31,0-10.58-4.68-10.58-13.49Z"/><path class="cls-8" d="M916,459.76a4.06,4.06,0,0,1,8.09,0,4.06,4.06,0,0,1-8.09,0Zm1.06,10.86h5.82v34.5h-5.82Z"/><path class="cls-8" d="M934.54,454.58h5.82v44c0,1.85.78,2.56,1.63,2.56a4.89,4.89,0,0,0,1.28-.14l.78,4.4a7.84,7.84,0,0,1-3.34.57c-4.4,0-6.18-2.77-6.18-7.81Z"/><path class="cls-8" d="M965.13,469.77c4,0,6.6,1.49,9.65,4l-.28-5.89V454.58h5.89v50.54h-4.83l-.5-4h-.21c-2.7,2.63-6.39,4.9-10.43,4.9-8.66,0-14.27-6.53-14.27-18C950.16,476.73,957.26,469.77,965.13,469.77Zm.57,31.3c3.19,0,6-1.56,8.8-4.76v-18c-2.91-2.63-5.54-3.62-8.38-3.62-5.54,0-9.94,5.32-9.94,13.2C956.19,496.11,959.67,501.07,965.7,501.07Z"/><path class="cls-8" d="M1006.38,454.58h5.82v13.77l-.14,6.25c3.12-2.77,7-4.83,10.79-4.83,8.94,0,13.7,6.89,13.7,17.53,0,11.78-7,18.67-14.91,18.67-3.19,0-6.81-1.56-9.87-4.26h-.21l-.5,3.41h-4.69Zm14.27,46.49c5.68,0,9.87-5.18,9.87-13.7,0-7.6-2.56-12.71-9.09-12.71-2.91,0-6,1.63-9.23,4.69v18.1A13.5,13.5,0,0,0,1020.65,501.07Z"/><path class="cls-8" d="M1045.28,470.62h5.89V491.7c0,6.46,1.92,9.23,6.46,9.23,3.55,0,6-1.77,9.3-5.82V470.62h5.82v34.5h-4.83l-.5-5.39h-.21c-3.19,3.76-6.6,6.25-11.36,6.25-7.31,0-10.58-4.68-10.58-13.49Z"/><path class="cls-8" d="M1083.33,459.76a4.06,4.06,0,0,1,8.09,0,4.06,4.06,0,0,1-8.09,0Zm1.06,10.86h5.82v34.5h-5.82Z"/><path class="cls-8" d="M1101.85,454.58h5.82v44c0,1.85.78,2.56,1.63,2.56a4.89,4.89,0,0,0,1.28-.14l.78,4.4a7.84,7.84,0,0,1-3.34.57c-4.4,0-6.18-2.77-6.18-7.81Z"/><path class="cls-8" d="M1132.45,469.77c4,0,6.6,1.49,9.65,4l-.28-5.89V454.58h5.89v50.54h-4.83l-.5-4h-.21c-2.7,2.63-6.39,4.9-10.43,4.9-8.66,0-14.27-6.53-14.27-18C1117.47,476.73,1124.57,469.77,1132.45,469.77Zm.57,31.3c3.19,0,6-1.56,8.8-4.76v-18c-2.91-2.63-5.54-3.62-8.38-3.62-5.54,0-9.94,5.32-9.94,13.2C1123.5,496.11,1127,501.07,1133,501.07Z"/><path class="cls-8" d="M1158.43,497.31c3,2.41,6,4.12,10.15,4.12,4.54,0,6.81-2.41,6.81-5.39,0-3.55-4.12-5.11-7.88-6.53-4.9-1.77-10.29-4.12-10.29-9.94,0-5.54,4.4-9.8,11.85-9.8a17.22,17.22,0,0,1,10.72,3.9l-2.77,3.69a12.81,12.81,0,0,0-7.88-3.05c-4.33,0-6.32,2.34-6.32,5,0,3.19,3.76,4.47,7.67,6,5,1.85,10.51,3.9,10.51,10.43,0,5.61-4.47,10.29-12.64,10.29a20.76,20.76,0,0,1-12.85-4.76Z"/><path class="cls-8" d="M684.18,541.31h11.64c14.34,0,22,8.31,22,23.07s-7.67,23.5-21.72,23.5H684.18ZM695.39,583c10.93,0,16.33-6.89,16.33-18.67s-5.39-18.24-16.33-18.24h-5.25V583Z"/><path class="cls-8" d="M740.68,552.53c8.45,0,16,6.6,16,18.17s-7.52,18-16,18-16-6.6-16-18S732.23,552.53,740.68,552.53Zm0,31.38c6,0,9.94-5.32,9.94-13.2s-4-13.34-9.94-13.34-9.94,5.39-9.94,13.34S734.79,583.9,740.68,583.9Z"/><path class="cls-8" d="M779.79,552.53a14.22,14.22,0,0,1,10.08,4.12L787,560.41c-2.06-1.77-4.19-3.05-7-3.05-6.25,0-10.79,5.39-10.79,13.34s4.33,13.2,10.65,13.2a12.3,12.3,0,0,0,8.09-3.48l2.63,3.83a17.08,17.08,0,0,1-11.22,4.47c-9.16,0-16.18-6.6-16.18-18S770.92,552.53,779.79,552.53Z"/><path class="cls-8" d="M798.11,537.34h5.75v34.21h.21l14.69-18.17h6.46l-11.57,13.84,13.13,20.66H820.4l-10.08-16.61-6.46,7.52v9.09h-5.75Z"/><path class="cls-8" d="M844.89,552.53c8.8,0,13.77,6.32,13.77,16.18a20.62,20.62,0,0,1-.21,3.19H835.16c.43,7.45,4.9,12.14,11.5,12.14a15.59,15.59,0,0,0,8.59-2.7l2.06,3.83A20.55,20.55,0,0,1,846,588.73c-9.23,0-16.54-6.74-16.54-18S837,552.53,844.89,552.53Zm8.66,15.55c0-7-3.12-10.93-8.52-10.93-4.83,0-9.23,4-9.94,10.93Z"/><path class="cls-8" d="M867.18,553.38H872l.5,6.25h.21c2.34-4.33,5.89-7.1,9.8-7.1a8.56,8.56,0,0,1,3.69.71l-1.14,5.11a9.65,9.65,0,0,0-3.34-.57c-2.91,0-6.39,2.13-8.73,8v22.15h-5.82Z"/><path class="cls-8" d="M905.08,542.52a4.06,4.06,0,0,1,8.09,0,4.06,4.06,0,0,1-8.09,0Zm1.06,10.86H912v34.5h-5.82Z"/><path class="cls-8" d="M923.61,553.38h4.83l.5,5h.21c3-3.27,6.6-5.82,10.72-5.82,5.25,0,8.09,2.48,9.51,6.6,3.62-3.9,7.17-6.6,11.36-6.6,7.1,0,10.51,4.69,10.51,13.49v21.86h-5.82V566.79c0-6.46-2.06-9.23-6.39-9.23-2.7,0-5.47,1.77-8.66,5.32v25h-5.82V566.79c0-6.46-2.06-9.23-6.46-9.23-2.56,0-5.47,1.77-8.66,5.32v25h-5.82Z"/><path class="cls-8" d="M1002,566c0-4.4-1.49-8.66-7.1-8.66-4,0-7.6,1.85-10.29,3.69l-2.34-4c3.19-2.06,8-4.47,13.56-4.47,8.45,0,12,5.61,12,14.2v21.15H1003l-.5-4.12h-.14c-3.34,2.7-7.17,5-11.43,5-5.82,0-10.15-3.62-10.15-9.8C980.75,571.41,987.28,567.65,1002,566Zm-9.44,18c3.34,0,6.1-1.63,9.44-4.61v-9.58c-11.57,1.42-15.47,4.26-15.47,8.66C986.5,582.41,989.13,584,992.54,584Z"/><path class="cls-8" d="M1021.22,586.67v-.28a6.37,6.37,0,0,1-3.05-5.61,8.08,8.08,0,0,1,3.76-6.39v-.28a12.21,12.21,0,0,1-4.47-9.3c0-7.52,6-12.28,13-12.28a13.77,13.77,0,0,1,4.9.85h12v4.47h-7.1a10,10,0,0,1,2.84,7.1c0,7.38-5.61,12-12.64,12a12.05,12.05,0,0,1-5.18-1.21,5.23,5.23,0,0,0-2.2,4.12c0,2.2,1.42,3.76,6.1,3.76h6.67c8,0,12.07,2.48,12.07,8.23,0,6.39-6.74,11.93-17.46,11.93-8.45,0-14.27-3.34-14.27-9.3C1016.18,591.57,1018.09,588.8,1021.22,586.67Zm10.08,13.06c6.6,0,10.93-3.41,10.93-7,0-3.19-2.48-4.26-7-4.26h-6a16.8,16.8,0,0,1-4.47-.57c-2.48,1.77-3.55,3.83-3.55,5.82C1021.29,597.39,1025,599.73,1031.3,599.73Zm6.46-34.92c0-5-3.27-8-7.31-8s-7.31,3-7.31,8,3.34,8.23,7.31,8.23S1037.75,569.85,1037.75,564.81Z"/><path class="cls-8" d="M1066.5,552.53c8.8,0,13.77,6.32,13.77,16.18a20.62,20.62,0,0,1-.21,3.19h-23.28c.43,7.45,4.9,12.14,11.5,12.14a15.59,15.59,0,0,0,8.59-2.7l2.06,3.83a20.55,20.55,0,0,1-11.36,3.55c-9.23,0-16.54-6.74-16.54-18S1058.63,552.53,1066.5,552.53Zm8.66,15.55c0-7-3.12-10.93-8.52-10.93-4.83,0-9.23,4-9.94,10.93Z"/><path class="cls-8" d="M703.34,648.77c0-4.4-1.49-8.66-7.1-8.66-4,0-7.6,1.85-10.29,3.69l-2.34-4c3.19-2.06,8-4.47,13.56-4.47,8.45,0,12,5.61,12,14.2v21.15h-4.83l-.5-4.12h-.14c-3.34,2.7-7.17,5-11.43,5-5.82,0-10.15-3.62-10.15-9.8C682.12,654.16,688.65,650.4,703.34,648.77Zm-9.44,18c3.34,0,6.1-1.63,9.44-4.61V652.6c-11.57,1.42-15.47,4.26-15.47,8.66C687.87,665.17,690.49,666.8,693.9,666.8Z"/><path class="cls-8" d="M720.17,636.13H725l.5,5h.21c3.27-3.27,6.81-5.82,11.57-5.82,7.24,0,10.51,4.69,10.51,13.49v21.86H742V649.55c0-6.46-2-9.23-6.53-9.23-3.55,0-6,1.85-9.44,5.32v25h-5.82Z"/><path class="cls-8" d="M771.49,635.28c4,0,6.6,1.49,9.65,4l-.28-5.89V620.09h5.89v50.54h-4.83l-.5-4h-.21c-2.7,2.63-6.39,4.9-10.43,4.9-8.66,0-14.27-6.53-14.27-18C756.51,642.24,763.61,635.28,771.49,635.28Zm.57,31.3c3.19,0,6-1.56,8.8-4.76v-18c-2.91-2.63-5.54-3.62-8.38-3.62-5.54,0-9.94,5.32-9.94,13.2C762.54,661.62,766,666.59,772.06,666.59Z"/><path class="cls-8" d="M818.55,673.54v11.64h-5.82v-49h4.83l.5,4h.21c3.12-2.63,7-4.83,11-4.83,8.87,0,13.63,6.89,13.63,17.6,0,11.71-7,18.6-14.91,18.6-3.19,0-6.39-1.49-9.58-4Zm8.45-7c5.68,0,9.87-5.18,9.87-13.7,0-7.6-2.56-12.71-9.09-12.71-2.91,0-5.82,1.63-9.23,4.69V663C821.68,665.59,824.73,666.59,827,666.59Z"/><path class="cls-8" d="M851.63,636.13h5.89v21.08c0,6.46,1.92,9.23,6.46,9.23,3.55,0,6-1.77,9.3-5.82V636.13h5.82v34.5h-4.83l-.5-5.39h-.21c-3.19,3.76-6.6,6.25-11.36,6.25-7.31,0-10.58-4.68-10.58-13.49Z"/><path class="cls-8" d="M889.82,662.82c3,2.41,6,4.12,10.15,4.12,4.54,0,6.81-2.41,6.81-5.39,0-3.55-4.12-5.11-7.88-6.53-4.9-1.77-10.29-4.12-10.29-9.94,0-5.54,4.4-9.8,11.85-9.8a17.22,17.22,0,0,1,10.72,3.9l-2.77,3.69a12.81,12.81,0,0,0-7.88-3.05c-4.33,0-6.32,2.34-6.32,5,0,3.19,3.76,4.47,7.67,6,5,1.85,10.51,3.9,10.51,10.43,0,5.61-4.47,10.29-12.64,10.29a20.76,20.76,0,0,1-12.85-4.76Z"/><path class="cls-8" d="M920.49,620.09h5.82v13.77l-.21,7.1c3.27-3.12,6.74-5.68,11.5-5.68,7.24,0,10.51,4.69,10.51,13.49v21.86h-5.82V649.55c0-6.46-2-9.23-6.53-9.23-3.55,0-6,1.85-9.44,5.32v25h-5.82Z"/><path class="cls-8" d="M972,635.28c8.8,0,13.77,6.32,13.77,16.18a20.62,20.62,0,0,1-.21,3.19H962.3c.43,7.45,4.9,12.14,11.5,12.14a15.59,15.59,0,0,0,8.59-2.7l2.06,3.83a20.55,20.55,0,0,1-11.36,3.55c-9.23,0-16.54-6.74-16.54-18S964.14,635.28,972,635.28Zm8.66,15.55c0-7-3.12-10.93-8.52-10.93-4.83,0-9.23,4-9.94,10.93Z"/><path class="cls-8" d="M993.39,662.82c3,2.41,6,4.12,10.15,4.12,4.54,0,6.81-2.41,6.81-5.39,0-3.55-4.12-5.11-7.88-6.53-4.9-1.77-10.29-4.12-10.29-9.94,0-5.54,4.4-9.8,11.85-9.8a17.22,17.22,0,0,1,10.72,3.9l-2.77,3.69a12.81,12.81,0,0,0-7.88-3.05c-4.33,0-6.32,2.34-6.32,5,0,3.19,3.76,4.47,7.67,6,5,1.85,10.51,3.9,10.51,10.43,0,5.61-4.47,10.29-12.64,10.29a20.76,20.76,0,0,1-12.85-4.76Z"/><path class="cls-8" d="M684.82,723.65H679.7v-4.4l5.4-.35.71-9.65h4.9v9.65H700v4.76h-9.3v19.17c0,4.26,1.35,6.67,5.32,6.67a12.52,12.52,0,0,0,3.9-.92l1.14,4.4a21.3,21.3,0,0,1-6.39,1.28c-7.38,0-9.87-4.68-9.87-11.5Z"/><path class="cls-8" d="M720.52,718c8.45,0,16,6.6,16,18.17s-7.52,18-16,18-16-6.6-16-18S712.07,718,720.52,718Zm0,31.38c6,0,9.94-5.32,9.94-13.2s-4-13.34-9.94-13.34-9.94,5.39-9.94,13.34S714.63,749.41,720.52,749.41Z"/><path class="cls-8" d="M760.27,706.82H787.1v5H766.24v14.62h17.6v5h-17.6v16.89h21.58v5H760.27Z"/><path class="cls-8" d="M815.43,706a17.2,17.2,0,0,1,12.71,5.75l-3.34,3.76a12.44,12.44,0,0,0-9.3-4.33c-8.87,0-14.76,7.24-14.76,18.81s5.61,19.09,14.48,19.09c4.4,0,7.67-1.85,10.65-5.18l3.34,3.62a17.84,17.84,0,0,1-14.13,6.74c-11.71,0-20.44-8.94-20.44-24.13C794.63,715.13,803.5,706,815.43,706Z"/><path class="cls-8" d="M863.06,753.39l-11.22-19.66h-8.38v19.66h-6V706.82h14.62c9.44,0,16.26,3.41,16.26,13.06,0,7.24-4.12,11.57-10.43,13.2l11.85,20.3ZM843.47,728.9h7.81c7.24,0,11.22-3,11.22-9s-4-8.31-11.22-8.31h-7.81Z"/><path class="cls-8" d="M73.18,458.55H87.51c10.29,0,17.18,3.48,17.18,13.7,0,9.8-7,14.41-17.18,14.41H79.14v18.46h-6Zm13.56,23.28c8.16,0,12.07-3,12.07-9.58s-4-8.94-12.07-8.94h-7.6v18.53Z"/><path class="cls-8" d="M112.86,470.62h5.89V491.7c0,6.46,1.92,9.23,6.46,9.23,3.55,0,6-1.77,9.3-5.82V470.62h5.82v34.5H135.5l-.5-5.39h-.21c-3.19,3.76-6.6,6.25-11.36,6.25-7.31,0-10.58-4.68-10.58-13.49Z"/><path class="cls-8" d="M151,497.31c3,2.41,6,4.12,10.15,4.12,4.54,0,6.81-2.41,6.81-5.39,0-3.55-4.12-5.11-7.88-6.53-4.9-1.77-10.29-4.12-10.29-9.94,0-5.54,4.4-9.8,11.85-9.8a17.22,17.22,0,0,1,10.72,3.9l-2.77,3.69a12.81,12.81,0,0,0-7.88-3.05c-4.33,0-6.32,2.34-6.32,5,0,3.19,3.76,4.47,7.67,6,5,1.85,10.51,3.9,10.51,10.43,0,5.61-4.47,10.29-12.64,10.29a20.76,20.76,0,0,1-12.85-4.76Z"/><path class="cls-8" d="M181.71,454.58h5.82v13.77l-.21,7.1c3.27-3.12,6.74-5.68,11.5-5.68,7.24,0,10.51,4.69,10.51,13.49v21.86h-5.82V484c0-6.46-2-9.23-6.53-9.23-3.55,0-6,1.85-9.44,5.32v25h-5.82Z"/><path class="cls-8" d="M248.72,469.77a14.22,14.22,0,0,1,10.08,4.12l-2.91,3.76c-2.06-1.77-4.19-3.05-7-3.05-6.25,0-10.79,5.39-10.79,13.34s4.33,13.2,10.65,13.2a12.3,12.3,0,0,0,8.09-3.48l2.63,3.83A17.08,17.08,0,0,1,248.3,506c-9.16,0-16.18-6.6-16.18-18S239.85,469.77,248.72,469.77Z"/><path class="cls-8" d="M279,469.77c8.45,0,16,6.6,16,18.17s-7.52,18-16,18-16-6.6-16-18S270.52,469.77,279,469.77Zm0,31.38c6,0,9.94-5.32,9.94-13.2s-4-13.34-9.94-13.34S269,480,269,487.94,273.07,501.15,279,501.15Z"/><path class="cls-8" d="M316.51,469.77c4,0,6.6,1.49,9.65,4l-.28-5.89V454.58h5.89v50.54h-4.83l-.5-4h-.21c-2.7,2.63-6.39,4.9-10.43,4.9-8.66,0-14.27-6.53-14.27-18C301.54,476.73,308.64,469.77,316.51,469.77Zm.57,31.3c3.19,0,6-1.56,8.8-4.76v-18c-2.91-2.63-5.54-3.62-8.38-3.62-5.54,0-9.94,5.32-9.94,13.2C307.57,496.11,311,501.07,317.08,501.07Z"/><path class="cls-8" d="M356.34,469.77c8.8,0,13.77,6.32,13.77,16.18a20.62,20.62,0,0,1-.21,3.19H346.61c.43,7.45,4.9,12.14,11.5,12.14a15.59,15.59,0,0,0,8.59-2.7l2.06,3.83A20.55,20.55,0,0,1,357.4,506c-9.23,0-16.54-6.74-16.54-18S348.46,469.77,356.34,469.77ZM365,485.32c0-7-3.12-10.93-8.52-10.93-4.83,0-9.23,4-9.94,10.93Z"/><path class="cls-8" d="M394,475.38h-5.11V471l5.4-.35L395,461h4.9v9.65h9.3v4.76h-9.3v19.17c0,4.26,1.35,6.67,5.32,6.67a12.52,12.52,0,0,0,3.9-.92l1.14,4.4a21.3,21.3,0,0,1-6.39,1.28c-7.38,0-9.87-4.68-9.87-11.5Z"/><path class="cls-8" d="M429.67,469.77c8.45,0,16,6.6,16,18.17s-7.52,18-16,18-16-6.6-16-18S421.22,469.77,429.67,469.77Zm0,31.38c6,0,9.94-5.32,9.94-13.2s-4-13.34-9.94-13.34-9.94,5.39-9.94,13.34S423.77,501.15,429.67,501.15Z"/><path class="cls-8" d="M92,540.46a18.1,18.1,0,0,1,13.34,5.75L101.92,550a12.67,12.67,0,0,0-9.87-4.33c-9.44,0-15.47,7.24-15.47,18.81s5.54,19.09,15.47,19.09c3.34,0,6.6-1.06,8.45-2.77V568.64H90.64v-4.9H105.9v19.59a20.93,20.93,0,0,1-14.48,5.39c-12.21,0-20.94-8.94-20.94-24.13C70.48,549.62,79.49,540.46,92,540.46Z"/><path class="cls-8" d="M115.2,542.52a4.06,4.06,0,0,1,8.09,0,4.06,4.06,0,0,1-8.09,0Zm1.06,10.86h5.82v34.5h-5.82Z"/><path class="cls-8" d="M134.72,558.13h-5.11v-4.4l5.4-.35.71-9.65h4.9v9.65h9.3v4.76h-9.3V577.3c0,4.26,1.35,6.67,5.32,6.67a12.52,12.52,0,0,0,3.9-.92l1.14,4.4a21.3,21.3,0,0,1-6.39,1.28c-7.38,0-9.87-4.68-9.87-11.5Z"/><path class="cls-8" d="M158.07,541.31h6v19.52h21.65V541.31h5.89v46.57h-5.89V565.94H164v21.93h-6Z"/><path class="cls-8" d="M203.15,553.38H209v21.08c0,6.46,1.92,9.23,6.46,9.23,3.55,0,6-1.77,9.3-5.82V553.38h5.82v34.5h-4.83l-.5-5.39h-.21c-3.19,3.76-6.6,6.25-11.36,6.25-7.31,0-10.58-4.68-10.58-13.49Z"/><path class="cls-8" d="M242.26,537.34h5.82v13.77l-.14,6.25c3.12-2.77,7-4.83,10.79-4.83,8.94,0,13.7,6.89,13.7,17.53,0,11.78-7,18.67-14.91,18.67-3.19,0-6.81-1.56-9.87-4.26h-.21l-.5,3.41h-4.68Zm14.27,46.49c5.68,0,9.87-5.18,9.87-13.7,0-7.6-2.56-12.71-9.09-12.71-2.91,0-6,1.63-9.23,4.69v18.1A13.51,13.51,0,0,0,256.53,583.83Z"/></g></g></svg>